<?xml version="1.0" encoding="utf-8"?>
<svg xmlns="http://www.w3.org/2000/svg" viewBox="0 0 501.845 250.923">
  <g transform="matrix(0.079467, 0, 0, -0.079288, -151.667938, 603.230469)" fill="#000000" stroke="none" style="">
    <path d="M4271 7600 l-765 -5 182 -109 c205 -123 248 -160 288 -243 l29 -58 0 -850 0 -850 -23 -57 c-51 -127 -157 -201 -287 -202 -60 0 -78 4 -132 33 -109 58 -163 162 -166 318 -1 51 -5 93 -9 93 -12 0 -80 -101 -114 -169 -51 -104 -67 -186 -61 -316 4 -86 10 -125 31 -180 58 -153 163 -263 310 -324 303 -126 682 5 900 313 72 101 131 225 165 348 47 174 52 267 51 1060 -1 704 0 746 18 808 27 89 39 115 89 187 45 65 125 129 221 177 28 14 52 29 52 31 0 3 -3 4 -7 3 -5 -2 -352 -5 -772 -8z"/>
    <path d="M5830 7050 l0 -540 -315 0 -315 0 0 481 0 481 -27 -6 c-58 -14 -174 -76 -219 -118 -56 -51 -88 -101 -117 -177 -21 -55 -21 -74 -28 -876 -3 -451 -9 -833 -13 -850 -4 -16 -17 -70 -28 -120 -43 -186 -140 -365 -272 -503 -165 -172 -355 -262 -596 -280 l-95 -8 55 -13 c83 -19 263 -25 381 -12 462 50 808 342 918 776 28 111 32 144 38 363 4 131 9 192 17 193 10 1 214 1 494 0 l122 -1 0 -639 0 -640 34 14 c61 26 279 147 364 203 104 67 211 172 240 234 l22 48 0 1265 0 1265 -330 0 -330 0 0 -540z"/>
    <path d="M3150 6483 c-12 -43 -39 -136 -60 -208 -21 -71 -64 -222 -95 -335 -70 -250 -141 -499 -150 -523 -7 -16 0 -18 90 -15 l98 3 92 335 c51 184 102 367 113 405 30 101 112 400 112 408 0 4 -40 7 -89 7 l-88 0 -23 -77z"/>
    <path d="M7037 6503 c-17 -55 -67 -223 -127 -433 -65 -227 -104 -364 -149 -516 -22 -77 -41 -143 -41 -147 0 -4 42 -7 93 -7 l93 0 89 313 c48 171 119 418 157 547 37 129 68 238 68 241 0 5 -146 49 -163 49 -3 0 -12 -21 -20 -47z"/>
    <path d="M7332 6334 l3 -96 282 -142 c155 -78 285 -145 289 -148 3 -4 -125 -71 -285 -149 l-291 -143 0 -99 c0 -54 3 -97 8 -95 4 2 199 99 435 216 l427 213 0 52 -1 52 -107 52 c-59 29 -251 127 -427 217 -176 91 -324 166 -328 166 -4 0 -6 -43 -5 -96z"/>
    <path d="M2360 6214 c-217 -113 -401 -212 -407 -221 -7 -9 -13 -38 -13 -64 l0 -48 288 -147 c158 -81 342 -176 410 -211 67 -34 124 -63 127 -63 3 0 5 45 5 99 0 68 -4 102 -12 108 -7 4 -126 67 -265 138 -139 72 -253 134 -254 140 -1 5 99 62 222 127 123 64 243 128 267 142 l42 26 0 90 c0 49 -3 90 -7 89 -5 0 -186 -93 -403 -205z"/>
  </g>
</svg>