<svg xmlns="http://www.w3.org/2000/svg" xmlns:xlink="http://www.w3.org/1999/xlink" width="500" zoomAndPan="magnify" viewBox="0 0 375 374.999991" height="500" preserveAspectRatio="xMidYMid meet" version="1.0"><defs><g/></defs><g fill="#101956" fill-opacity="1"><g transform="translate(125.757485, 115.965168)"><g><path d="M 59.890625 112.3125 C 40.546875 112.3125 25.726562 106.800781 15.4375 95.78125 C 5.144531 84.769531 0 68.867188 0 48.078125 L 0 14.796875 L 117.53125 14.796875 L 117.53125 51.6875 C 117.53125 70.875 112.460938 85.773438 102.328125 96.390625 C 92.203125 107.003906 78.054688 112.3125 59.890625 112.3125 Z M 59.25 86.421875 C 84.488281 86.421875 97.109375 75.273438 97.109375 52.984375 L 97.109375 39.71875 L 20.578125 39.71875 L 20.578125 50.40625 C 20.578125 74.414062 33.46875 86.421875 59.25 86.421875 Z M 59.25 86.421875 "/></g></g></g><g fill="#101956" fill-opacity="1"><g transform="translate(142.879186, 123.305661)"><g><path d="M 54.296875 33 L 54.296875 39.671875 C 54.296875 46.210938 55.382812 51.039062 57.5625 54.15625 C 59.75 57.28125 63.179688 58.84375 67.859375 58.84375 C 72.484375 58.84375 75.773438 57.25 77.734375 54.0625 C 79.691406 50.882812 80.671875 45.953125 80.671875 39.265625 L 80.671875 33 Z M 37.46875 33 L 0 33 L 0 12.28125 L 97.640625 12.28125 L 97.640625 40.734375 C 97.640625 54.003906 95.222656 63.820312 90.390625 70.1875 C 85.566406 76.5625 78.234375 79.75 68.390625 79.75 C 62.648438 79.75 57.539062 78.164062 53.0625 75 C 48.582031 71.84375 45.078125 67.367188 42.546875 61.578125 C 20.597656 76.273438 6.414062 85.847656 0 90.296875 L 0 67.328125 L 37.46875 44.015625 Z M 37.46875 33 "/></g></g></g><g fill="#000000" fill-opacity="1"><g transform="translate(133.124996, 253.331028)"><g><path d="M 5.84375 -11.609375 C 7.488281 -11.609375 8.75 -11.140625 9.625 -10.203125 C 10.5 -9.265625 10.9375 -7.921875 10.9375 -6.171875 C 10.9375 -4.140625 10.460938 -2.582031 9.515625 -1.5 C 8.566406 -0.425781 7.207031 0.109375 5.4375 0.109375 C 4.945312 0.109375 4.347656 0.0976562 3.640625 0.078125 C 2.941406 0.0546875 2.289062 0.03125 1.6875 0 L 1.671875 0 L 1.765625 -3.46875 L 1.671875 -11.53125 L 1.6875 -11.53125 Z M 5.671875 -1.09375 C 6.890625 -1.09375 7.828125 -1.488281 8.484375 -2.28125 C 9.140625 -3.082031 9.46875 -4.28125 9.46875 -5.875 C 9.46875 -8.894531 8.222656 -10.40625 5.734375 -10.40625 C 4.984375 -10.40625 4.113281 -10.378906 3.125 -10.328125 L 3.0625 -3.59375 L 3.109375 -1.203125 C 3.484375 -1.171875 3.929688 -1.144531 4.453125 -1.125 C 4.972656 -1.101562 5.378906 -1.09375 5.671875 -1.09375 Z M 5.671875 -1.09375 "/></g></g></g><g fill="#000000" fill-opacity="1"><g transform="translate(144.752959, 253.331028)"><g><path d="M 2.921875 -2.8125 L 2.953125 0 L 1.625 0 L 1.671875 -2.703125 L 1.625 -8.96875 L 2.96875 -8.96875 Z M 2.921875 -2.8125 "/></g></g></g><g fill="#000000" fill-opacity="1"><g transform="translate(149.41495, 253.331028)"><g><path d="M 5.515625 -9.046875 C 6.441406 -9.046875 7.378906 -8.84375 8.328125 -8.4375 L 7.890625 -7.140625 L 7.71875 -7.140625 C 7.28125 -7.429688 6.875 -7.632812 6.5 -7.75 C 6.125 -7.863281 5.722656 -7.921875 5.296875 -7.921875 C 4.273438 -7.921875 3.507812 -7.628906 3 -7.046875 C 2.488281 -6.472656 2.234375 -5.578125 2.234375 -4.359375 C 2.234375 -3.179688 2.46875 -2.332031 2.9375 -1.8125 C 3.40625 -1.289062 4.148438 -1.03125 5.171875 -1.03125 C 5.460938 -1.03125 5.742188 -1.054688 6.015625 -1.109375 C 6.296875 -1.160156 6.632812 -1.257812 7.03125 -1.40625 L 7.03125 -2.296875 L 7.015625 -3.578125 L 8.265625 -3.671875 L 8.265625 -0.4375 C 7.046875 -0.0703125 5.992188 0.109375 5.109375 0.109375 C 3.691406 0.109375 2.617188 -0.269531 1.890625 -1.03125 C 1.171875 -1.789062 0.8125 -2.878906 0.8125 -4.296875 C 0.8125 -5.835938 1.222656 -7.015625 2.046875 -7.828125 C 2.867188 -8.640625 4.023438 -9.046875 5.515625 -9.046875 Z M 5.515625 -9.046875 "/></g></g></g><g fill="#000000" fill-opacity="1"><g transform="translate(158.882921, 253.331028)"><g><path d="M 2.921875 -2.8125 L 2.953125 0 L 1.625 0 L 1.671875 -2.703125 L 1.625 -8.96875 L 2.96875 -8.96875 Z M 2.921875 -2.8125 "/></g></g></g><g fill="#000000" fill-opacity="1"><g transform="translate(163.544912, 253.331028)"><g><path d="M 7.296875 -8.859375 L 7.203125 -7.71875 L 5.53125 -7.84375 L 4.625 -7.84375 L 4.578125 -2.8125 L 4.625 0 L 3.28125 0 L 3.328125 -2.703125 L 3.296875 -7.84375 L 2.390625 -7.84375 L 0.6875 -7.71875 L 0.578125 -7.84375 L 0.6875 -8.96875 L 7.21875 -8.96875 Z M 7.296875 -8.859375 "/></g></g></g><g fill="#000000" fill-opacity="1"><g transform="translate(171.410893, 253.331028)"><g><path d="M 8.609375 0 L 7.25 0 L 7.03125 -0.96875 L 6.5625 -2.296875 L 4.421875 -2.328125 L 2.515625 -2.296875 L 2.03125 -1.046875 L 1.78125 0 L 0.453125 0 L 3.90625 -8.96875 L 5.453125 -8.96875 Z M 6.1875 -3.40625 L 4.703125 -7.65625 L 4.59375 -7.65625 L 2.953125 -3.40625 L 4.53125 -3.390625 Z M 6.1875 -3.40625 "/></g></g></g><g fill="#000000" fill-opacity="1"><g transform="translate(180.626866, 253.331028)"><g><path d="M 6.4375 -1.015625 L 6.359375 0 L 1.578125 0 L 1.640625 -2.703125 L 1.578125 -8.96875 L 2.9375 -8.96875 L 2.875 -2.8125 L 2.921875 -1.140625 L 6.375 -1.140625 Z M 6.4375 -1.015625 "/></g></g></g><g fill="#000000" fill-opacity="1"><g transform="translate(187.412845, 253.331028)"><g/></g></g><g fill="#000000" fill-opacity="1"><g transform="translate(190.382839, 253.331028)"><g><path d="M 6.375 -4.65625 C 7.164062 -3.351562 8.160156 -1.914062 9.359375 -0.34375 L 9.34375 -0.15625 C 8.90625 0.0078125 8.460938 0.113281 8.015625 0.15625 L 7.8125 0.03125 C 6.832031 -1.4375 5.953125 -2.875 5.171875 -4.28125 L 3.0625 -4.28125 L 3.0625 -3.59375 L 3.125 0 L 1.671875 0 L 1.765625 -3.46875 L 1.671875 -11.53125 L 5.203125 -11.5625 C 6.328125 -11.5625 7.195312 -11.273438 7.8125 -10.703125 C 8.4375 -10.128906 8.75 -9.316406 8.75 -8.265625 C 8.75 -7.472656 8.539062 -6.757812 8.125 -6.125 C 7.707031 -5.5 7.125 -5.007812 6.375 -4.65625 Z M 3.078125 -5.515625 L 5.234375 -5.453125 C 6.578125 -5.835938 7.25 -6.734375 7.25 -8.140625 C 7.25 -8.867188 7.050781 -9.414062 6.65625 -9.78125 C 6.257812 -10.144531 5.664062 -10.34375 4.875 -10.375 L 3.125 -10.3125 Z M 3.078125 -5.515625 "/></g></g></g><g fill="#000000" fill-opacity="1"><g transform="translate(200.372809, 253.331028)"><g><path d="M 7.09375 -1.15625 L 7.203125 -1.046875 L 7.078125 0 L 1.625 0 L 1.671875 -2.703125 L 1.625 -8.96875 L 7.109375 -8.96875 L 7.203125 -8.859375 L 7.09375 -7.8125 L 4.828125 -7.890625 L 2.953125 -7.859375 L 2.9375 -5.140625 L 4.71875 -5.125 L 6.28125 -5.1875 L 6.375 -5.0625 L 6.265625 -4 L 4.609375 -4.046875 L 2.9375 -4.03125 L 2.921875 -2.8125 L 2.9375 -1.09375 L 4.703125 -1.078125 Z M 7.09375 -1.15625 "/></g></g></g><g fill="#000000" fill-opacity="1"><g transform="translate(208.202788, 253.331028)"><g><path d="M 4.265625 -9.046875 C 4.992188 -9.046875 5.726562 -8.90625 6.46875 -8.625 L 6.234375 -7.296875 L 6.015625 -7.234375 C 5.679688 -7.492188 5.363281 -7.6875 5.0625 -7.8125 C 4.757812 -7.945312 4.445312 -8.015625 4.125 -8.015625 C 3.601562 -8.015625 3.191406 -7.878906 2.890625 -7.609375 C 2.597656 -7.335938 2.453125 -7.023438 2.453125 -6.671875 C 2.453125 -6.328125 2.597656 -6.046875 2.890625 -5.828125 C 3.179688 -5.617188 3.632812 -5.378906 4.25 -5.109375 C 4.789062 -4.867188 5.21875 -4.648438 5.53125 -4.453125 C 5.851562 -4.265625 6.128906 -4.007812 6.359375 -3.6875 C 6.597656 -3.375 6.71875 -2.988281 6.71875 -2.53125 C 6.71875 -2.070312 6.585938 -1.640625 6.328125 -1.234375 C 6.078125 -0.828125 5.707031 -0.5 5.21875 -0.25 C 4.738281 -0.0078125 4.160156 0.109375 3.484375 0.109375 C 3.066406 0.109375 2.625 0.0546875 2.15625 -0.046875 C 1.695312 -0.148438 1.269531 -0.300781 0.875 -0.5 L 1.046875 -1.921875 L 1.21875 -2 C 1.5625 -1.664062 1.957031 -1.40625 2.40625 -1.21875 C 2.851562 -1.03125 3.269531 -0.9375 3.65625 -0.9375 C 4.15625 -0.9375 4.566406 -1.070312 4.890625 -1.34375 C 5.210938 -1.613281 5.375 -1.941406 5.375 -2.328125 C 5.375 -2.679688 5.226562 -2.96875 4.9375 -3.1875 C 4.644531 -3.40625 4.1875 -3.65625 3.5625 -3.9375 C 3.050781 -4.164062 2.628906 -4.375 2.296875 -4.5625 C 1.960938 -4.757812 1.679688 -5.015625 1.453125 -5.328125 C 1.222656 -5.648438 1.109375 -6.039062 1.109375 -6.5 C 1.109375 -6.976562 1.238281 -7.410156 1.5 -7.796875 C 1.757812 -8.179688 2.125 -8.484375 2.59375 -8.703125 C 3.070312 -8.929688 3.628906 -9.046875 4.265625 -9.046875 Z M 4.265625 -9.046875 "/></g></g></g><g fill="#000000" fill-opacity="1"><g transform="translate(215.852762, 253.331028)"><g><path d="M 5.109375 -9.046875 C 6.109375 -9.046875 6.972656 -8.835938 7.703125 -8.421875 L 7.453125 -7.1875 L 7.296875 -7.125 C 6.992188 -7.375 6.644531 -7.570312 6.25 -7.71875 C 5.851562 -7.863281 5.425781 -7.9375 4.96875 -7.9375 C 4.082031 -7.9375 3.40625 -7.648438 2.9375 -7.078125 C 2.46875 -6.515625 2.234375 -5.664062 2.234375 -4.53125 C 2.234375 -3.394531 2.46875 -2.523438 2.9375 -1.921875 C 3.40625 -1.328125 4.082031 -1.03125 4.96875 -1.03125 C 5.394531 -1.03125 5.828125 -1.101562 6.265625 -1.25 C 6.710938 -1.394531 7.109375 -1.597656 7.453125 -1.859375 L 7.609375 -1.796875 L 7.484375 -0.5625 C 6.671875 -0.113281 5.8125 0.109375 4.90625 0.109375 C 3.59375 0.109375 2.582031 -0.28125 1.875 -1.0625 C 1.164062 -1.851562 0.8125 -2.972656 0.8125 -4.421875 C 0.8125 -5.898438 1.1875 -7.039062 1.9375 -7.84375 C 2.6875 -8.644531 3.742188 -9.046875 5.109375 -9.046875 Z M 5.109375 -9.046875 "/></g></g></g><g fill="#000000" fill-opacity="1"><g transform="translate(224.150735, 253.331028)"><g><path d="M 8.515625 -4.40625 L 8.515625 -3.109375 C 8.523438 -2.085938 8.210938 -1.296875 7.578125 -0.734375 C 6.953125 -0.171875 6.050781 0.109375 4.875 0.109375 C 3.707031 0.109375 2.816406 -0.164062 2.203125 -0.71875 C 1.597656 -1.28125 1.304688 -2.078125 1.328125 -3.109375 L 1.34375 -4.484375 L 1.328125 -8.96875 L 2.6875 -8.96875 L 2.609375 -3.328125 C 2.597656 -2.578125 2.785156 -2.007812 3.171875 -1.625 C 3.566406 -1.238281 4.15625 -1.046875 4.9375 -1.046875 C 5.695312 -1.046875 6.273438 -1.238281 6.671875 -1.625 C 7.066406 -2.007812 7.257812 -2.578125 7.25 -3.328125 L 7.203125 -8.96875 L 8.5625 -8.96875 Z M 8.515625 -4.40625 "/></g></g></g><g fill="#000000" fill-opacity="1"><g transform="translate(234.032708, 253.331028)"><g><path d="M 7.09375 -1.15625 L 7.203125 -1.046875 L 7.078125 0 L 1.625 0 L 1.671875 -2.703125 L 1.625 -8.96875 L 7.109375 -8.96875 L 7.203125 -8.859375 L 7.09375 -7.8125 L 4.828125 -7.890625 L 2.953125 -7.859375 L 2.9375 -5.140625 L 4.71875 -5.125 L 6.28125 -5.1875 L 6.375 -5.0625 L 6.265625 -4 L 4.609375 -4.046875 L 2.9375 -4.03125 L 2.921875 -2.8125 L 2.9375 -1.09375 L 4.703125 -1.078125 Z M 7.09375 -1.15625 "/></g></g></g></svg>