<svg xmlns="http://www.w3.org/2000/svg" xmlns:xlink="http://www.w3.org/1999/xlink" width="500" zoomAndPan="magnify" viewBox="0 0 375 374.999991" height="500" preserveAspectRatio="xMidYMid meet" version="1.0"><defs><g/></defs><g fill="#ffffff" fill-opacity="1"><g transform="translate(20.809209, 7.068706)"><g><path d="M 177.265625 332.40625 C 120.003906 332.40625 76.144531 316.101562 45.6875 283.5 C 15.226562 250.90625 0 203.835938 0 142.296875 L 0 43.78125 L 347.875 43.78125 L 347.875 153 C 347.875 209.789062 332.882812 253.890625 302.90625 285.296875 C 272.925781 316.703125 231.046875 332.40625 177.265625 332.40625 Z M 175.359375 255.796875 C 250.078125 255.796875 287.4375 222.800781 287.4375 156.8125 L 287.4375 117.546875 L 60.921875 117.546875 L 60.921875 149.1875 C 60.921875 220.257812 99.066406 255.796875 175.359375 255.796875 Z M 175.359375 255.796875 "/></g></g></g><g fill="#ffffff" fill-opacity="1"><g transform="translate(71.487394, 28.795748)"><g><path d="M 160.71875 97.65625 L 160.71875 117.421875 C 160.71875 136.796875 163.945312 151.097656 170.40625 160.328125 C 176.863281 169.554688 187.015625 174.171875 200.859375 174.171875 C 214.566406 174.171875 224.316406 169.457031 230.109375 160.03125 C 235.910156 150.601562 238.8125 136.007812 238.8125 116.25 L 238.8125 97.65625 Z M 110.90625 97.65625 L 0 97.65625 L 0 36.375 L 289.03125 36.375 L 289.03125 120.59375 C 289.03125 159.863281 281.878906 188.921875 267.578125 207.765625 C 253.273438 226.617188 231.5625 236.046875 202.4375 236.046875 C 185.4375 236.046875 170.3125 231.363281 157.0625 222 C 143.820312 212.644531 133.445312 199.398438 125.9375 182.265625 C 60.957031 225.765625 18.976562 254.101562 0 267.28125 L 0 199.28125 L 110.90625 130.28125 Z M 110.90625 97.65625 "/></g></g></g></svg>