<svg xmlns="http://www.w3.org/2000/svg" xmlns:xlink="http://www.w3.org/1999/xlink" width="500" zoomAndPan="magnify" viewBox="0 0 375 374.999991" height="500" preserveAspectRatio="xMidYMid meet" version="1.0"><defs><g/></defs><g fill="#101956" fill-opacity="1"><g transform="translate(75.409252, 76.827065)"><g><path d="M 108.734375 203.890625 C 73.609375 203.890625 46.703125 193.890625 28.015625 173.890625 C 9.335938 153.898438 0 125.03125 0 87.28125 L 0 26.859375 L 213.375 26.859375 L 213.375 93.84375 C 213.375 128.675781 204.175781 155.722656 185.78125 174.984375 C 167.394531 194.253906 141.710938 203.890625 108.734375 203.890625 Z M 107.5625 156.890625 C 153.394531 156.890625 176.3125 136.65625 176.3125 96.1875 L 176.3125 72.09375 L 37.359375 72.09375 L 37.359375 91.515625 C 37.359375 135.097656 60.757812 156.890625 107.5625 156.890625 Z M 107.5625 156.890625 "/></g></g></g><g fill="#101956" fill-opacity="1"><g transform="translate(106.494695, 90.154213)"><g><path d="M 98.578125 59.90625 L 98.578125 72.03125 C 98.578125 83.914062 100.554688 92.6875 104.515625 98.34375 C 108.484375 104 114.710938 106.828125 123.203125 106.828125 C 131.609375 106.828125 137.585938 103.9375 141.140625 98.15625 C 144.703125 92.375 146.484375 83.421875 146.484375 71.296875 L 146.484375 59.90625 Z M 68.03125 59.90625 L 0 59.90625 L 0 22.3125 L 177.28125 22.3125 L 177.28125 73.96875 C 177.28125 98.0625 172.894531 115.882812 164.125 127.4375 C 155.351562 139 142.035156 144.78125 124.171875 144.78125 C 113.742188 144.78125 104.46875 141.910156 96.34375 136.171875 C 88.21875 130.429688 81.851562 122.304688 77.25 111.796875 C 37.394531 138.472656 11.644531 155.859375 0 163.953125 L 0 122.234375 L 68.03125 79.90625 Z M 68.03125 59.90625 "/></g></g></g></svg>