<svg xmlns="http://www.w3.org/2000/svg" xmlns:xlink="http://www.w3.org/1999/xlink" width="500" zoomAndPan="magnify" viewBox="0 0 375 374.999991" height="500" preserveAspectRatio="xMidYMid meet" version="1.0"><defs><g/></defs><g fill="#ffffff" fill-opacity="1"><g transform="translate(86.077849, 137.524443)"><g><path d="M 49.46875 92.765625 C 33.488281 92.765625 21.25 88.210938 12.75 79.109375 C 4.25 70.015625 0 56.878906 0 39.703125 L 0 12.21875 L 97.078125 12.21875 L 97.078125 42.6875 C 97.078125 58.539062 92.890625 70.847656 84.515625 79.609375 C 76.148438 88.378906 64.46875 92.765625 49.46875 92.765625 Z M 48.9375 71.375 C 69.78125 71.375 80.203125 62.164062 80.203125 43.75 L 80.203125 32.796875 L 17 32.796875 L 17 41.625 C 17 61.457031 27.644531 71.375 48.9375 71.375 Z M 48.9375 71.375 "/></g></g></g><g fill="#ffffff" fill-opacity="1"><g transform="translate(102.501984, 141.501552)"><g><path d="M 44.5625 27.078125 L 44.5625 32.5625 C 44.5625 37.925781 45.457031 41.882812 47.25 44.4375 C 49.039062 47 51.851562 48.28125 55.6875 48.28125 C 59.488281 48.28125 62.191406 46.972656 63.796875 44.359375 C 65.398438 41.753906 66.203125 37.710938 66.203125 32.234375 L 66.203125 27.078125 Z M 30.75 27.078125 L 0 27.078125 L 0 10.078125 L 80.125 10.078125 L 80.125 33.4375 C 80.125 44.320312 78.140625 52.375 74.171875 57.59375 C 70.210938 62.820312 64.195312 65.4375 56.125 65.4375 C 51.40625 65.4375 47.207031 64.140625 43.53125 61.546875 C 39.863281 58.953125 36.988281 55.28125 34.90625 50.53125 C 16.894531 62.59375 5.257812 70.453125 0 74.109375 L 0 55.25 L 30.75 36.125 Z M 30.75 27.078125 "/></g></g></g><g fill="#ffffff" fill-opacity="1"><g transform="translate(203.832399, 192.374987)"><g><path d="M 6.0625 -11.65625 C 7.75 -11.65625 9.039062 -11.1875 9.9375 -10.25 C 10.832031 -9.320312 11.28125 -7.984375 11.28125 -6.234375 C 11.28125 -4.179688 10.773438 -2.609375 9.765625 -1.515625 C 8.765625 -0.421875 7.328125 0.125 5.453125 0.125 C 4.890625 0.125 4.210938 0.109375 3.421875 0.078125 C 2.640625 0.0546875 1.96875 0.03125 1.40625 0 L 1.53125 -3.453125 L 1.40625 -11.59375 Z M 5.890625 -1.765625 C 7.796875 -1.765625 8.75 -3.066406 8.75 -5.671875 C 8.75 -7.085938 8.515625 -8.113281 8.046875 -8.75 C 7.585938 -9.394531 6.867188 -9.71875 5.890625 -9.71875 C 5.253906 -9.71875 4.578125 -9.6875 3.859375 -9.625 L 3.75 -3.671875 L 3.796875 -1.890625 C 4.640625 -1.804688 5.335938 -1.765625 5.890625 -1.765625 Z M 5.890625 -1.765625 "/></g></g></g><g fill="#ffffff" fill-opacity="1"><g transform="translate(215.622365, 192.374987)"><g><path d="M 3.484375 -2.921875 L 3.578125 0 L 1.3125 0 L 1.40625 -2.703125 L 1.3125 -9.09375 L 3.625 -9.09375 Z M 3.484375 -2.921875 "/></g></g></g><g fill="#ffffff" fill-opacity="1"><g transform="translate(220.644352, 192.374987)"><g><path d="M 5.703125 -9.21875 C 6.710938 -9.21875 7.660156 -9.050781 8.546875 -8.71875 L 7.953125 -6.65625 L 7.765625 -6.65625 C 7.296875 -6.925781 6.875 -7.113281 6.5 -7.21875 C 6.132812 -7.320312 5.734375 -7.375 5.296875 -7.375 C 4.460938 -7.375 3.863281 -7.15625 3.5 -6.71875 C 3.132812 -6.28125 2.953125 -5.523438 2.953125 -4.453125 C 2.953125 -3.722656 3.03125 -3.15625 3.1875 -2.75 C 3.34375 -2.34375 3.59375 -2.050781 3.9375 -1.875 C 4.28125 -1.707031 4.742188 -1.625 5.328125 -1.625 C 5.691406 -1.625 6.070312 -1.695312 6.46875 -1.84375 L 6.46875 -2.40625 L 6.4375 -3.859375 L 8.515625 -4 L 8.484375 -2.796875 L 8.484375 -0.453125 C 7.304688 -0.0546875 6.203125 0.140625 5.171875 0.140625 C 3.648438 0.140625 2.503906 -0.242188 1.734375 -1.015625 C 0.972656 -1.785156 0.59375 -2.894531 0.59375 -4.34375 C 0.59375 -5.925781 1.035156 -7.132812 1.921875 -7.96875 C 2.816406 -8.800781 4.078125 -9.21875 5.703125 -9.21875 Z M 5.703125 -9.21875 "/></g></g></g><g fill="#ffffff" fill-opacity="1"><g transform="translate(230.004326, 192.374987)"><g><path d="M 3.484375 -2.921875 L 3.578125 0 L 1.3125 0 L 1.40625 -2.703125 L 1.3125 -9.09375 L 3.625 -9.09375 Z M 3.484375 -2.921875 "/></g></g></g><g fill="#ffffff" fill-opacity="1"><g transform="translate(235.026313, 192.374987)"><g><path d="M 7.609375 -8.90625 L 7.484375 -7.1875 L 5.65625 -7.3125 L 5.125 -7.3125 L 5.078125 -2.921875 L 5.140625 0 L 2.890625 0 L 2.984375 -2.703125 L 2.953125 -7.3125 L 2.4375 -7.3125 L 0.5625 -7.1875 L 0.40625 -7.359375 L 0.546875 -9.09375 L 7.484375 -9.09375 Z M 7.609375 -8.90625 "/></g></g></g><g fill="#ffffff" fill-opacity="1"><g transform="translate(243.054286, 192.374987)"><g><path d="M 9.078125 0 L 6.78125 0 L 6.53125 -1.3125 L 6.375 -1.84375 L 4.53125 -1.859375 L 2.921875 -1.8125 L 2.796875 -1.4375 L 2.515625 0 L 0.3125 0 L 3.484375 -9.09375 L 6.171875 -9.09375 Z M 5.890625 -3.546875 L 4.859375 -7.015625 L 4.71875 -7.015625 L 3.515625 -3.546875 L 4.6875 -3.53125 Z M 5.890625 -3.546875 "/></g></g></g><g fill="#ffffff" fill-opacity="1"><g transform="translate(252.576262, 192.374987)"><g><path d="M 6.734375 -1.6875 L 6.59375 0 L 1.234375 0 L 1.34375 -2.703125 L 1.234375 -9.09375 L 3.546875 -9.09375 L 3.421875 -2.921875 L 3.453125 -1.859375 L 6.609375 -1.859375 Z M 6.734375 -1.6875 "/></g></g></g><g fill="#ffffff" fill-opacity="1"><g transform="translate(259.560236, 192.374987)"><g/></g></g><g fill="#ffffff" fill-opacity="1"><g transform="translate(262.27823, 192.374987)"><g><path d="M 7.484375 -4.609375 C 8.421875 -3.117188 9.351562 -1.773438 10.28125 -0.578125 L 10.234375 -0.3125 C 9.460938 -0.03125 8.664062 0.132812 7.84375 0.1875 L 7.59375 -0.015625 C 6.726562 -1.503906 6.023438 -2.800781 5.484375 -3.90625 L 3.75 -3.90625 L 3.75 -3.671875 L 3.859375 0 L 1.40625 0 L 1.53125 -3.453125 L 1.40625 -11.59375 L 5.84375 -11.609375 C 7.0625 -11.609375 8 -11.3125 8.65625 -10.71875 C 9.3125 -10.125 9.640625 -9.273438 9.640625 -8.171875 C 9.640625 -7.429688 9.453125 -6.75 9.078125 -6.125 C 8.703125 -5.507812 8.171875 -5.003906 7.484375 -4.609375 Z M 3.78125 -5.796875 L 5.5625 -5.71875 C 6.582031 -6.070312 7.09375 -6.8125 7.09375 -7.9375 C 7.09375 -8.550781 6.925781 -9.007812 6.59375 -9.3125 C 6.269531 -9.625 5.765625 -9.789062 5.078125 -9.8125 L 3.859375 -9.734375 Z M 3.78125 -5.796875 "/></g></g></g><g fill="#ffffff" fill-opacity="1"><g transform="translate(272.898198, 192.374987)"><g><path d="M 7.5625 -1.84375 L 7.703125 -1.6875 L 7.546875 0 L 1.3125 0 L 1.40625 -2.703125 L 1.3125 -9.09375 L 7.625 -9.09375 L 7.765625 -8.90625 L 7.609375 -7.234375 L 5.28125 -7.328125 L 3.578125 -7.328125 L 3.546875 -5.484375 L 5.171875 -5.46875 L 6.734375 -5.53125 L 6.859375 -5.359375 L 6.71875 -3.65625 L 5 -3.703125 L 3.515625 -3.703125 L 3.484375 -2.921875 L 3.53125 -1.765625 L 5.109375 -1.765625 Z M 7.5625 -1.84375 "/></g></g></g><g fill="#ffffff" fill-opacity="1"><g transform="translate(281.106175, 192.374987)"><g><path d="M 4.53125 -9.21875 C 5.394531 -9.21875 6.222656 -9.066406 7.015625 -8.765625 L 6.671875 -6.75 L 6.359375 -6.65625 C 5.972656 -6.945312 5.597656 -7.164062 5.234375 -7.3125 C 4.878906 -7.457031 4.550781 -7.53125 4.25 -7.53125 C 3.914062 -7.53125 3.648438 -7.445312 3.453125 -7.28125 C 3.265625 -7.113281 3.171875 -6.921875 3.171875 -6.703125 C 3.171875 -6.441406 3.289062 -6.226562 3.53125 -6.0625 C 3.769531 -5.90625 4.144531 -5.722656 4.65625 -5.515625 C 5.195312 -5.285156 5.640625 -5.070312 5.984375 -4.875 C 6.328125 -4.6875 6.617188 -4.421875 6.859375 -4.078125 C 7.109375 -3.734375 7.234375 -3.304688 7.234375 -2.796875 C 7.234375 -2.273438 7.097656 -1.789062 6.828125 -1.34375 C 6.554688 -0.894531 6.144531 -0.53125 5.59375 -0.25 C 5.050781 0.0195312 4.378906 0.15625 3.578125 0.15625 C 3.148438 0.15625 2.679688 0.109375 2.171875 0.015625 C 1.660156 -0.0664062 1.164062 -0.203125 0.6875 -0.390625 L 0.984375 -2.515625 L 1.21875 -2.6875 C 1.613281 -2.320312 2.054688 -2.03125 2.546875 -1.8125 C 3.046875 -1.601562 3.488281 -1.5 3.875 -1.5 C 4.207031 -1.5 4.476562 -1.582031 4.6875 -1.75 C 4.894531 -1.914062 5 -2.125 5 -2.375 C 5 -2.632812 4.875 -2.847656 4.625 -3.015625 C 4.382812 -3.179688 4.003906 -3.363281 3.484375 -3.5625 C 2.953125 -3.789062 2.515625 -4.003906 2.171875 -4.203125 C 1.828125 -4.398438 1.53125 -4.671875 1.28125 -5.015625 C 1.039062 -5.367188 0.921875 -5.800781 0.921875 -6.3125 C 0.921875 -6.851562 1.066406 -7.34375 1.359375 -7.78125 C 1.648438 -8.226562 2.066406 -8.578125 2.609375 -8.828125 C 3.160156 -9.085938 3.800781 -9.21875 4.53125 -9.21875 Z M 4.53125 -9.21875 "/></g></g></g><g fill="#ffffff" fill-opacity="1"><g transform="translate(289.116146, 192.374987)"><g><path d="M 5.296875 -9.21875 C 6.191406 -9.21875 7.03125 -9.0625 7.8125 -8.75 L 7.421875 -6.84375 L 7.234375 -6.75 C 6.960938 -6.9375 6.640625 -7.082031 6.265625 -7.1875 C 5.890625 -7.300781 5.515625 -7.359375 5.140625 -7.359375 C 4.410156 -7.359375 3.863281 -7.144531 3.5 -6.71875 C 3.144531 -6.289062 2.96875 -5.625 2.96875 -4.71875 C 2.96875 -2.738281 3.726562 -1.75 5.25 -1.75 C 5.613281 -1.75 5.988281 -1.796875 6.375 -1.890625 C 6.757812 -1.984375 7.109375 -2.113281 7.421875 -2.28125 L 7.609375 -2.171875 L 7.4375 -0.28125 C 6.726562 0 5.953125 0.140625 5.109375 0.140625 C 3.628906 0.140625 2.503906 -0.253906 1.734375 -1.046875 C 0.972656 -1.835938 0.59375 -2.976562 0.59375 -4.46875 C 0.59375 -5.976562 1 -7.144531 1.8125 -7.96875 C 2.632812 -8.800781 3.796875 -9.21875 5.296875 -9.21875 Z M 5.296875 -9.21875 "/></g></g></g><g fill="#ffffff" fill-opacity="1"><g transform="translate(297.28812, 192.374987)"><g><path d="M 8.890625 -4.46875 L 8.875 -3.078125 C 8.882812 -2.046875 8.546875 -1.25 7.859375 -0.6875 C 7.171875 -0.132812 6.179688 0.140625 4.890625 0.140625 C 3.648438 0.140625 2.695312 -0.132812 2.03125 -0.6875 C 1.375 -1.25 1.0625 -2.046875 1.09375 -3.078125 L 1.109375 -4.5 L 1.0625 -9.09375 L 3.328125 -9.09375 L 3.21875 -3.40625 C 3.207031 -2.8125 3.347656 -2.375 3.640625 -2.09375 C 3.941406 -1.820312 4.390625 -1.6875 4.984375 -1.6875 C 5.597656 -1.6875 6.050781 -1.828125 6.34375 -2.109375 C 6.632812 -2.390625 6.773438 -2.820312 6.765625 -3.40625 L 6.671875 -9.09375 L 8.96875 -9.09375 Z M 8.890625 -4.46875 "/></g></g></g><g fill="#ffffff" fill-opacity="1"><g transform="translate(307.314093, 192.374987)"><g><path d="M 7.5625 -1.84375 L 7.703125 -1.6875 L 7.546875 0 L 1.3125 0 L 1.40625 -2.703125 L 1.3125 -9.09375 L 7.625 -9.09375 L 7.765625 -8.90625 L 7.609375 -7.234375 L 5.28125 -7.328125 L 3.578125 -7.328125 L 3.546875 -5.484375 L 5.171875 -5.46875 L 6.734375 -5.53125 L 6.859375 -5.359375 L 6.71875 -3.65625 L 5 -3.703125 L 3.515625 -3.703125 L 3.484375 -2.921875 L 3.53125 -1.765625 L 5.109375 -1.765625 Z M 7.5625 -1.84375 "/></g></g></g></svg>