<?xml version="1.0" encoding="UTF-8" standalone="no" ?>
<!DOCTYPE svg PUBLIC "-//W3C//DTD SVG 1.1//EN" "http://www.w3.org/Graphics/SVG/1.1/DTD/svg11.dtd">
<svg xmlns="http://www.w3.org/2000/svg" xmlns:xlink="http://www.w3.org/1999/xlink" version="1.1" width="1080" height="400" viewBox="0 0 1080 400" xml:space="preserve">
<desc>Created with Fabric.js 5.2.4</desc>
<defs>
</defs>
<rect x="0" y="0" width="100%" height="100%" fill="transparent"></rect>
<g transform="matrix(1 0 0 1 540 200)" id="fafb3c3c-8255-4b1d-a05f-d64627ffe478"  >
<rect style="stroke: none; stroke-width: 1; stroke-dasharray: none; stroke-linecap: butt; stroke-dashoffset: 0; stroke-linejoin: miter; stroke-miterlimit: 4; fill: rgb(255,255,255); fill-rule: nonzero; opacity: 1; visibility: hidden;" vector-effect="non-scaling-stroke"  x="-540" y="-200" rx="0" ry="0" width="1080" height="400" />
</g>
<g transform="matrix(Infinity NaN NaN Infinity 0 0)" id="6116f8c8-7a40-4b09-b0f4-9106c4cbba27"  >
</g>
<g transform="matrix(2.47 0 0 2.47 540 200)"  >
<g style="" vector-effect="non-scaling-stroke"   >
		<g transform="matrix(1.33 0 0 1.33 -130.11 0)"  >
<path style="stroke: none; stroke-width: 1; stroke-dasharray: none; stroke-linecap: butt; stroke-dashoffset: 0; stroke-linejoin: miter; stroke-miterlimit: 4; fill: rgb(255,255,255); fill-rule: nonzero; opacity: 1;" vector-effect="non-scaling-stroke"  transform=" translate(-63.06, -68.2)" d="M 64.265625 120.515625 C 43.503906 120.515625 27.601562 114.601562 16.5625 102.78125 C 5.519531 90.96875 0 73.90625 0 51.59375 L 0 15.875 L 126.125 15.875 L 126.125 55.46875 C 126.125 76.0625 120.6875 92.050781 109.8125 103.4375 C 98.945312 114.820312 83.765625 120.515625 64.265625 120.515625 Z M 63.578125 92.734375 C 90.660156 92.734375 104.203125 80.769531 104.203125 56.84375 L 104.203125 42.609375 L 22.078125 42.609375 L 22.078125 54.09375 C 22.078125 79.851562 35.910156 92.734375 63.578125 92.734375 Z M 63.578125 92.734375" stroke-linecap="round" />
</g>
		<g transform="matrix(1.33 0 0 1.33 -116.33 -11.12)"  >
<path style="stroke: none; stroke-width: 1; stroke-dasharray: none; stroke-linecap: butt; stroke-dashoffset: 0; stroke-linejoin: miter; stroke-miterlimit: 4; fill: rgb(255,255,255); fill-rule: nonzero; opacity: 1;" vector-effect="non-scaling-stroke"  transform=" translate(-52.05, -54.69)" d="M 57.890625 35.171875 L 57.890625 42.296875 C 57.890625 49.273438 59.050781 54.425781 61.375 57.75 C 63.707031 61.070312 67.363281 62.734375 72.34375 62.734375 C 77.28125 62.734375 80.789062 61.035156 82.875 57.640625 C 84.96875 54.242188 86.015625 48.988281 86.015625 41.875 L 86.015625 35.171875 Z M 39.953125 35.171875 L 0 35.171875 L 0 13.109375 L 104.109375 13.109375 L 104.109375 43.4375 C 104.109375 57.582031 101.53125 68.046875 96.375 74.828125 C 91.226562 81.617188 83.410156 85.015625 72.921875 85.015625 C 66.796875 85.015625 61.347656 83.328125 56.578125 79.953125 C 51.804688 76.585938 48.066406 71.820312 45.359375 65.65625 C 21.953125 81.320312 6.832031 91.523438 0 96.265625 L 0 71.78125 L 39.953125 46.921875 Z M 39.953125 35.171875" stroke-linecap="round" />
</g>
		<g transform="matrix(1.33 0 0 1.33 -21.82 -6.33)"  >
<path style="stroke: none; stroke-width: 1; stroke-dasharray: none; stroke-linecap: butt; stroke-dashoffset: 0; stroke-linejoin: miter; stroke-miterlimit: 4; fill: rgb(255,255,255); fill-rule: nonzero; opacity: 1;" vector-effect="non-scaling-stroke"  transform=" translate(-10.71, 9.73)" d="M 10.234375 -19.6875 C 13.066406 -19.6875 15.242188 -18.894531 16.765625 -17.3125 C 18.285156 -15.726562 19.046875 -13.460938 19.046875 -10.515625 C 19.046875 -7.046875 18.191406 -4.390625 16.484375 -2.546875 C 14.785156 -0.703125 12.359375 0.21875 9.203125 0.21875 C 8.253906 0.21875 7.113281 0.195312 5.78125 0.15625 C 4.457031 0.113281 3.320312 0.0625 2.375 0 L 2.578125 -5.828125 L 2.375 -19.5625 Z M 9.9375 -2.984375 C 13.15625 -2.984375 14.765625 -5.175781 14.765625 -9.5625 C 14.765625 -11.957031 14.375 -13.695312 13.59375 -14.78125 C 12.8125 -15.863281 11.59375 -16.40625 9.9375 -16.40625 C 8.863281 -16.40625 7.71875 -16.351562 6.5 -16.25 L 6.3125 -6.203125 L 6.40625 -3.1875 C 7.820312 -3.050781 9 -2.984375 9.9375 -2.984375 Z M 9.9375 -2.984375" stroke-linecap="round" />
</g>
		<g transform="matrix(1.33 0 0 1.33 -4.02 -3.58)"  >
<path style="stroke: none; stroke-width: 1; stroke-dasharray: none; stroke-linecap: butt; stroke-dashoffset: 0; stroke-linejoin: miter; stroke-miterlimit: 4; fill: rgb(255,255,255); fill-rule: nonzero; opacity: 1;" vector-effect="non-scaling-stroke"  transform=" translate(-4.16, 7.67)" d="M 5.890625 -4.921875 L 6.046875 0 L 2.21875 0 L 2.375 -4.5625 L 2.21875 -15.34375 L 6.109375 -15.34375 Z M 5.890625 -4.921875" stroke-linecap="round" />
</g>
		<g transform="matrix(1.33 0 0 1.33 12.01 -3.55)"  >
<path style="stroke: none; stroke-width: 1; stroke-dasharray: none; stroke-linecap: butt; stroke-dashoffset: 0; stroke-linejoin: miter; stroke-miterlimit: 4; fill: rgb(255,255,255); fill-rule: nonzero; opacity: 1;" vector-effect="non-scaling-stroke"  transform=" translate(-7.71, 7.65)" d="M 9.625 -15.546875 C 11.332031 -15.546875 12.929688 -15.265625 14.421875 -14.703125 L 13.421875 -11.234375 L 13.09375 -11.234375 C 12.300781 -11.679688 11.59375 -11.992188 10.96875 -12.171875 C 10.351562 -12.359375 9.675781 -12.453125 8.9375 -12.453125 C 7.53125 -12.453125 6.519531 -12.082031 5.90625 -11.34375 C 5.289062 -10.601562 4.984375 -9.320312 4.984375 -7.5 C 4.984375 -6.289062 5.113281 -5.335938 5.375 -4.640625 C 5.632812 -3.953125 6.050781 -3.460938 6.625 -3.171875 C 7.207031 -2.878906 7.992188 -2.734375 8.984375 -2.734375 C 9.597656 -2.734375 10.238281 -2.851562 10.90625 -3.09375 L 10.90625 -4.0625 L 10.875 -6.5 L 14.375 -6.75 L 14.3125 -4.703125 L 14.3125 -0.765625 C 12.320312 -0.0859375 10.457031 0.25 8.71875 0.25 C 6.164062 0.25 4.238281 -0.398438 2.9375 -1.703125 C 1.644531 -3.015625 1 -4.890625 1 -7.328125 C 1 -9.992188 1.75 -12.03125 3.25 -13.4375 C 4.75 -14.84375 6.875 -15.546875 9.625 -15.546875 Z M 9.625 -15.546875" stroke-linecap="round" />
</g>
		<g transform="matrix(1.33 0 0 1.33 28.34 -3.58)"  >
<path style="stroke: none; stroke-width: 1; stroke-dasharray: none; stroke-linecap: butt; stroke-dashoffset: 0; stroke-linejoin: miter; stroke-miterlimit: 4; fill: rgb(255,255,255); fill-rule: nonzero; opacity: 1;" vector-effect="non-scaling-stroke"  transform=" translate(-4.16, 7.67)" d="M 5.890625 -4.921875 L 6.046875 0 L 2.21875 0 L 2.375 -4.5625 L 2.21875 -15.34375 L 6.109375 -15.34375 Z M 5.890625 -4.921875" stroke-linecap="round" />
</g>
		<g transform="matrix(1.33 0 0 1.33 43.12 -3.58)"  >
<path style="stroke: none; stroke-width: 1; stroke-dasharray: none; stroke-linecap: butt; stroke-dashoffset: 0; stroke-linejoin: miter; stroke-miterlimit: 4; fill: rgb(255,255,255); fill-rule: nonzero; opacity: 1;" vector-effect="non-scaling-stroke"  transform=" translate(-6.77, 7.67)" d="M 12.84375 -15.03125 L 12.640625 -12.125 L 9.53125 -12.328125 L 8.65625 -12.328125 L 8.5625 -4.921875 L 8.6875 0 L 4.890625 0 L 5.046875 -4.5625 L 4.984375 -12.328125 L 4.09375 -12.328125 L 0.9375 -12.125 L 0.703125 -12.421875 L 0.90625 -15.34375 L 12.640625 -15.34375 Z M 12.84375 -15.03125" stroke-linecap="round" />
</g>
		<g transform="matrix(1.33 0 0 1.33 62.7 -3.58)"  >
<path style="stroke: none; stroke-width: 1; stroke-dasharray: none; stroke-linecap: butt; stroke-dashoffset: 0; stroke-linejoin: miter; stroke-miterlimit: 4; fill: rgb(255,255,255); fill-rule: nonzero; opacity: 1;" vector-effect="non-scaling-stroke"  transform=" translate(-7.91, 7.67)" d="M 15.3125 0 L 11.453125 0 L 11.03125 -2.21875 L 10.75 -3.09375 L 7.65625 -3.125 L 4.921875 -3.0625 L 4.703125 -2.4375 L 4.25 0 L 0.515625 0 L 5.890625 -15.34375 L 10.421875 -15.34375 Z M 9.9375 -5.984375 L 8.203125 -11.84375 L 7.953125 -11.84375 L 5.921875 -5.984375 L 7.890625 -5.953125 Z M 9.9375 -5.984375" stroke-linecap="round" />
</g>
		<g transform="matrix(1.33 0 0 1.33 82.55 -3.58)"  >
<path style="stroke: none; stroke-width: 1; stroke-dasharray: none; stroke-linecap: butt; stroke-dashoffset: 0; stroke-linejoin: miter; stroke-miterlimit: 4; fill: rgb(255,255,255); fill-rule: nonzero; opacity: 1;" vector-effect="non-scaling-stroke"  transform=" translate(-6.73, 7.67)" d="M 11.359375 -2.859375 L 11.125 0 L 2.09375 0 L 2.28125 -4.5625 L 2.09375 -15.34375 L 5.984375 -15.34375 L 5.765625 -4.921875 L 5.828125 -3.125 L 11.140625 -3.125 Z M 11.359375 -2.859375" stroke-linecap="round" />
</g>
		<g transform="matrix(1.33 0 0 1.33 108.55 -6.22)"  >
<path style="stroke: none; stroke-width: 1; stroke-dasharray: none; stroke-linecap: butt; stroke-dashoffset: 0; stroke-linejoin: miter; stroke-miterlimit: 4; fill: rgb(255,255,255); fill-rule: nonzero; opacity: 1;" vector-effect="non-scaling-stroke"  transform=" translate(-9.86, 9.65)" d="M 12.640625 -7.78125 C 14.210938 -5.269531 15.78125 -3 17.34375 -0.96875 L 17.28125 -0.515625 C 15.96875 -0.046875 14.625 0.222656 13.25 0.296875 L 12.8125 -0.03125 C 11.351562 -2.539062 10.171875 -4.726562 9.265625 -6.59375 L 6.3125 -6.59375 L 6.3125 -6.203125 L 6.5 0 L 2.375 0 L 2.578125 -5.828125 L 2.375 -19.5625 L 9.875 -19.59375 C 11.914062 -19.59375 13.492188 -19.085938 14.609375 -18.078125 C 15.722656 -17.078125 16.28125 -15.648438 16.28125 -13.796875 C 16.28125 -12.535156 15.960938 -11.382812 15.328125 -10.34375 C 14.691406 -9.300781 13.796875 -8.445312 12.640625 -7.78125 Z M 6.375 -9.78125 L 9.390625 -9.65625 C 11.109375 -10.25 11.96875 -11.492188 11.96875 -13.390625 C 11.96875 -14.421875 11.6875 -15.195312 11.125 -15.71875 C 10.570312 -16.238281 9.71875 -16.515625 8.5625 -16.546875 L 6.5 -16.4375 Z M 6.375 -9.78125" stroke-linecap="round" />
</g>
		<g transform="matrix(1.33 0 0 1.33 129.51 -3.58)"  >
<path style="stroke: none; stroke-width: 1; stroke-dasharray: none; stroke-linecap: butt; stroke-dashoffset: 0; stroke-linejoin: miter; stroke-miterlimit: 4; fill: rgb(255,255,255); fill-rule: nonzero; opacity: 1;" vector-effect="non-scaling-stroke"  transform=" translate(-7.66, 7.67)" d="M 12.75 -3.09375 L 13 -2.859375 L 12.734375 0 L 2.21875 0 L 2.375 -4.5625 L 2.21875 -15.34375 L 12.875 -15.34375 L 13.09375 -15.03125 L 12.84375 -12.203125 L 8.90625 -12.359375 L 6.046875 -12.359375 L 5.984375 -9.265625 L 8.71875 -9.234375 L 11.359375 -9.328125 L 11.578125 -9.046875 L 11.328125 -6.171875 L 8.4375 -6.25 L 5.921875 -6.25 L 5.890625 -4.921875 L 5.953125 -2.984375 L 8.625 -2.984375 Z M 12.75 -3.09375" stroke-linecap="round" />
</g>
		<g transform="matrix(1.33 0 0 1.33 146.68 -3.54)"  >
<path style="stroke: none; stroke-width: 1; stroke-dasharray: none; stroke-linecap: butt; stroke-dashoffset: 0; stroke-linejoin: miter; stroke-miterlimit: 4; fill: rgb(255,255,255); fill-rule: nonzero; opacity: 1;" vector-effect="non-scaling-stroke"  transform=" translate(-6.68, 7.64)" d="M 7.65625 -15.546875 C 9.113281 -15.546875 10.507812 -15.296875 11.84375 -14.796875 L 11.265625 -11.390625 L 10.71875 -11.234375 C 10.070312 -11.722656 9.441406 -12.085938 8.828125 -12.328125 C 8.222656 -12.578125 7.671875 -12.703125 7.171875 -12.703125 C 6.597656 -12.703125 6.148438 -12.5625 5.828125 -12.28125 C 5.503906 -12.007812 5.34375 -11.679688 5.34375 -11.296875 C 5.34375 -10.867188 5.546875 -10.519531 5.953125 -10.25 C 6.359375 -9.976562 6.992188 -9.660156 7.859375 -9.296875 C 8.773438 -8.910156 9.519531 -8.554688 10.09375 -8.234375 C 10.675781 -7.910156 11.171875 -7.457031 11.578125 -6.875 C 11.992188 -6.300781 12.203125 -5.578125 12.203125 -4.703125 C 12.203125 -3.835938 11.972656 -3.023438 11.515625 -2.265625 C 11.066406 -1.503906 10.378906 -0.890625 9.453125 -0.421875 C 8.535156 0.0351562 7.398438 0.265625 6.046875 0.265625 C 5.316406 0.265625 4.519531 0.1875 3.65625 0.03125 C 2.800781 -0.113281 1.96875 -0.347656 1.15625 -0.671875 L 1.671875 -4.25 L 2.0625 -4.53125 C 2.726562 -3.914062 3.476562 -3.425781 4.3125 -3.0625 C 5.144531 -2.695312 5.882812 -2.515625 6.53125 -2.515625 C 7.09375 -2.515625 7.550781 -2.65625 7.90625 -2.9375 C 8.257812 -3.226562 8.4375 -3.585938 8.4375 -4.015625 C 8.4375 -4.453125 8.226562 -4.804688 7.8125 -5.078125 C 7.40625 -5.359375 6.765625 -5.671875 5.890625 -6.015625 C 4.984375 -6.398438 4.238281 -6.757812 3.65625 -7.09375 C 3.082031 -7.425781 2.585938 -7.882812 2.171875 -8.46875 C 1.753906 -9.0625 1.546875 -9.789062 1.546875 -10.65625 C 1.546875 -11.570312 1.789062 -12.40625 2.28125 -13.15625 C 2.78125 -13.90625 3.488281 -14.488281 4.40625 -14.90625 C 5.332031 -15.332031 6.414062 -15.546875 7.65625 -15.546875 Z M 7.65625 -15.546875" stroke-linecap="round" />
</g>
		<g transform="matrix(1.33 0 0 1.33 165.25 -3.55)"  >
<path style="stroke: none; stroke-width: 1; stroke-dasharray: none; stroke-linecap: butt; stroke-dashoffset: 0; stroke-linejoin: miter; stroke-miterlimit: 4; fill: rgb(255,255,255); fill-rule: nonzero; opacity: 1;" vector-effect="non-scaling-stroke"  transform=" translate(-7.09, 7.65)" d="M 8.9375 -15.546875 C 10.445312 -15.546875 11.863281 -15.285156 13.1875 -14.765625 L 12.515625 -11.546875 L 12.203125 -11.390625 C 11.742188 -11.710938 11.195312 -11.960938 10.5625 -12.140625 C 9.9375 -12.328125 9.3125 -12.421875 8.6875 -12.421875 C 7.445312 -12.421875 6.523438 -12.0625 5.921875 -11.34375 C 5.316406 -10.625 5.015625 -9.492188 5.015625 -7.953125 C 5.015625 -4.617188 6.300781 -2.953125 8.875 -2.953125 C 9.476562 -2.953125 10.101562 -3.03125 10.75 -3.1875 C 11.394531 -3.351562 11.984375 -3.578125 12.515625 -3.859375 L 12.84375 -3.671875 L 12.546875 -0.484375 C 11.347656 0.00390625 10.039062 0.25 8.625 0.25 C 6.132812 0.25 4.238281 -0.414062 2.9375 -1.75 C 1.644531 -3.09375 1 -5.019531 1 -7.53125 C 1 -10.082031 1.6875 -12.054688 3.0625 -13.453125 C 4.445312 -14.847656 6.40625 -15.546875 8.9375 -15.546875 Z M 8.9375 -15.546875" stroke-linecap="round" />
</g>
		<g transform="matrix(1.33 0 0 1.33 185.46 -3.42)"  >
<path style="stroke: none; stroke-width: 1; stroke-dasharray: none; stroke-linecap: butt; stroke-dashoffset: 0; stroke-linejoin: miter; stroke-miterlimit: 4; fill: rgb(255,255,255); fill-rule: nonzero; opacity: 1;" vector-effect="non-scaling-stroke"  transform=" translate(-8.46, 7.55)" d="M 15 -7.53125 L 14.96875 -5.1875 C 14.988281 -3.445312 14.414062 -2.101562 13.25 -1.15625 C 12.09375 -0.21875 10.429688 0.25 8.265625 0.25 C 6.160156 0.25 4.550781 -0.21875 3.4375 -1.15625 C 2.320312 -2.101562 1.796875 -3.445312 1.859375 -5.1875 L 1.890625 -7.59375 L 1.796875 -15.34375 L 5.625 -15.34375 L 5.4375 -5.734375 C 5.414062 -4.742188 5.648438 -4.015625 6.140625 -3.546875 C 6.640625 -3.085938 7.394531 -2.859375 8.40625 -2.859375 C 9.445312 -2.859375 10.210938 -3.09375 10.703125 -3.5625 C 11.203125 -4.039062 11.441406 -4.765625 11.421875 -5.734375 L 11.265625 -15.34375 L 15.125 -15.34375 Z M 15 -7.53125" stroke-linecap="round" />
</g>
		<g transform="matrix(1.33 0 0 1.33 206.94 -3.58)"  >
<path style="stroke: none; stroke-width: 1; stroke-dasharray: none; stroke-linecap: butt; stroke-dashoffset: 0; stroke-linejoin: miter; stroke-miterlimit: 4; fill: rgb(255,255,255); fill-rule: nonzero; opacity: 1;" vector-effect="non-scaling-stroke"  transform=" translate(-7.66, 7.67)" d="M 12.75 -3.09375 L 13 -2.859375 L 12.734375 0 L 2.21875 0 L 2.375 -4.5625 L 2.21875 -15.34375 L 12.875 -15.34375 L 13.09375 -15.03125 L 12.84375 -12.203125 L 8.90625 -12.359375 L 6.046875 -12.359375 L 5.984375 -9.265625 L 8.71875 -9.234375 L 11.359375 -9.328125 L 11.578125 -9.046875 L 11.328125 -6.171875 L 8.4375 -6.25 L 5.921875 -6.25 L 5.890625 -4.921875 L 5.953125 -2.984375 L 8.625 -2.984375 Z M 12.75 -3.09375" stroke-linecap="round" />
</g>
</g>
</g>
</svg>