<svg xmlns="http://www.w3.org/2000/svg" xmlns:xlink="http://www.w3.org/1999/xlink" width="500" zoomAndPan="magnify" viewBox="0 0 375 374.999991" height="500" preserveAspectRatio="xMidYMid meet" version="1.0"><defs><g/></defs><g fill="#101956" fill-opacity="1"><g transform="translate(49.117027, 122.569211)"><g><path d="M 64.265625 120.515625 C 43.503906 120.515625 27.601562 114.601562 16.5625 102.78125 C 5.519531 90.96875 0 73.90625 0 51.59375 L 0 15.875 L 126.125 15.875 L 126.125 55.46875 C 126.125 76.0625 120.6875 92.050781 109.8125 103.4375 C 98.945312 114.820312 83.765625 120.515625 64.265625 120.515625 Z M 63.578125 92.734375 C 90.660156 92.734375 104.203125 80.769531 104.203125 56.84375 L 104.203125 42.609375 L 22.078125 42.609375 L 22.078125 54.09375 C 22.078125 79.851562 35.910156 92.734375 63.578125 92.734375 Z M 63.578125 92.734375 "/></g></g></g><g fill="#101956" fill-opacity="1"><g transform="translate(70.460893, 127.735276)"><g><path d="M 57.890625 35.171875 L 57.890625 42.296875 C 57.890625 49.273438 59.050781 54.425781 61.375 57.75 C 63.707031 61.070312 67.363281 62.734375 72.34375 62.734375 C 77.28125 62.734375 80.789062 61.035156 82.875 57.640625 C 84.96875 54.242188 86.015625 48.988281 86.015625 41.875 L 86.015625 35.171875 Z M 39.953125 35.171875 L 0 35.171875 L 0 13.109375 L 104.109375 13.109375 L 104.109375 43.4375 C 104.109375 57.582031 101.53125 68.046875 96.375 74.828125 C 91.226562 81.617188 83.410156 85.015625 72.921875 85.015625 C 66.796875 85.015625 61.347656 83.328125 56.578125 79.953125 C 51.804688 76.585938 48.066406 71.820312 45.359375 65.65625 C 21.953125 81.320312 6.832031 91.523438 0 96.265625 L 0 71.78125 L 39.953125 46.921875 Z M 39.953125 35.171875 "/></g></g></g><g fill="#101956" fill-opacity="1"><g transform="translate(192.362205, 193.833628)"><g><path d="M 7.875 -15.15625 C 10.0625 -15.15625 11.738281 -14.546875 12.90625 -13.328125 C 14.082031 -12.117188 14.671875 -10.375 14.671875 -8.09375 C 14.671875 -5.425781 14.015625 -3.382812 12.703125 -1.96875 C 11.390625 -0.550781 9.519531 0.15625 7.09375 0.15625 C 6.351562 0.15625 5.472656 0.140625 4.453125 0.109375 C 3.429688 0.078125 2.554688 0.0390625 1.828125 0 L 1.984375 -4.484375 L 1.828125 -15.0625 Z M 7.65625 -2.296875 C 10.132812 -2.296875 11.375 -3.988281 11.375 -7.375 C 11.375 -9.207031 11.070312 -10.539062 10.46875 -11.375 C 9.863281 -12.207031 8.925781 -12.625 7.65625 -12.625 C 6.820312 -12.625 5.9375 -12.585938 5 -12.515625 L 4.859375 -4.765625 L 4.9375 -2.453125 C 6.03125 -2.347656 6.9375 -2.296875 7.65625 -2.296875 Z M 7.65625 -2.296875 "/></g></g></g><g fill="#101956" fill-opacity="1"><g transform="translate(207.679825, 193.833628)"><g><path d="M 4.53125 -3.796875 L 4.65625 0 L 1.703125 0 L 1.828125 -3.515625 L 1.703125 -11.8125 L 4.703125 -11.8125 Z M 4.53125 -3.796875 "/></g></g></g><g fill="#101956" fill-opacity="1"><g transform="translate(214.204433, 193.833628)"><g><path d="M 7.421875 -11.96875 C 8.722656 -11.96875 9.953125 -11.753906 11.109375 -11.328125 L 10.34375 -8.65625 L 10.078125 -8.65625 C 9.472656 -9 8.929688 -9.238281 8.453125 -9.375 C 7.984375 -9.519531 7.457031 -9.59375 6.875 -9.59375 C 5.800781 -9.59375 5.023438 -9.304688 4.546875 -8.734375 C 4.078125 -8.160156 3.84375 -7.175781 3.84375 -5.78125 C 3.84375 -4.84375 3.941406 -4.109375 4.140625 -3.578125 C 4.335938 -3.046875 4.660156 -2.664062 5.109375 -2.4375 C 5.554688 -2.21875 6.160156 -2.109375 6.921875 -2.109375 C 7.390625 -2.109375 7.878906 -2.203125 8.390625 -2.390625 L 8.390625 -3.140625 L 8.375 -5 L 11.0625 -5.1875 L 11.015625 -3.625 L 11.015625 -0.578125 C 9.484375 -0.0664062 8.050781 0.1875 6.71875 0.1875 C 4.75 0.1875 3.265625 -0.3125 2.265625 -1.3125 C 1.265625 -2.320312 0.765625 -3.765625 0.765625 -5.640625 C 0.765625 -7.691406 1.34375 -9.257812 2.5 -10.34375 C 3.65625 -11.425781 5.296875 -11.96875 7.421875 -11.96875 Z M 7.421875 -11.96875 "/></g></g></g><g fill="#101956" fill-opacity="1"><g transform="translate(226.364987, 193.833628)"><g><path d="M 4.53125 -3.796875 L 4.65625 0 L 1.703125 0 L 1.828125 -3.515625 L 1.703125 -11.8125 L 4.703125 -11.8125 Z M 4.53125 -3.796875 "/></g></g></g><g fill="#101956" fill-opacity="1"><g transform="translate(232.889595, 193.833628)"><g><path d="M 9.890625 -11.578125 L 9.734375 -9.328125 L 7.34375 -9.5 L 6.671875 -9.5 L 6.59375 -3.796875 L 6.6875 0 L 3.765625 0 L 3.890625 -3.515625 L 3.84375 -9.5 L 3.15625 -9.5 L 0.71875 -9.328125 L 0.53125 -9.5625 L 0.703125 -11.8125 L 9.734375 -11.8125 Z M 9.890625 -11.578125 "/></g></g></g><g fill="#101956" fill-opacity="1"><g transform="translate(243.319603, 193.833628)"><g><path d="M 11.78125 0 L 8.8125 0 L 8.484375 -1.703125 L 8.28125 -2.390625 L 5.890625 -2.40625 L 3.796875 -2.359375 L 3.625 -1.875 L 3.28125 0 L 0.390625 0 L 4.53125 -11.8125 L 8.015625 -11.8125 Z M 7.65625 -4.609375 L 6.3125 -9.125 L 6.125 -9.125 L 4.5625 -4.609375 L 6.078125 -4.578125 Z M 7.65625 -4.609375 "/></g></g></g><g fill="#101956" fill-opacity="1"><g transform="translate(255.690632, 193.833628)"><g><path d="M 8.75 -2.203125 L 8.5625 0 L 1.609375 0 L 1.75 -3.515625 L 1.609375 -11.8125 L 4.609375 -11.8125 L 4.4375 -3.796875 L 4.484375 -2.40625 L 8.578125 -2.40625 Z M 8.75 -2.203125 "/></g></g></g><g fill="#101956" fill-opacity="1"><g transform="translate(264.764268, 193.833628)"><g/></g></g><g fill="#101956" fill-opacity="1"><g transform="translate(268.295509, 193.833628)"><g><path d="M 9.734375 -5.984375 C 10.953125 -4.054688 12.160156 -2.3125 13.359375 -0.75 L 13.3125 -0.390625 C 12.289062 -0.0351562 11.253906 0.171875 10.203125 0.234375 L 9.875 -0.015625 C 8.75 -1.953125 7.835938 -3.640625 7.140625 -5.078125 L 4.859375 -5.078125 L 4.859375 -4.765625 L 5 0 L 1.828125 0 L 1.984375 -4.484375 L 1.828125 -15.0625 L 7.609375 -15.09375 C 9.179688 -15.09375 10.394531 -14.703125 11.25 -13.921875 C 12.101562 -13.148438 12.53125 -12.050781 12.53125 -10.625 C 12.53125 -9.65625 12.285156 -8.769531 11.796875 -7.96875 C 11.304688 -7.164062 10.617188 -6.503906 9.734375 -5.984375 Z M 4.90625 -7.53125 L 7.234375 -7.4375 C 8.554688 -7.882812 9.21875 -8.84375 9.21875 -10.3125 C 9.21875 -11.113281 9 -11.710938 8.5625 -12.109375 C 8.132812 -12.503906 7.476562 -12.71875 6.59375 -12.75 L 5 -12.65625 Z M 4.90625 -7.53125 "/></g></g></g><g fill="#101956" fill-opacity="1"><g transform="translate(282.093059, 193.833628)"><g><path d="M 9.828125 -2.390625 L 10.015625 -2.203125 L 9.796875 0 L 1.703125 0 L 1.828125 -3.515625 L 1.703125 -11.8125 L 9.921875 -11.8125 L 10.078125 -11.578125 L 9.890625 -9.40625 L 6.859375 -9.515625 L 4.65625 -9.515625 L 4.609375 -7.140625 L 6.71875 -7.109375 L 8.75 -7.1875 L 8.90625 -6.96875 L 8.71875 -4.75 L 6.5 -4.8125 L 4.5625 -4.8125 L 4.53125 -3.796875 L 4.578125 -2.296875 L 6.640625 -2.296875 Z M 9.828125 -2.390625 "/></g></g></g><g fill="#101956" fill-opacity="1"><g transform="translate(292.756929, 193.833628)"><g><path d="M 5.890625 -11.96875 C 7.015625 -11.96875 8.09375 -11.773438 9.125 -11.390625 L 8.671875 -8.765625 L 8.25 -8.65625 C 7.757812 -9.03125 7.28125 -9.3125 6.8125 -9.5 C 6.34375 -9.6875 5.910156 -9.78125 5.515625 -9.78125 C 5.078125 -9.78125 4.734375 -9.671875 4.484375 -9.453125 C 4.234375 -9.242188 4.109375 -8.992188 4.109375 -8.703125 C 4.109375 -8.367188 4.265625 -8.097656 4.578125 -7.890625 C 4.890625 -7.679688 5.382812 -7.4375 6.0625 -7.15625 C 6.757812 -6.863281 7.328125 -6.59375 7.765625 -6.34375 C 8.210938 -6.09375 8.597656 -5.742188 8.921875 -5.296875 C 9.242188 -4.847656 9.40625 -4.289062 9.40625 -3.625 C 9.40625 -2.957031 9.226562 -2.328125 8.875 -1.734375 C 8.519531 -1.148438 7.988281 -0.679688 7.28125 -0.328125 C 6.570312 0.0234375 5.695312 0.203125 4.65625 0.203125 C 4.09375 0.203125 3.476562 0.144531 2.8125 0.03125 C 2.15625 -0.0820312 1.515625 -0.265625 0.890625 -0.515625 L 1.28125 -3.28125 L 1.59375 -3.484375 C 2.101562 -3.015625 2.675781 -2.640625 3.3125 -2.359375 C 3.957031 -2.078125 4.53125 -1.9375 5.03125 -1.9375 C 5.46875 -1.9375 5.820312 -2.046875 6.09375 -2.265625 C 6.363281 -2.484375 6.5 -2.757812 6.5 -3.09375 C 6.5 -3.4375 6.335938 -3.710938 6.015625 -3.921875 C 5.703125 -4.128906 5.207031 -4.363281 4.53125 -4.625 C 3.832031 -4.925781 3.257812 -5.203125 2.8125 -5.453125 C 2.375 -5.710938 1.992188 -6.066406 1.671875 -6.515625 C 1.347656 -6.972656 1.1875 -7.535156 1.1875 -8.203125 C 1.1875 -8.910156 1.378906 -9.550781 1.765625 -10.125 C 2.148438 -10.707031 2.695312 -11.160156 3.40625 -11.484375 C 4.113281 -11.804688 4.941406 -11.96875 5.890625 -11.96875 Z M 5.890625 -11.96875 "/></g></g></g><g fill="#101956" fill-opacity="1"><g transform="translate(303.16355, 193.833628)"><g><path d="M 6.875 -11.96875 C 8.039062 -11.96875 9.132812 -11.769531 10.15625 -11.375 L 9.640625 -8.890625 L 9.40625 -8.765625 C 9.039062 -9.015625 8.617188 -9.207031 8.140625 -9.34375 C 7.660156 -9.488281 7.175781 -9.5625 6.6875 -9.5625 C 5.738281 -9.5625 5.03125 -9.285156 4.5625 -8.734375 C 4.09375 -8.179688 3.859375 -7.3125 3.859375 -6.125 C 3.859375 -3.550781 4.847656 -2.265625 6.828125 -2.265625 C 7.296875 -2.265625 7.78125 -2.328125 8.28125 -2.453125 C 8.78125 -2.578125 9.234375 -2.75 9.640625 -2.96875 L 9.890625 -2.828125 L 9.65625 -0.375 C 8.738281 0 7.734375 0.1875 6.640625 0.1875 C 4.722656 0.1875 3.265625 -0.328125 2.265625 -1.359375 C 1.265625 -2.390625 0.765625 -3.867188 0.765625 -5.796875 C 0.765625 -7.765625 1.296875 -9.285156 2.359375 -10.359375 C 3.421875 -11.429688 4.925781 -11.96875 6.875 -11.96875 Z M 6.875 -11.96875 "/></g></g></g><g fill="#101956" fill-opacity="1"><g transform="translate(313.780645, 193.833628)"><g><path d="M 11.5625 -5.796875 L 11.53125 -4 C 11.550781 -2.65625 11.109375 -1.617188 10.203125 -0.890625 C 9.304688 -0.171875 8.023438 0.1875 6.359375 0.1875 C 4.734375 0.1875 3.492188 -0.171875 2.640625 -0.890625 C 1.785156 -1.617188 1.378906 -2.65625 1.421875 -4 L 1.453125 -5.84375 L 1.375 -11.8125 L 4.328125 -11.8125 L 4.1875 -4.421875 C 4.164062 -3.660156 4.347656 -3.097656 4.734375 -2.734375 C 5.117188 -2.378906 5.703125 -2.203125 6.484375 -2.203125 C 7.273438 -2.203125 7.859375 -2.382812 8.234375 -2.75 C 8.617188 -3.113281 8.804688 -3.671875 8.796875 -4.421875 L 8.671875 -11.8125 L 11.65625 -11.8125 Z M 11.5625 -5.796875 "/></g></g></g><g fill="#101956" fill-opacity="1"><g transform="translate(326.806473, 193.833628)"><g><path d="M 9.828125 -2.390625 L 10.015625 -2.203125 L 9.796875 0 L 1.703125 0 L 1.828125 -3.515625 L 1.703125 -11.8125 L 9.921875 -11.8125 L 10.078125 -11.578125 L 9.890625 -9.40625 L 6.859375 -9.515625 L 4.65625 -9.515625 L 4.609375 -7.140625 L 6.71875 -7.109375 L 8.75 -7.1875 L 8.90625 -6.96875 L 8.71875 -4.75 L 6.5 -4.8125 L 4.5625 -4.8125 L 4.53125 -3.796875 L 4.578125 -2.296875 L 6.640625 -2.296875 Z M 9.828125 -2.390625 "/></g></g></g></svg>