<?xml version="1.0" standalone="no"?>
<!DOCTYPE svg PUBLIC "-//W3C//DTD SVG 20010904//EN"
 "http://www.w3.org/TR/2001/REC-SVG-20010904/DTD/svg10.dtd">
<svg version="1.0" xmlns="http://www.w3.org/2000/svg"
 width="500.000000pt" height="500.000000pt" viewBox="0 0 500.000000 500.000000"
 preserveAspectRatio="xMidYMid meet">

<g transform="translate(0.000000,500.000000) scale(0.100000,-0.100000)"
fill="#000000" stroke="none">
<path d="M3499 3210 c-80 -10 -194 -47 -270 -86 -183 -96 -314 -261 -364 -459
-24 -92 -24 -266 -1 -355 67 -261 269 -461 532 -528 66 -17 78 -24 160 -101
149 -139 272 -209 405 -231 179 -28 336 6 453 99 78 62 78 59 -15 169 -45 53
-84 99 -86 101 -2 3 -16 -7 -31 -21 -61 -57 -162 -87 -234 -68 -42 12 -108 53
-108 69 0 4 19 16 43 26 160 70 306 218 374 380 30 71 53 192 53 279 0 466
-407 791 -911 726z m273 -350 c201 -75 295 -346 196 -562 -132 -288 -545 -287
-682 2 -29 61 -31 72 -31 185 0 114 2 124 31 185 51 106 142 182 251 210 57
14 171 5 235 -20z"/>
<path d="M630 3035 l0 -155 245 0 246 0 -3 -342 c-3 -332 -4 -344 -25 -384
-61 -115 -229 -109 -349 12 -25 24 -46 44 -49 44 -2 0 -52 -57 -111 -127
l-107 -127 53 -48 c112 -104 250 -151 440 -152 278 0 433 95 512 314 22 63 23
78 28 469 l5 405 248 -582 249 -582 196 0 197 0 279 653 c154 358 290 676 303
705 l23 52 -198 0 -198 0 -194 -455 c-106 -250 -196 -453 -199 -449 -3 3 -90
206 -192 452 l-186 447 -607 3 -606 2 0 -155z"/>
</g>
</svg>
