<svg xmlns="http://www.w3.org/2000/svg" xmlns:xlink="http://www.w3.org/1999/xlink" width="500" zoomAndPan="magnify" viewBox="0 0 375 374.999991" height="500" preserveAspectRatio="xMidYMid meet" version="1.0"><defs><clipPath id="1ca71d9729"><path d="M 286 297 L 337.5 297 L 337.5 324 L 286 324 Z M 286 297 " clip-rule="nonzero"/></clipPath><clipPath id="22be10ed9c"><path d="M 286 228 L 337.5 228 L 337.5 256 L 286 256 Z M 286 228 " clip-rule="nonzero"/></clipPath><clipPath id="d7c68f45bb"><path d="M 316 262 L 337.5 262 L 337.5 290 L 316 290 Z M 316 262 " clip-rule="nonzero"/></clipPath><clipPath id="00c770b691"><path d="M 316 193 L 337.5 193 L 337.5 221 L 316 221 Z M 316 193 " clip-rule="nonzero"/></clipPath><clipPath id="76f48b0745"><path d="M 39 111 L 193 111 L 193 324.375 L 39 324.375 Z M 39 111 " clip-rule="nonzero"/></clipPath></defs><path fill="#bcd2ff" d="M 173.773438 297.046875 L 218.492188 297.046875 C 218.875 297.046875 219.246094 297.121094 219.601562 297.269531 C 219.957031 297.414062 220.269531 297.625 220.542969 297.898438 C 220.8125 298.167969 221.023438 298.480469 221.167969 298.835938 C 221.316406 299.191406 221.390625 299.5625 221.390625 299.949219 L 221.390625 321.027344 C 221.390625 321.414062 221.316406 321.785156 221.167969 322.140625 C 221.023438 322.492188 220.8125 322.808594 220.542969 323.078125 C 220.269531 323.351562 219.957031 323.5625 219.601562 323.707031 C 219.246094 323.855469 218.875 323.929688 218.492188 323.929688 L 173.773438 323.929688 C 173.390625 323.929688 173.019531 323.855469 172.664062 323.707031 C 172.308594 323.5625 171.996094 323.351562 171.722656 323.078125 C 171.449219 322.808594 171.242188 322.492188 171.09375 322.140625 C 170.945312 321.785156 170.875 321.414062 170.875 321.027344 L 170.875 299.949219 C 170.875 299.5625 170.945312 299.191406 171.09375 298.835938 C 171.242188 298.480469 171.449219 298.167969 171.722656 297.898438 C 171.996094 297.625 172.308594 297.414062 172.664062 297.269531 C 173.019531 297.121094 173.390625 297.046875 173.773438 297.046875 Z M 173.773438 297.046875 " fill-opacity="1" fill-rule="nonzero"/><path fill="#bcd2ff" d="M 231.828125 297.046875 L 276.546875 297.046875 C 278.148438 297.046875 279.445312 298.347656 279.445312 299.945312 L 279.445312 321.03125 C 279.445312 322.628906 278.144531 323.929688 276.546875 323.929688 L 231.828125 323.929688 C 230.226562 323.929688 228.929688 322.628906 228.929688 321.03125 L 228.929688 299.949219 C 228.929688 298.347656 230.226562 297.046875 231.828125 297.046875 Z M 231.828125 297.046875 " fill-opacity="1" fill-rule="nonzero"/><path fill="#bcd2ff" d="M 202.800781 289.511719 L 247.519531 289.511719 C 249.121094 289.511719 250.417969 288.210938 250.417969 286.613281 L 250.417969 265.53125 C 250.417969 263.929688 249.121094 262.632812 247.519531 262.632812 L 202.800781 262.632812 C 201.199219 262.632812 199.902344 263.929688 199.902344 265.53125 L 199.902344 286.613281 C 199.902344 288.210938 201.199219 289.511719 202.800781 289.511719 Z M 202.800781 289.511719 " fill-opacity="1" fill-rule="nonzero"/><path fill="#bcd2ff" d="M 260.855469 262.632812 L 305.574219 262.632812 C 307.171875 262.632812 308.472656 263.933594 308.472656 265.53125 L 308.472656 286.613281 C 308.472656 288.210938 307.171875 289.511719 305.574219 289.511719 L 260.855469 289.511719 C 259.253906 289.511719 257.957031 288.210938 257.957031 286.613281 L 257.957031 265.53125 C 257.957031 263.933594 259.253906 262.632812 260.855469 262.632812 Z M 260.855469 262.632812 " fill-opacity="1" fill-rule="nonzero"/><path fill="#bcd2ff" d="M 221.390625 252.195312 L 221.390625 231.113281 C 221.390625 229.511719 220.09375 228.214844 218.492188 228.214844 L 173.773438 228.214844 C 172.171875 228.214844 170.875 229.511719 170.875 231.113281 L 170.875 252.195312 C 170.875 253.796875 172.171875 255.097656 173.773438 255.097656 L 218.492188 255.097656 C 220.09375 255.097656 221.390625 253.796875 221.390625 252.195312 Z M 221.390625 252.195312 " fill-opacity="1" fill-rule="nonzero"/><path fill="#bcd2ff" d="M 231.828125 228.214844 L 276.546875 228.214844 C 278.144531 228.214844 279.445312 229.515625 279.445312 231.113281 L 279.445312 252.195312 C 279.445312 253.796875 278.144531 255.097656 276.546875 255.097656 L 231.828125 255.097656 C 230.226562 255.097656 228.929688 253.796875 228.929688 252.199219 L 228.929688 231.113281 C 228.929688 229.515625 230.226562 228.214844 231.828125 228.214844 Z M 231.828125 228.214844 " fill-opacity="1" fill-rule="nonzero"/><g clip-path="url(#1ca71d9729)"><path fill="#bcd2ff" d="M 289.882812 297.046875 L 334.601562 297.046875 C 336.199219 297.046875 337.5 298.347656 337.5 299.945312 L 337.5 321.03125 C 337.5 322.628906 336.199219 323.929688 334.601562 323.929688 L 289.882812 323.929688 C 288.28125 323.929688 286.984375 322.628906 286.984375 321.03125 L 286.984375 299.949219 C 286.984375 298.347656 288.28125 297.046875 289.882812 297.046875 Z M 289.882812 297.046875 " fill-opacity="1" fill-rule="nonzero"/></g><g clip-path="url(#22be10ed9c)"><path fill="#bcd2ff" d="M 289.882812 228.214844 L 334.601562 228.214844 C 336.199219 228.214844 337.5 229.515625 337.5 231.113281 L 337.5 252.195312 C 337.5 253.796875 336.199219 255.097656 334.601562 255.097656 L 289.882812 255.097656 C 288.28125 255.097656 286.984375 253.796875 286.984375 252.199219 L 286.984375 231.113281 C 286.984375 229.515625 288.28125 228.214844 289.882812 228.214844 Z M 289.882812 228.214844 " fill-opacity="1" fill-rule="nonzero"/></g><path fill="#bcd2ff" d="M 178.691406 198.597656 L 186.738281 210.933594 C 187.625 212.234375 189.394531 212.640625 190.757812 211.753906 L 228.257812 187.34375 C 229.550781 186.53125 229.960938 184.6875 229.074219 183.390625 L 217.621094 165.667969 C 216.734375 164.371094 214.894531 163.964844 213.597656 164.847656 L 199.28125 174.121094 C 200.304688 178.347656 199.894531 182.847656 197.917969 187.074219 C 194.578125 194.097656 187.488281 198.664062 179.714844 198.664062 C 179.375 198.664062 179.03125 198.664062 178.691406 198.597656 Z M 178.691406 198.597656 " fill-opacity="1" fill-rule="nonzero"/><g clip-path="url(#d7c68f45bb)"><path fill="#bcd2ff" d="M 318.910156 262.632812 L 334.601562 262.632812 C 336.199219 262.632812 337.5 263.933594 337.5 265.53125 L 337.5 286.613281 C 337.5 288.210938 336.199219 289.511719 334.601562 289.511719 L 318.910156 289.511719 C 317.308594 289.511719 316.011719 288.210938 316.011719 286.613281 L 316.011719 265.53125 C 316.011719 263.933594 317.308594 262.632812 318.910156 262.632812 Z M 318.910156 262.632812 " fill-opacity="1" fill-rule="nonzero"/></g><path fill="#bcd2ff" d="M 173.773438 262.632812 L 189.460938 262.632812 C 189.847656 262.632812 190.214844 262.707031 190.570312 262.855469 C 190.925781 263 191.242188 263.210938 191.511719 263.484375 C 191.785156 263.753906 191.992188 264.066406 192.140625 264.421875 C 192.289062 264.777344 192.363281 265.148438 192.363281 265.53125 L 192.363281 286.613281 C 192.363281 286.996094 192.289062 287.367188 192.140625 287.722656 C 191.992188 288.078125 191.785156 288.390625 191.511719 288.660156 C 191.242188 288.933594 190.925781 289.144531 190.570312 289.289062 C 190.214844 289.4375 189.847656 289.511719 189.460938 289.511719 L 173.773438 289.511719 C 173.390625 289.511719 173.019531 289.4375 172.664062 289.289062 C 172.308594 289.144531 171.996094 288.933594 171.722656 288.660156 C 171.449219 288.390625 171.242188 288.078125 171.09375 287.722656 C 170.945312 287.367188 170.875 286.996094 170.875 286.613281 L 170.875 265.53125 C 170.875 265.148438 170.945312 264.777344 171.09375 264.421875 C 171.242188 264.066406 171.449219 263.753906 171.722656 263.484375 C 171.996094 263.210938 172.308594 263 172.664062 262.855469 C 173.019531 262.707031 173.390625 262.632812 173.773438 262.632812 Z M 173.773438 262.632812 " fill-opacity="1" fill-rule="nonzero"/><path fill="#bcd2ff" d="M 260.855469 220.679688 L 305.574219 220.679688 C 307.175781 220.679688 308.472656 219.378906 308.472656 217.777344 L 308.472656 196.699219 C 308.472656 195.09375 307.175781 193.800781 305.574219 193.800781 L 260.855469 193.800781 C 259.253906 193.800781 257.957031 195.09375 257.957031 196.699219 L 257.957031 217.777344 C 257.957031 219.378906 259.253906 220.679688 260.855469 220.679688 Z M 260.855469 220.679688 " fill-opacity="1" fill-rule="nonzero"/><g clip-path="url(#00c770b691)"><path fill="#bcd2ff" d="M 334.601562 193.800781 L 318.910156 193.800781 C 317.308594 193.800781 316.011719 195.09375 316.011719 196.699219 L 316.011719 217.777344 C 316.011719 219.378906 317.308594 220.679688 318.910156 220.679688 L 334.601562 220.679688 C 336.203125 220.679688 337.5 219.378906 337.5 217.777344 L 337.5 196.699219 C 337.5 195.09375 336.203125 193.800781 334.601562 193.800781 Z M 334.601562 193.800781 " fill-opacity="1" fill-rule="nonzero"/></g><g clip-path="url(#76f48b0745)"><path fill="#bcd2ff" d="M 179.699219 191.132812 C 184.433594 191.132812 188.972656 188.457031 191.121094 183.890625 C 194.089844 177.589844 191.386719 170.074219 185.082031 167.105469 C 184.964844 167.050781 173.09375 161.292969 165.085938 151.554688 C 162.988281 149 160.46875 144.96875 158.03125 141.070312 C 152.195312 131.726562 147.152344 123.65625 139.722656 120.273438 C 132.972656 117.203125 121.542969 113.128906 121.5 113.128906 C 109.683594 108.269531 101.402344 113.574219 97.210938 117.019531 C 89.605469 123.273438 72.128906 156.792969 66.320312 173.15625 C 60.507812 189.523438 63.242188 210.90625 65.675781 228.285156 C 66.527344 234.328125 67.667969 242.5 67.324219 245.5 C 60.375 259.671875 41.6875 301.40625 40.882812 303.207031 C 37.496094 310.769531 40.882812 319.640625 48.441406 323.027344 C 50.433594 323.914062 52.515625 324.339844 54.5625 324.339844 C 60.292969 324.339844 65.765625 321.035156 68.261719 315.464844 C 68.460938 315.019531 88.230469 270.867188 94.589844 258.039062 C 98.144531 250.867188 97.710938 242.046875 96.355469 231.335938 C 103.429688 240.207031 110.300781 250.53125 113.0625 256.351562 C 114.132812 262.792969 112.285156 287.628906 109.808594 307.480469 C 108.785156 315.699219 114.617188 323.191406 122.835938 324.21875 C 123.46875 324.296875 124.09375 324.335938 124.710938 324.335938 C 132.167969 324.335938 138.628906 318.78125 139.578125 311.191406 C 146.304688 257.292969 142.171875 247.976562 140.816406 244.917969 C 139.171875 241.203125 128.460938 222.121094 114.683594 206.566406 C 119.53125 192.152344 127.851562 169.808594 137.125 155.195312 C 139.839844 159.535156 142.636719 163.964844 145.597656 167.566406 C 157.300781 181.804688 173.648438 189.601562 174.335938 189.929688 C 176.074219 190.746094 177.902344 191.132812 179.699219 191.132812 Z M 179.699219 191.132812 " fill-opacity="1" fill-rule="nonzero"/></g><path fill="#bcd2ff" d="M 132.140625 109.714844 C 146.792969 115.738281 163.554688 108.75 169.585938 94.09375 C 175.613281 79.445312 168.621094 62.679688 153.96875 56.652344 C 139.316406 50.625 122.550781 57.617188 116.523438 72.265625 C 110.496094 86.921875 117.488281 103.6875 132.140625 109.714844 Z M 132.140625 109.714844 " fill-opacity="1" fill-rule="nonzero"/></svg>