<svg xmlns="http://www.w3.org/2000/svg" version="1.1" xmlns:xlink="http://www.w3.org/1999/xlink" viewBox="0 0 700 700" style="overflow: hidden; display: block;" width="700" height="700"><defs><linearGradient id="two-75" x1="350" y1="-350" x2="350" y2="350" spreadMethod="pad" gradientUnits="userSpaceOnUse"><stop offset="0%" stop-color="hsl(1.4, 100%, 67%)" stop-opacity="1"></stop><stop offset="100%" stop-color="hsl(167, 52%, 78%)" stop-opacity="1"></stop></linearGradient></defs><g id="two-0" transform="matrix(1 0 0 1 0 0)" opacity="1"><path transform="matrix(1 0 0 1 350 350)" id="two-597" d="M 322.683117 99.534559 C 322.76279 132.462955 278.714053 150.181087 260.795497 177.807359 C 242.531987 205.96547 244.269714 254.144947 213.671403 267.935465 C 176.432806 284.718729 132.204398 225.178773 93.507508 238.253247 C 58.971667 249.921832 59.352416 314.322415 24.307297 324.358342 C -6.299056 333.123132 -36.665275 302.899364 -66.772357 292.548808 C -94.920817 282.871609 -123.784361 272.461462 -152.212611 263.639974 C -185.330753 253.363178 -227.573506 258.273127 -253.328425 235.054427 C -278.355779 212.491644 -294.399158 173.725414 -291.107823 140.190138 C -287.009263 98.430084 -227.25145 75.090163 -221.993713 33.460168 C -218.920033 9.123216 -239.346224 -13.305237 -245.61618 -37.020683 C -253.328859 -66.193072 -277.831332 -100.3601 -263.203183 -126.751973 C -247.846719 -154.457862 -191.548488 -134.960602 -173.536482 -161.018325 C -147.524016 -198.650203 -211.277638 -274.592308 -173.000225 -299.645179 C -138.092727 -322.492412 -98.278848 -243.826106 -56.946933 -249.500814 C -23.066695 -254.152436 -10.423283 -318.318572 23.585187 -314.722453 C 58.712163 -311.008061 57.110713 -241.948411 90.83693 -231.448725 C 131.158222 -218.895852 175.03683 -285.113943 213.542944 -267.774384 C 244.320712 -253.91495 252.711185 -208.594918 256.810496 -175.090433 C 260.977317 -141.034177 238.666704 -107.317445 236.841175 -73.055828 C 235.553601 -48.890567 234.21516 -22.470259 243.198764 -0.000001 C 258.80321 39.030653 322.581412 57.500284 322.683117 99.534559 Z " fill="#8eb5ff" stroke="undefined" stroke-width="1" stroke-opacity="1" fill-opacity="1" visibility="visible" stroke-linecap="butt" stroke-linejoin="miter" stroke-miterlimit="4"></path></g></svg>