<svg xmlns="http://www.w3.org/2000/svg" xmlns:xlink="http://www.w3.org/1999/xlink" width="500" zoomAndPan="magnify" viewBox="0 0 375 374.999991" height="500" preserveAspectRatio="xMidYMid meet" version="1.2"><g id="64e2d267b4"><path style=" stroke:none;fill-rule:nonzero;fill:#bbd8ff;fill-opacity:1;" d="M 360.367188 240.820312 C 360.410156 258.460938 336.8125 267.953125 327.210938 282.753906 C 317.429688 297.839844 318.359375 323.648438 301.96875 331.035156 C 282.015625 340.027344 258.324219 308.132812 237.59375 315.136719 C 219.09375 321.386719 219.296875 355.886719 200.523438 361.261719 C 184.125 365.957031 167.859375 349.765625 151.730469 344.222656 C 136.648438 339.039062 121.1875 333.460938 105.957031 328.734375 C 88.214844 323.230469 65.585938 325.859375 51.789062 313.421875 C 38.378906 301.335938 29.785156 280.566406 31.550781 262.601562 C 33.746094 240.230469 65.757812 227.726562 68.574219 205.425781 C 70.222656 192.386719 59.277344 180.371094 55.917969 167.667969 C 51.789062 152.039062 38.660156 133.734375 46.5 119.597656 C 54.726562 104.753906 84.882812 115.199219 94.535156 101.238281 C 108.46875 81.082031 74.316406 40.398438 94.820312 26.976562 C 113.523438 14.734375 134.851562 56.878906 156.992188 53.839844 C 175.144531 51.347656 181.917969 16.972656 200.136719 18.898438 C 218.953125 20.886719 218.09375 57.886719 236.164062 63.507812 C 257.761719 70.234375 281.269531 34.761719 301.898438 44.050781 C 318.386719 51.472656 322.882812 75.753906 325.078125 93.703125 C 327.308594 111.945312 315.355469 130.007812 314.378906 148.363281 C 313.6875 161.308594 312.972656 175.460938 317.785156 187.5 C 326.144531 208.410156 360.3125 218.304688 360.367188 240.820312 Z M 360.367188 240.820312 "/></g></svg>