<?xml version="1.0" encoding="utf-8"?>
<svg version="1.0" xmlns="http://www.w3.org/2000/svg" width="409.000000pt" height="610.000000pt" viewBox="0 0 336.903 238.204" preserveAspectRatio="xMidYMid meet">
  <g transform="matrix(0.1, 0, 0, -0.1, -44.530704, 421.981506)" fill="#000000" stroke="none">
    <path d="M1286 4035 c-74 -85 -253 -287 -323 -364 l-42 -46 -1 -235 c0 -210 -3 -240 -20 -277 -32 -71 -62 -83 -217 -83 l-133 0 0 -86 0 -86 158 4 c178 4 216 15 291 84 93 84 101 123 101 537 l0 337 40 0 40 0 0 -460 c0 -253 3 -460 8 -459 4 0 44 43 90 95 l82 95 0 92 c0 76 4 101 23 137 53 107 192 104 217 -5 5 -22 10 -129 10 -238 l0 -198 88 3 87 3 0 245 c0 273 -4 296 -61 353 -88 88 -217 88 -315 -1 l-49 -44 -2 338 -3 338 -69 -79z" style="fill: rgb(255, 255, 255);"/>
    <path d="M2087 3536 c-149 -43 -235 -180 -225 -356 6 -99 39 -171 109 -234 148 -133 421 -95 498 69 11 25 21 49 21 55 0 6 -32 10 -76 10 -73 0 -78 -1 -115 -35 -35 -31 -45 -35 -97 -35 -87 0 -150 47 -155 116 l-2 29 225 0 225 0 -2 80 c-2 136 -60 232 -172 283 -66 30 -165 38 -234 18z m156 -140 c43 -18 67 -46 74 -90 l6 -36 -143 0 -142 0 7 28 c22 90 112 135 198 98z" style="fill: rgb(255, 255, 255);"/>
    <path d="M3135 3523 c-129 -45 -180 -188 -104 -295 27 -37 108 -73 214 -94 103 -20 141 -36 150 -64 15 -47 -32 -80 -113 -80 -62 0 -93 17 -115 63 l-19 37 -79 0 -79 0 0 -30 c0 -29 28 -89 58 -123 8 -9 40 -29 71 -44 48 -23 69 -27 151 -27 222 -1 336 108 290 276 -19 68 -76 95 -282 137 -86 18 -129 64 -100 107 38 58 186 39 198 -25 5 -26 11 -30 48 -33 22 -3 61 -2 85 0 43 5 43 5 37 40 -9 56 -50 109 -109 139 -44 23 -66 27 -152 30 -75 2 -113 -1 -150 -14z" style="fill: rgb(255, 255, 255);"/>
    <path d="M2642 3467 l-62 -63 0 -262 0 -262 90 0 90 0 0 250 0 250 105 0 105 0 0 75 0 75 -133 0 -133 0 -62 -63z" style="fill: rgb(255, 255, 255);"/>
    <path d="M1182 2393 l3 -428 200 0 c229 1 276 10 373 75 104 70 160 177 169 326 15 221 -98 386 -302 440 -34 9 -115 14 -248 14 l-197 0 2 -427z m396 265 c61 -15 136 -88 153 -149 16 -55 15 -171 0 -228 -16 -56 -90 -132 -147 -149 -23 -6 -82 -12 -133 -12 l-91 0 0 275 0 275 86 0 c47 0 106 -5 132 -12z" style="fill: rgb(255, 255, 255);"/>
    <path d="M2235 2621 c-99 -27 -179 -91 -216 -174 -21 -44 -24 -68 -24 -162 0 -96 3 -116 23 -153 35 -66 88 -119 150 -149 51 -25 68 -28 152 -27 83 0 102 4 147 27 59 31 96 66 124 119 33 64 29 68 -59 68 -75 0 -79 -1 -100 -29 -39 -53 -145 -66 -207 -25 -23 15 -65 87 -65 112 0 9 60 12 231 12 l232 0 -5 79 c-8 130 -71 232 -173 280 -49 23 -163 35 -210 22z m173 -176 c28 -30 38 -58 30 -82 -4 -11 -266 -14 -273 -3 -3 4 1 23 9 42 27 64 75 90 151 83 41 -4 56 -10 83 -40z" style="fill: rgb(255, 255, 255);"/>
    <path d="M2625 2593 c4 -10 27 -76 50 -148 74 -222 166 -469 177 -476 13 -8 180 0 189 10 12 12 219 602 219 623 0 5 -38 8 -84 8 l-85 0 -35 -112 c-19 -62 -51 -168 -72 -235 -21 -68 -39 -121 -41 -119 -4 4 -24 70 -73 241 -17 61 -38 136 -47 168 l-17 57 -94 0 c-86 0 -94 -2 -87 -17z" style="fill: rgb(255, 255, 255);"/>
  </g>
</svg>