<svg xmlns="http://www.w3.org/2000/svg" xmlns:xlink="http://www.w3.org/1999/xlink" width="500" zoomAndPan="magnify" viewBox="0 0 375 374.999991" height="500" preserveAspectRatio="xMidYMid meet" version="1.0"><defs><clipPath id="b516c7b823"><path d="M 34 32.894531 L 341 32.894531 L 341 341 L 34 341 Z M 34 32.894531 " clip-rule="nonzero"/></clipPath></defs><g clip-path="url(#b516c7b823)"><path fill="#000000" d="M 109.425781 147.820312 C 110.109375 147.78125 110.792969 147.710938 111.46875 147.605469 C 112.148438 147.503906 112.820312 147.367188 113.484375 147.203125 C 114.148438 147.035156 114.804688 146.839844 115.453125 146.609375 C 116.097656 146.382812 116.730469 146.121094 117.355469 145.832031 C 117.976562 145.546875 118.582031 145.226562 119.175781 144.882812 C 119.765625 144.535156 120.339844 144.164062 120.898438 143.761719 C 121.453125 143.363281 121.992188 142.9375 122.507812 142.484375 C 123.023438 142.035156 123.519531 141.5625 123.988281 141.0625 C 124.460938 140.566406 124.910156 140.046875 125.332031 139.507812 C 125.753906 138.96875 126.148438 138.410156 126.519531 137.832031 C 126.890625 137.253906 127.230469 136.660156 127.546875 136.050781 C 127.859375 135.441406 128.144531 134.816406 128.398438 134.183594 C 128.652344 133.546875 128.878906 132.898438 129.070312 132.242188 C 129.265625 131.582031 129.425781 130.917969 129.558594 130.246094 C 129.6875 129.570312 129.789062 128.894531 129.855469 128.210938 C 129.921875 127.527344 129.957031 126.84375 129.957031 126.160156 L 129.957031 124.054688 C 129.957031 123.007812 129.914062 121.960938 129.824219 120.914062 C 129.738281 119.871094 129.609375 118.832031 129.4375 117.796875 C 129.265625 116.761719 129.050781 115.738281 128.792969 114.71875 C 128.539062 113.703125 128.238281 112.699219 127.902344 111.707031 C 127.5625 110.714844 127.183594 109.738281 126.765625 108.777344 C 126.347656 107.816406 125.890625 106.875 125.394531 105.949219 C 124.898438 105.027344 124.367188 104.125 123.796875 103.242188 C 123.226562 102.363281 122.621094 101.507812 121.984375 100.675781 C 121.34375 99.847656 120.671875 99.042969 119.964844 98.269531 C 119.261719 97.492188 118.523438 96.746094 117.757812 96.03125 C 116.992188 95.316406 116.195312 94.632812 115.375 93.984375 C 114.550781 93.332031 113.703125 92.71875 112.832031 92.136719 C 111.957031 91.558594 111.0625 91.011719 110.144531 90.503906 C 109.226562 89.996094 108.292969 89.527344 107.335938 89.097656 C 106.378906 88.667969 105.410156 88.277344 104.421875 87.925781 C 103.433594 87.574219 102.433594 87.265625 101.417969 86.996094 C 102.230469 86.339844 103.003906 85.640625 103.742188 84.90625 C 104.480469 84.171875 105.179688 83.398438 105.839844 82.589844 C 106.5 81.78125 107.117188 80.941406 107.6875 80.070312 C 108.261719 79.199219 108.789062 78.304688 109.269531 77.378906 C 109.753906 76.453125 110.183594 75.503906 110.570312 74.535156 C 110.953125 73.566406 111.285156 72.578125 111.570312 71.574219 C 111.851562 70.570312 112.082031 69.554688 112.261719 68.527344 C 112.441406 67.5 112.566406 66.46875 112.636719 65.425781 C 112.710938 64.386719 112.730469 63.34375 112.695312 62.304688 C 112.660156 61.261719 112.574219 60.222656 112.433594 59.191406 C 112.289062 58.15625 112.097656 57.132812 111.851562 56.121094 C 111.605469 55.105469 111.308594 54.109375 110.960938 53.125 C 110.613281 52.140625 110.214844 51.179688 109.765625 50.238281 C 109.320312 49.296875 108.824219 48.378906 108.285156 47.488281 C 107.742188 46.59375 107.160156 45.734375 106.527344 44.902344 C 105.898438 44.070312 105.230469 43.273438 104.515625 42.511719 C 103.804688 41.75 103.058594 41.023438 102.273438 40.339844 C 101.488281 39.652344 100.667969 39.007812 99.816406 38.40625 C 98.964844 37.804688 98.085938 37.25 97.175781 36.738281 C 96.265625 36.226562 95.332031 35.761719 94.378906 35.347656 C 93.421875 34.929688 92.445312 34.566406 91.453125 34.25 C 90.457031 33.933594 89.449219 33.671875 88.429688 33.457031 C 87.410156 33.246094 86.378906 33.085938 85.34375 32.980469 C 84.304688 32.871094 83.265625 32.820312 82.222656 32.820312 C 81.179688 32.820312 80.140625 32.871094 79.101562 32.980469 C 78.0625 33.085938 77.035156 33.246094 76.015625 33.457031 C 74.992188 33.671875 73.984375 33.933594 72.992188 34.25 C 71.996094 34.566406 71.023438 34.929688 70.066406 35.347656 C 69.109375 35.761719 68.175781 36.226562 67.269531 36.738281 C 66.359375 37.25 65.480469 37.804688 64.628906 38.40625 C 63.777344 39.007812 62.957031 39.652344 62.171875 40.339844 C 61.386719 41.023438 60.636719 41.75 59.925781 42.511719 C 59.214844 43.273438 58.542969 44.070312 57.914062 44.902344 C 57.285156 45.734375 56.699219 46.59375 56.160156 47.488281 C 55.617188 48.378906 55.125 49.296875 54.675781 50.238281 C 54.230469 51.179688 53.832031 52.140625 53.484375 53.125 C 53.136719 54.109375 52.839844 55.105469 52.59375 56.121094 C 52.347656 57.132812 52.152344 58.15625 52.011719 59.191406 C 51.871094 60.222656 51.785156 61.261719 51.75 62.304688 C 51.714844 63.34375 51.734375 64.386719 51.804688 65.425781 C 51.878906 66.46875 52.003906 67.5 52.183594 68.527344 C 52.359375 69.554688 52.59375 70.570312 52.875 71.574219 C 53.15625 72.578125 53.492188 73.566406 53.875 74.535156 C 54.257812 75.503906 54.691406 76.453125 55.171875 77.378906 C 55.652344 78.304688 56.179688 79.199219 56.753906 80.070312 C 57.328125 80.941406 57.945312 81.78125 58.605469 82.589844 C 59.261719 83.398438 59.960938 84.171875 60.703125 84.90625 C 61.441406 85.640625 62.214844 86.339844 63.023438 86.996094 C 62.011719 87.265625 61.011719 87.574219 60.023438 87.925781 C 59.035156 88.277344 58.0625 88.667969 57.109375 89.097656 C 56.152344 89.527344 55.214844 89.996094 54.296875 90.503906 C 53.378906 91.011719 52.484375 91.558594 51.613281 92.136719 C 50.738281 92.71875 49.890625 93.332031 49.070312 93.984375 C 48.246094 94.632812 47.453125 95.316406 46.6875 96.03125 C 45.917969 96.746094 45.183594 97.492188 44.476562 98.269531 C 43.773438 99.042969 43.101562 99.847656 42.460938 100.675781 C 41.820312 101.507812 41.214844 102.363281 40.648438 103.242188 C 40.078125 104.125 39.542969 105.027344 39.046875 105.949219 C 38.554688 106.875 38.097656 107.816406 37.675781 108.777344 C 37.257812 109.738281 36.878906 110.714844 36.542969 111.707031 C 36.203125 112.699219 35.90625 113.703125 35.648438 114.71875 C 35.394531 115.738281 35.179688 116.761719 35.007812 117.796875 C 34.835938 118.832031 34.707031 119.871094 34.617188 120.914062 C 34.53125 121.960938 34.488281 123.007812 34.484375 124.054688 L 34.484375 126.160156 C 34.480469 127.589844 34.613281 129.007812 34.886719 130.410156 C 35.164062 131.8125 35.574219 133.175781 36.121094 134.5 C 36.667969 135.820312 37.339844 137.074219 38.132812 138.261719 C 38.929688 139.453125 39.835938 140.550781 40.851562 141.558594 C 42.726562 143.410156 44.863281 144.878906 47.265625 145.964844 C 49.667969 147.050781 52.183594 147.6875 54.8125 147.871094 C 59.0625 150.019531 63.5 151.652344 68.132812 152.761719 C 72.761719 153.871094 77.460938 154.429688 82.222656 154.441406 C 86.953125 154.417969 91.617188 153.847656 96.214844 152.730469 C 100.808594 151.609375 105.214844 149.972656 109.425781 147.820312 Z M 61.84375 63.382812 C 61.84375 62.722656 61.875 62.058594 61.9375 61.402344 C 62 60.742188 62.09375 60.085938 62.222656 59.4375 C 62.351562 58.785156 62.511719 58.144531 62.699219 57.507812 C 62.890625 56.875 63.113281 56.25 63.367188 55.636719 C 63.617188 55.023438 63.898438 54.425781 64.210938 53.839844 C 64.523438 53.253906 64.859375 52.6875 65.226562 52.132812 C 65.59375 51.582031 65.988281 51.050781 66.40625 50.535156 C 66.828125 50.023438 67.269531 49.53125 67.738281 49.0625 C 68.203125 48.59375 68.695312 48.148438 69.207031 47.726562 C 69.71875 47.304688 70.25 46.910156 70.796875 46.539062 C 71.347656 46.171875 71.914062 45.828125 72.5 45.515625 C 73.082031 45.203125 73.679688 44.917969 74.292969 44.664062 C 74.90625 44.410156 75.527344 44.183594 76.160156 43.992188 C 76.796875 43.796875 77.4375 43.636719 78.085938 43.503906 C 78.738281 43.375 79.390625 43.277344 80.050781 43.210938 C 80.710938 43.144531 81.371094 43.109375 82.035156 43.109375 C 82.695312 43.109375 83.355469 43.140625 84.015625 43.203125 C 84.675781 43.265625 85.332031 43.363281 85.980469 43.492188 C 86.632812 43.621094 87.273438 43.78125 87.910156 43.972656 C 88.542969 44.164062 89.167969 44.382812 89.78125 44.636719 C 90.390625 44.890625 90.992188 45.171875 91.574219 45.484375 C 92.160156 45.796875 92.730469 46.132812 93.28125 46.503906 C 93.832031 46.871094 94.363281 47.261719 94.875 47.683594 C 95.390625 48.101562 95.878906 48.546875 96.351562 49.015625 C 96.820312 49.480469 97.265625 49.972656 97.683594 50.484375 C 98.105469 50.996094 98.5 51.527344 98.871094 52.078125 C 99.238281 52.628906 99.578125 53.195312 99.894531 53.78125 C 100.207031 54.363281 100.488281 54.960938 100.742188 55.574219 C 100.996094 56.1875 101.222656 56.808594 101.414062 57.441406 C 101.609375 58.078125 101.769531 58.71875 101.898438 59.367188 C 102.027344 60.019531 102.125 60.671875 102.191406 61.332031 C 102.257812 61.992188 102.289062 62.652344 102.292969 63.316406 C 102.292969 63.976562 102.261719 64.640625 102.195312 65.300781 C 102.132812 65.957031 102.035156 66.613281 101.90625 67.261719 C 101.777344 67.914062 101.617188 68.554688 101.425781 69.191406 C 101.234375 69.824219 101.011719 70.449219 100.757812 71.058594 C 100.503906 71.671875 100.222656 72.269531 99.910156 72.855469 C 99.597656 73.441406 99.257812 74.007812 98.890625 74.558594 C 98.519531 75.109375 98.128906 75.640625 97.707031 76.15625 C 97.285156 76.667969 96.84375 77.15625 96.375 77.625 C 95.90625 78.097656 95.414062 78.539062 94.902344 78.960938 C 94.390625 79.382812 93.859375 79.777344 93.308594 80.144531 C 92.757812 80.511719 92.191406 80.851562 91.605469 81.164062 C 91.019531 81.476562 90.421875 81.761719 89.8125 82.015625 C 89.199219 82.269531 88.574219 82.492188 87.941406 82.683594 C 87.308594 82.878906 86.664062 83.039062 86.015625 83.167969 C 85.367188 83.296875 84.710938 83.394531 84.050781 83.457031 C 83.390625 83.523438 82.730469 83.554688 82.066406 83.554688 C 81.40625 83.554688 80.746094 83.519531 80.089844 83.453125 C 79.433594 83.386719 78.78125 83.289062 78.132812 83.160156 C 77.484375 83.03125 76.84375 82.871094 76.210938 82.675781 C 75.578125 82.484375 74.957031 82.261719 74.347656 82.007812 C 73.738281 81.753906 73.140625 81.472656 72.558594 81.160156 C 71.976562 80.847656 71.410156 80.511719 70.859375 80.144531 C 70.3125 79.777344 69.78125 79.382812 69.269531 78.964844 C 68.757812 78.546875 68.269531 78.101562 67.800781 77.636719 C 67.332031 77.167969 66.890625 76.679688 66.46875 76.171875 C 66.046875 75.660156 65.65625 75.132812 65.285156 74.582031 C 64.917969 74.035156 64.578125 73.46875 64.265625 72.886719 C 63.949219 72.304688 63.667969 71.710938 63.410156 71.097656 C 63.15625 70.488281 62.933594 69.871094 62.738281 69.238281 C 62.542969 68.605469 62.382812 67.964844 62.25 67.320312 C 62.117188 66.671875 62.019531 66.019531 61.949219 65.359375 C 61.882812 64.703125 61.847656 64.042969 61.84375 63.382812 Z M 62.304688 115.585938 C 61.972656 115.527344 61.640625 115.5 61.300781 115.507812 C 60.964844 115.515625 60.632812 115.554688 60.304688 115.625 C 59.972656 115.699219 59.65625 115.800781 59.34375 115.9375 C 59.035156 116.074219 58.742188 116.238281 58.46875 116.429688 C 58.191406 116.625 57.9375 116.839844 57.703125 117.085938 C 57.46875 117.328125 57.261719 117.59375 57.082031 117.875 C 56.898438 118.160156 56.746094 118.460938 56.625 118.773438 C 56.5 119.089844 56.410156 119.410156 56.351562 119.742188 L 53.222656 137.195312 C 52.609375 137.042969 52.015625 136.84375 51.433594 136.59375 C 50.855469 136.34375 50.304688 136.046875 49.773438 135.703125 C 49.246094 135.359375 48.746094 134.976562 48.28125 134.550781 C 47.816406 134.125 47.390625 133.664062 47.003906 133.167969 C 46.613281 132.671875 46.269531 132.144531 45.96875 131.589844 C 45.667969 131.035156 45.417969 130.460938 45.210938 129.863281 C 45.007812 129.269531 44.855469 128.660156 44.75 128.039062 C 44.648438 127.414062 44.597656 126.789062 44.597656 126.160156 L 44.597656 124.054688 C 44.597656 123.132812 44.644531 122.214844 44.734375 121.300781 C 44.824219 120.386719 44.957031 119.476562 45.136719 118.574219 C 45.316406 117.671875 45.539062 116.78125 45.804688 115.898438 C 46.074219 115.019531 46.382812 114.152344 46.734375 113.300781 C 47.085938 112.453125 47.476562 111.621094 47.910156 110.808594 C 48.34375 109.996094 48.816406 109.210938 49.328125 108.445312 C 49.839844 107.679688 50.386719 106.941406 50.96875 106.226562 C 51.550781 105.515625 52.167969 104.835938 52.816406 104.183594 C 53.46875 103.53125 54.148438 102.914062 54.859375 102.328125 C 55.570312 101.746094 56.308594 101.195312 57.070312 100.683594 C 57.835938 100.171875 58.625 99.699219 59.433594 99.265625 C 60.246094 98.828125 61.078125 98.4375 61.925781 98.082031 C 62.777344 97.730469 63.640625 97.417969 64.519531 97.148438 C 65.402344 96.882812 66.292969 96.65625 67.195312 96.476562 C 68.097656 96.292969 69.003906 96.160156 69.921875 96.066406 C 70.835938 95.976562 71.753906 95.929688 72.675781 95.925781 L 91.460938 95.925781 C 92.378906 95.929688 93.296875 95.976562 94.214844 96.070312 C 95.128906 96.164062 96.035156 96.300781 96.9375 96.484375 C 97.839844 96.667969 98.730469 96.890625 99.609375 97.160156 C 100.488281 97.429688 101.351562 97.742188 102.203125 98.097656 C 103.050781 98.449219 103.878906 98.84375 104.691406 99.28125 C 105.5 99.714844 106.289062 100.1875 107.050781 100.699219 C 107.816406 101.210938 108.550781 101.761719 109.261719 102.34375 C 109.972656 102.929688 110.652344 103.546875 111.300781 104.199219 C 111.953125 104.847656 112.570312 105.53125 113.152344 106.242188 C 113.734375 106.953125 114.28125 107.691406 114.792969 108.457031 C 115.304688 109.21875 115.777344 110.007812 116.210938 110.820312 C 116.644531 111.628906 117.035156 112.460938 117.386719 113.308594 C 117.742188 114.160156 118.050781 115.023438 118.316406 115.90625 C 118.585938 116.785156 118.808594 117.675781 118.992188 118.578125 C 119.171875 119.480469 119.308594 120.386719 119.398438 121.300781 C 119.488281 122.21875 119.535156 123.136719 119.539062 124.054688 L 119.539062 126.160156 C 119.535156 126.792969 119.476562 127.421875 119.371094 128.046875 C 119.261719 128.671875 119.101562 129.285156 118.894531 129.882812 C 118.683594 130.484375 118.425781 131.058594 118.121094 131.617188 C 117.816406 132.171875 117.46875 132.699219 117.074219 133.199219 C 116.683594 133.695312 116.253906 134.160156 115.785156 134.585938 C 115.316406 135.015625 114.8125 135.398438 114.28125 135.746094 C 113.75 136.089844 113.191406 136.386719 112.609375 136.640625 C 112.027344 136.890625 111.425781 137.09375 110.8125 137.246094 L 107.679688 119.742188 C 107.621094 119.40625 107.53125 119.078125 107.40625 118.757812 C 107.285156 118.441406 107.128906 118.136719 106.945312 117.847656 C 106.761719 117.558594 106.554688 117.289062 106.316406 117.042969 C 106.082031 116.796875 105.824219 116.574219 105.542969 116.375 C 105.261719 116.179688 104.964844 116.011719 104.652344 115.875 C 104.339844 115.738281 104.015625 115.628906 103.683594 115.554688 C 103.347656 115.480469 103.011719 115.441406 102.667969 115.433594 C 102.328125 115.425781 101.988281 115.449219 101.648438 115.507812 C 101.3125 115.566406 100.984375 115.660156 100.664062 115.78125 C 100.347656 115.90625 100.042969 116.058594 99.753906 116.242188 C 99.464844 116.425781 99.195312 116.636719 98.949219 116.871094 C 98.703125 117.109375 98.480469 117.367188 98.285156 117.648438 C 98.085938 117.925781 97.917969 118.222656 97.78125 118.535156 C 97.644531 118.851562 97.535156 119.171875 97.460938 119.507812 C 97.386719 119.839844 97.347656 120.179688 97.339844 120.519531 C 97.332031 120.863281 97.355469 121.203125 97.414062 121.539062 L 100.804688 140.378906 C 94.753906 142.871094 88.457031 144.121094 81.914062 144.125 C 75.335938 144.09375 69.007812 142.828125 62.921875 140.324219 L 66.257812 121.539062 C 66.320312 121.214844 66.347656 120.886719 66.34375 120.558594 C 66.34375 120.226562 66.308594 119.898438 66.242188 119.574219 C 66.175781 119.253906 66.078125 118.9375 65.953125 118.632812 C 65.828125 118.328125 65.671875 118.039062 65.488281 117.761719 C 65.304688 117.488281 65.097656 117.230469 64.867188 116.996094 C 64.632812 116.761719 64.382812 116.550781 64.109375 116.363281 C 63.835938 116.175781 63.546875 116.019531 63.246094 115.886719 C 62.941406 115.757812 62.628906 115.65625 62.304688 115.585938 Z M 311.917969 263.875 C 312.730469 263.21875 313.503906 262.523438 314.242188 261.785156 C 314.980469 261.050781 315.679688 260.277344 316.339844 259.46875 C 317 258.660156 317.617188 257.824219 318.1875 256.953125 C 318.761719 256.082031 319.289062 255.183594 319.769531 254.257812 C 320.25 253.332031 320.683594 252.382812 321.070312 251.414062 C 321.453125 250.445312 321.785156 249.457031 322.070312 248.453125 C 322.351562 247.453125 322.582031 246.4375 322.761719 245.40625 C 322.9375 244.378906 323.066406 243.347656 323.136719 242.304688 C 323.210938 241.265625 323.230469 240.226562 323.195312 239.183594 C 323.160156 238.140625 323.074219 237.101562 322.929688 236.070312 C 322.789062 235.035156 322.597656 234.011719 322.351562 233 C 322.105469 231.984375 321.808594 230.988281 321.460938 230.003906 C 321.113281 229.019531 320.714844 228.058594 320.265625 227.117188 C 319.820312 226.175781 319.324219 225.257812 318.785156 224.367188 C 318.242188 223.476562 317.660156 222.613281 317.027344 221.78125 C 316.398438 220.949219 315.730469 220.152344 315.015625 219.390625 C 314.304688 218.628906 313.558594 217.902344 312.773438 217.21875 C 311.984375 216.53125 311.167969 215.890625 310.316406 215.285156 C 309.464844 214.683594 308.582031 214.128906 307.675781 213.617188 C 306.765625 213.105469 305.832031 212.640625 304.878906 212.226562 C 303.921875 211.808594 302.945312 211.445312 301.953125 211.128906 C 300.957031 210.8125 299.949219 210.550781 298.929688 210.335938 C 297.910156 210.125 296.878906 209.964844 295.84375 209.859375 C 294.804688 209.75 293.765625 209.699219 292.722656 209.699219 C 291.679688 209.699219 290.636719 209.75 289.601562 209.859375 C 288.5625 209.964844 287.535156 210.125 286.511719 210.335938 C 285.492188 210.550781 284.484375 210.8125 283.492188 211.128906 C 282.496094 211.445312 281.523438 211.808594 280.566406 212.226562 C 279.609375 212.640625 278.675781 213.105469 277.769531 213.617188 C 276.859375 214.128906 275.980469 214.683594 275.128906 215.285156 C 274.277344 215.890625 273.457031 216.53125 272.671875 217.21875 C 271.886719 217.902344 271.136719 218.628906 270.425781 219.390625 C 269.714844 220.152344 269.042969 220.949219 268.414062 221.78125 C 267.785156 222.613281 267.199219 223.476562 266.660156 224.367188 C 266.117188 225.257812 265.625 226.175781 265.175781 227.117188 C 264.730469 228.058594 264.332031 229.019531 263.984375 230.003906 C 263.636719 230.988281 263.335938 231.984375 263.09375 233 C 262.847656 234.011719 262.652344 235.035156 262.511719 236.070312 C 262.371094 237.101562 262.28125 238.140625 262.25 239.183594 C 262.214844 240.226562 262.234375 241.265625 262.304688 242.304688 C 262.378906 243.347656 262.503906 244.378906 262.683594 245.40625 C 262.859375 246.4375 263.089844 247.453125 263.375 248.453125 C 263.65625 249.457031 263.992188 250.445312 264.375 251.414062 C 264.757812 252.382812 265.191406 253.332031 265.671875 254.257812 C 266.152344 255.183594 266.679688 256.082031 267.253906 256.953125 C 267.828125 257.824219 268.445312 258.660156 269.105469 259.46875 C 269.761719 260.277344 270.460938 261.050781 271.203125 261.785156 C 271.941406 262.523438 272.714844 263.21875 273.523438 263.875 C 272.511719 264.144531 271.511719 264.453125 270.523438 264.804688 C 269.535156 265.15625 268.5625 265.546875 267.605469 265.976562 C 266.652344 266.410156 265.714844 266.878906 264.796875 267.382812 C 263.878906 267.890625 262.984375 268.4375 262.113281 269.015625 C 261.238281 269.597656 260.390625 270.214844 259.570312 270.863281 C 258.746094 271.511719 257.953125 272.195312 257.1875 272.910156 C 256.417969 273.625 255.683594 274.371094 254.976562 275.148438 C 254.273438 275.921875 253.601562 276.726562 252.960938 277.558594 C 252.320312 278.386719 251.714844 279.242188 251.144531 280.125 C 250.578125 281.003906 250.042969 281.90625 249.546875 282.828125 C 249.054688 283.753906 248.59375 284.695312 248.175781 285.65625 C 247.757812 286.617188 247.378906 287.59375 247.042969 288.585938 C 246.703125 289.578125 246.40625 290.582031 246.148438 291.601562 C 245.894531 292.617188 245.679688 293.640625 245.507812 294.675781 C 245.335938 295.710938 245.207031 296.75 245.117188 297.792969 C 245.03125 298.839844 244.988281 299.886719 244.984375 300.933594 L 244.984375 303.039062 C 244.980469 304.46875 245.113281 305.886719 245.386719 307.289062 C 245.664062 308.691406 246.074219 310.054688 246.621094 311.378906 C 247.167969 312.699219 247.839844 313.953125 248.632812 315.144531 C 249.429688 316.332031 250.335938 317.429688 251.351562 318.4375 C 253.226562 320.304688 255.371094 321.78125 257.78125 322.867188 C 260.195312 323.957031 262.722656 324.582031 265.363281 324.75 C 267.472656 325.828125 269.640625 326.773438 271.863281 327.59375 C 274.085938 328.414062 276.351562 329.101562 278.652344 329.652344 C 280.957031 330.207031 283.285156 330.621094 285.636719 330.902344 C 287.992188 331.179688 290.351562 331.320312 292.722656 331.320312 C 295.089844 331.320312 297.453125 331.179688 299.804688 330.902344 C 302.15625 330.621094 304.484375 330.207031 306.789062 329.652344 C 309.09375 329.101562 311.355469 328.414062 313.578125 327.59375 C 315.800781 326.773438 317.96875 325.828125 320.078125 324.75 C 320.765625 324.714844 321.445312 324.644531 322.125 324.542969 C 322.804688 324.441406 323.476562 324.304688 324.140625 324.140625 C 324.808594 323.976562 325.464844 323.777344 326.109375 323.550781 C 326.757812 323.324219 327.390625 323.066406 328.015625 322.777344 C 328.636719 322.488281 329.246094 322.171875 329.839844 321.824219 C 330.429688 321.480469 331.003906 321.109375 331.5625 320.707031 C 332.121094 320.308594 332.65625 319.882812 333.175781 319.429688 C 333.691406 318.980469 334.183594 318.503906 334.65625 318.007812 C 335.128906 317.507812 335.578125 316.992188 336 316.449219 C 336.421875 315.910156 336.820312 315.351562 337.1875 314.773438 C 337.558594 314.195312 337.898438 313.601562 338.214844 312.992188 C 338.527344 312.378906 338.808594 311.757812 339.066406 311.121094 C 339.320312 310.480469 339.542969 309.835938 339.734375 309.175781 C 339.929688 308.519531 340.089844 307.851562 340.21875 307.179688 C 340.347656 306.503906 340.445312 305.828125 340.511719 305.144531 C 340.578125 304.460938 340.609375 303.777344 340.613281 303.089844 L 340.613281 300.984375 C 340.609375 299.933594 340.566406 298.882812 340.480469 297.835938 C 340.390625 296.785156 340.261719 295.742188 340.089844 294.707031 C 339.914062 293.667969 339.699219 292.640625 339.441406 291.621094 C 339.183594 290.601562 338.886719 289.59375 338.546875 288.597656 C 338.203125 287.601562 337.824219 286.621094 337.402344 285.660156 C 336.980469 284.695312 336.523438 283.75 336.023438 282.824219 C 335.523438 281.898438 334.988281 280.992188 334.417969 280.109375 C 333.84375 279.226562 333.234375 278.371094 332.589844 277.539062 C 331.949219 276.707031 331.273438 275.902344 330.5625 275.125 C 329.851562 274.347656 329.113281 273.601562 328.339844 272.886719 C 327.570312 272.171875 326.773438 271.488281 325.945312 270.839844 C 325.117188 270.1875 324.265625 269.574219 323.386719 268.992188 C 322.511719 268.414062 321.609375 267.871094 320.6875 267.363281 C 319.765625 266.859375 318.824219 266.390625 317.863281 265.960938 C 316.902344 265.53125 315.925781 265.144531 314.933594 264.796875 C 313.941406 264.449219 312.9375 264.140625 311.917969 263.875 Z M 272.496094 240.261719 C 272.5 239.601562 272.53125 238.941406 272.59375 238.28125 C 272.660156 237.621094 272.757812 236.96875 272.886719 236.316406 C 273.015625 235.667969 273.175781 235.027344 273.367188 234.394531 C 273.5625 233.757812 273.785156 233.136719 274.039062 232.523438 C 274.289062 231.914062 274.574219 231.3125 274.886719 230.730469 C 275.199219 230.144531 275.539062 229.578125 275.90625 229.027344 C 276.273438 228.476562 276.667969 227.945312 277.089844 227.433594 C 277.507812 226.921875 277.953125 226.429688 278.421875 225.964844 C 278.890625 225.496094 279.378906 225.050781 279.890625 224.628906 C 280.402344 224.210938 280.933594 223.816406 281.484375 223.449219 C 282.035156 223.082031 282.605469 222.738281 283.1875 222.429688 C 283.773438 222.117188 284.371094 221.832031 284.980469 221.578125 C 285.59375 221.324219 286.21875 221.101562 286.851562 220.910156 C 287.484375 220.71875 288.125 220.558594 288.777344 220.429688 C 289.425781 220.300781 290.082031 220.203125 290.738281 220.136719 C 291.398438 220.074219 292.058594 220.039062 292.722656 220.039062 C 293.382812 220.039062 294.042969 220.074219 294.703125 220.136719 C 295.363281 220.203125 296.015625 220.300781 296.667969 220.429688 C 297.316406 220.558594 297.957031 220.71875 298.59375 220.910156 C 299.226562 221.101562 299.847656 221.324219 300.460938 221.578125 C 301.074219 221.832031 301.671875 222.117188 302.253906 222.429688 C 302.839844 222.738281 303.40625 223.082031 303.957031 223.449219 C 304.507812 223.816406 305.039062 224.210938 305.550781 224.628906 C 306.0625 225.050781 306.554688 225.496094 307.023438 225.964844 C 307.492188 226.429688 307.933594 226.921875 308.355469 227.433594 C 308.773438 227.945312 309.167969 228.476562 309.535156 229.027344 C 309.90625 229.578125 310.246094 230.144531 310.558594 230.730469 C 310.871094 231.3125 311.152344 231.914062 311.40625 232.523438 C 311.660156 233.136719 311.882812 233.757812 312.074219 234.394531 C 312.265625 235.027344 312.425781 235.667969 312.554688 236.316406 C 312.6875 236.96875 312.78125 237.621094 312.847656 238.28125 C 312.914062 238.941406 312.945312 239.601562 312.945312 240.261719 C 312.945312 240.925781 312.914062 241.585938 312.847656 242.246094 C 312.78125 242.90625 312.6875 243.558594 312.554688 244.207031 C 312.425781 244.859375 312.265625 245.5 312.074219 246.132812 C 311.882812 246.769531 311.660156 247.390625 311.40625 248.003906 C 311.152344 248.613281 310.871094 249.210938 310.558594 249.796875 C 310.246094 250.382812 309.90625 250.949219 309.535156 251.5 C 309.167969 252.050781 308.773438 252.582031 308.355469 253.09375 C 307.933594 253.605469 307.492188 254.09375 307.023438 254.5625 C 306.554688 255.03125 306.0625 255.476562 305.550781 255.898438 C 305.039062 256.316406 304.507812 256.710938 303.957031 257.078125 C 303.40625 257.445312 302.839844 257.785156 302.253906 258.097656 C 301.671875 258.410156 301.074219 258.695312 300.460938 258.949219 C 299.847656 259.199219 299.226562 259.425781 298.59375 259.617188 C 297.957031 259.808594 297.316406 259.96875 296.667969 260.097656 C 296.015625 260.226562 295.363281 260.324219 294.703125 260.390625 C 294.042969 260.453125 293.382812 260.488281 292.722656 260.488281 C 292.058594 260.484375 291.398438 260.453125 290.738281 260.382812 C 290.078125 260.316406 289.421875 260.21875 288.773438 260.089844 C 288.125 259.957031 287.480469 259.796875 286.847656 259.601562 C 286.214844 259.410156 285.589844 259.183594 284.980469 258.929688 C 284.367188 258.675781 283.769531 258.390625 283.183594 258.078125 C 282.601562 257.761719 282.03125 257.421875 281.480469 257.050781 C 280.929688 256.683594 280.398438 256.289062 279.886719 255.867188 C 279.375 255.445312 278.886719 255 278.417969 254.53125 C 277.949219 254.0625 277.507812 253.570312 277.085938 253.058594 C 276.664062 252.542969 276.273438 252.011719 275.90625 251.460938 C 275.535156 250.910156 275.195312 250.339844 274.882812 249.753906 C 274.574219 249.171875 274.289062 248.570312 274.035156 247.960938 C 273.78125 247.347656 273.558594 246.722656 273.367188 246.089844 C 273.175781 245.453125 273.015625 244.8125 272.886719 244.160156 C 272.757812 243.511719 272.660156 242.855469 272.59375 242.195312 C 272.53125 241.535156 272.5 240.875 272.5 240.210938 Z M 330.191406 302.988281 C 330.191406 303.621094 330.136719 304.253906 330.027344 304.878906 C 329.921875 305.503906 329.765625 306.117188 329.554688 306.714844 C 329.347656 307.316406 329.089844 307.894531 328.785156 308.453125 C 328.480469 309.007812 328.132812 309.535156 327.738281 310.035156 C 327.347656 310.535156 326.917969 310.996094 326.445312 311.425781 C 325.976562 311.851562 325.476562 312.238281 324.941406 312.582031 C 324.40625 312.925781 323.847656 313.222656 323.265625 313.472656 C 322.683594 313.722656 322.082031 313.921875 321.464844 314.074219 L 318.335938 296.570312 C 318.277344 296.238281 318.183594 295.917969 318.0625 295.601562 C 317.941406 295.289062 317.789062 294.988281 317.605469 294.703125 C 317.425781 294.421875 317.21875 294.15625 316.984375 293.914062 C 316.75 293.667969 316.496094 293.453125 316.21875 293.257812 C 315.941406 293.066406 315.648438 292.902344 315.339844 292.765625 C 315.03125 292.628906 314.714844 292.527344 314.382812 292.453125 C 314.054688 292.382812 313.722656 292.34375 313.382812 292.335938 C 313.046875 292.328125 312.710938 292.355469 312.378906 292.414062 C 312.046875 292.472656 311.726562 292.5625 311.410156 292.6875 C 311.097656 292.808594 310.796875 292.960938 310.515625 293.140625 C 310.230469 293.324219 309.964844 293.53125 309.722656 293.765625 C 309.480469 293.996094 309.261719 294.253906 309.066406 294.527344 C 308.875 294.804688 308.710938 295.097656 308.574219 295.40625 C 308.441406 295.714844 308.335938 296.035156 308.261719 296.363281 C 308.191406 296.695312 308.152344 297.027344 308.144531 297.363281 C 308.136719 297.699219 308.164062 298.035156 308.222656 298.367188 L 311.609375 317.257812 C 308.605469 318.484375 305.507812 319.414062 302.320312 320.039062 C 299.136719 320.667969 295.917969 320.980469 292.671875 320.980469 C 289.421875 320.980469 286.207031 320.667969 283.019531 320.039062 C 279.832031 319.414062 276.734375 318.484375 273.730469 317.257812 L 277.117188 298.417969 C 277.175781 298.085938 277.203125 297.753906 277.195312 297.414062 C 277.1875 297.078125 277.148438 296.746094 277.078125 296.414062 C 277.003906 296.085938 276.902344 295.765625 276.765625 295.457031 C 276.628906 295.148438 276.464844 294.855469 276.273438 294.582031 C 276.078125 294.304688 275.863281 294.050781 275.617188 293.816406 C 275.375 293.582031 275.109375 293.375 274.828125 293.191406 C 274.542969 293.011719 274.242188 292.859375 273.929688 292.738281 C 273.613281 292.613281 273.292969 292.523438 272.960938 292.464844 C 272.628906 292.40625 272.292969 292.378906 271.957031 292.386719 C 271.617188 292.394531 271.285156 292.433594 270.957031 292.503906 C 270.628906 292.578125 270.308594 292.683594 270 292.816406 C 269.691406 292.953125 269.398438 293.117188 269.121094 293.308594 C 268.84375 293.503906 268.589844 293.722656 268.355469 293.964844 C 268.121094 294.207031 267.914062 294.472656 267.734375 294.753906 C 267.550781 295.039062 267.398438 295.339844 267.277344 295.652344 C 267.15625 295.96875 267.066406 296.289062 267.003906 296.621094 L 263.875 314.074219 C 261.898438 313.566406 260.1875 312.589844 258.742188 311.148438 C 257.667969 310.074219 256.839844 308.832031 256.261719 307.425781 C 255.683594 306.023438 255.398438 304.558594 255.40625 303.039062 L 255.40625 300.933594 C 255.40625 300.015625 255.453125 299.097656 255.546875 298.183594 C 255.636719 297.265625 255.773438 296.359375 255.953125 295.457031 C 256.132812 294.554688 256.359375 293.664062 256.625 292.785156 C 256.894531 291.902344 257.203125 291.039062 257.554688 290.191406 C 257.90625 289.339844 258.300781 288.511719 258.734375 287.699219 C 259.167969 286.886719 259.640625 286.101562 260.152344 285.335938 C 260.660156 284.570312 261.207031 283.832031 261.792969 283.121094 C 262.375 282.410156 262.992188 281.726562 263.640625 281.078125 C 264.289062 280.425781 264.96875 279.808594 265.679688 279.226562 C 266.390625 278.640625 267.128906 278.09375 267.890625 277.578125 C 268.65625 277.066406 269.441406 276.59375 270.253906 276.160156 C 271.0625 275.722656 271.894531 275.328125 272.742188 274.976562 C 273.589844 274.621094 274.453125 274.308594 275.335938 274.039062 C 276.214844 273.769531 277.105469 273.546875 278.003906 273.363281 C 278.90625 273.179688 279.816406 273.042969 280.730469 272.949219 C 281.644531 272.859375 282.5625 272.808594 283.480469 272.804688 L 302.269531 272.804688 C 303.1875 272.808594 304.105469 272.855469 305.023438 272.945312 C 305.9375 273.039062 306.847656 273.175781 307.75 273.355469 C 308.652344 273.535156 309.542969 273.761719 310.421875 274.027344 C 311.300781 274.296875 312.167969 274.609375 313.015625 274.960938 C 313.867188 275.316406 314.695312 275.710938 315.507812 276.144531 C 316.320312 276.578125 317.105469 277.050781 317.871094 277.5625 C 318.636719 278.078125 319.375 278.625 320.085938 279.210938 C 320.792969 279.792969 321.476562 280.410156 322.125 281.0625 C 322.773438 281.714844 323.390625 282.394531 323.976562 283.105469 C 324.558594 283.820312 325.105469 284.558594 325.617188 285.324219 C 326.125 286.089844 326.597656 286.878906 327.03125 287.6875 C 327.464844 288.5 327.859375 289.332031 328.210938 290.183594 C 328.5625 291.03125 328.871094 291.898438 329.136719 292.777344 C 329.402344 293.660156 329.628906 294.550781 329.804688 295.453125 C 329.984375 296.355469 330.121094 297.265625 330.210938 298.179688 C 330.300781 299.097656 330.347656 300.015625 330.34375 300.933594 Z M 117.894531 247.140625 C 117.765625 247.550781 117.660156 247.964844 117.582031 248.382812 C 117.5 248.804688 117.441406 249.226562 117.410156 249.652344 C 117.378906 250.078125 117.371094 250.503906 117.390625 250.933594 C 117.40625 251.359375 117.449219 251.785156 117.515625 252.207031 C 117.582031 252.628906 117.671875 253.046875 117.789062 253.457031 C 117.902344 253.871094 118.039062 254.273438 118.203125 254.671875 C 118.363281 255.066406 118.546875 255.453125 118.753906 255.828125 C 118.960938 256.203125 119.1875 256.5625 119.433594 256.910156 C 119.683594 257.257812 119.949219 257.59375 120.234375 257.910156 C 120.523438 258.226562 120.828125 258.527344 121.148438 258.808594 C 121.46875 259.09375 121.804688 259.355469 122.15625 259.597656 C 122.507812 259.839844 122.871094 260.0625 123.25 260.265625 C 123.628906 260.464844 124.015625 260.644531 124.414062 260.800781 C 124.8125 260.957031 125.21875 261.089844 125.628906 261.199219 C 126.042969 261.308594 126.460938 261.394531 126.886719 261.457031 C 127.308594 261.515625 127.734375 261.554688 128.160156 261.566406 C 129.617188 261.566406 131.019531 261.292969 132.371094 260.742188 L 158.035156 250.476562 C 159.078125 250.023438 160.167969 249.753906 161.304688 249.675781 C 162.441406 249.597656 163.558594 249.710938 164.65625 250.015625 C 172.816406 252.421875 181.148438 253.621094 189.652344 253.609375 C 230.714844 253.609375 263.667969 226.148438 263.667969 192.425781 C 263.667969 158.703125 230.820312 131.085938 190.011719 131.085938 C 149.207031 131.085938 115.945312 158.496094 115.945312 192.015625 C 115.957031 196.632812 116.566406 201.167969 117.777344 205.625 C 118.984375 210.082031 120.753906 214.304688 123.078125 218.292969 C 123.875 219.605469 124.367188 221.019531 124.554688 222.542969 C 124.742188 224.0625 124.609375 225.554688 124.15625 227.019531 Z M 189.753906 141.351562 C 224.863281 141.351562 253.507812 164.195312 253.507812 192.21875 C 253.507812 220.246094 225.121094 243.34375 190.011719 243.34375 C 182.5 243.359375 175.144531 242.296875 167.941406 240.160156 C 165.726562 239.535156 163.472656 239.289062 161.179688 239.421875 C 158.882812 239.550781 156.671875 240.054688 154.542969 240.929688 L 128.878906 251.195312 C 128.589844 251.398438 128.296875 251.398438 128.007812 251.195312 C 127.917969 251.085938 127.871094 250.957031 127.871094 250.8125 C 127.871094 250.667969 127.917969 250.539062 128.007812 250.425781 L 134.320312 230.460938 C 134.746094 229.054688 135.027344 227.625 135.160156 226.164062 C 135.289062 224.703125 135.273438 223.246094 135.105469 221.789062 C 134.9375 220.332031 134.621094 218.90625 134.164062 217.515625 C 133.703125 216.121094 133.105469 214.789062 132.371094 213.519531 C 130.382812 210.285156 128.867188 206.839844 127.820312 203.1875 C 126.773438 199.539062 126.238281 195.8125 126.210938 192.015625 C 126.210938 164.195312 154.851562 141.351562 190.011719 141.351562 Z M 157.160156 171.125 C 157.160156 170.785156 157.195312 170.453125 157.261719 170.121094 C 157.328125 169.792969 157.421875 169.46875 157.550781 169.160156 C 157.683594 168.847656 157.839844 168.550781 158.027344 168.273438 C 158.214844 167.992188 158.425781 167.730469 158.664062 167.492188 C 158.902344 167.253906 159.164062 167.042969 159.441406 166.855469 C 159.722656 166.667969 160.019531 166.511719 160.332031 166.382812 C 160.640625 166.253906 160.964844 166.15625 161.292969 166.089844 C 161.625 166.023438 161.957031 165.992188 162.292969 165.992188 L 215.367188 165.992188 C 215.707031 165.992188 216.039062 166.023438 216.371094 166.089844 C 216.699219 166.15625 217.023438 166.253906 217.332031 166.382812 C 217.644531 166.511719 217.941406 166.667969 218.21875 166.855469 C 218.5 167.042969 218.761719 167.253906 219 167.492188 C 219.238281 167.730469 219.449219 167.992188 219.636719 168.273438 C 219.824219 168.550781 219.980469 168.847656 220.109375 169.160156 C 220.238281 169.46875 220.335938 169.792969 220.402344 170.121094 C 220.46875 170.453125 220.5 170.785156 220.5 171.125 C 220.5 171.460938 220.46875 171.792969 220.402344 172.125 C 220.335938 172.457031 220.238281 172.777344 220.109375 173.085938 C 219.980469 173.398438 219.824219 173.695312 219.636719 173.976562 C 219.449219 174.253906 219.238281 174.515625 219 174.753906 C 218.761719 174.992188 218.5 175.203125 218.21875 175.390625 C 217.941406 175.578125 217.644531 175.738281 217.332031 175.867188 C 217.023438 175.996094 216.699219 176.09375 216.371094 176.15625 C 216.039062 176.222656 215.707031 176.257812 215.367188 176.257812 L 162.550781 176.257812 C 162.214844 176.257812 161.878906 176.222656 161.550781 176.15625 C 161.21875 176.09375 160.898438 175.996094 160.585938 175.867188 C 160.277344 175.738281 159.980469 175.578125 159.699219 175.390625 C 159.417969 175.203125 159.160156 174.992188 158.921875 174.753906 C 158.683594 174.515625 158.472656 174.253906 158.285156 173.976562 C 158.097656 173.695312 157.9375 173.398438 157.808594 173.085938 C 157.679688 172.777344 157.582031 172.457031 157.515625 172.125 C 157.453125 171.792969 157.417969 171.460938 157.417969 171.125 Z M 146.023438 194.066406 C 146.023438 193.730469 146.054688 193.398438 146.121094 193.066406 C 146.1875 192.734375 146.285156 192.414062 146.414062 192.101562 C 146.542969 191.792969 146.703125 191.496094 146.890625 191.214844 C 147.074219 190.9375 147.289062 190.675781 147.527344 190.4375 C 147.765625 190.199219 148.023438 189.988281 148.304688 189.800781 C 148.585938 189.613281 148.882812 189.453125 149.191406 189.324219 C 149.503906 189.195312 149.824219 189.097656 150.15625 189.03125 C 150.484375 188.96875 150.820312 188.933594 151.15625 188.933594 L 226.765625 188.933594 C 227.101562 188.933594 227.433594 188.96875 227.765625 189.03125 C 228.097656 189.097656 228.417969 189.195312 228.726562 189.324219 C 229.039062 189.453125 229.335938 189.613281 229.617188 189.800781 C 229.894531 189.988281 230.15625 190.199219 230.394531 190.4375 C 230.632812 190.675781 230.84375 190.933594 231.03125 191.214844 C 231.21875 191.496094 231.378906 191.792969 231.507812 192.101562 C 231.636719 192.414062 231.734375 192.734375 231.796875 193.066406 C 231.863281 193.398438 231.898438 193.730469 231.898438 194.066406 C 231.898438 194.40625 231.863281 194.738281 231.796875 195.070312 C 231.734375 195.398438 231.636719 195.71875 231.507812 196.03125 C 231.378906 196.34375 231.21875 196.640625 231.03125 196.917969 C 230.84375 197.199219 230.632812 197.457031 230.394531 197.695312 C 230.15625 197.933594 229.894531 198.148438 229.617188 198.335938 C 229.335938 198.523438 229.039062 198.679688 228.726562 198.808594 C 228.417969 198.9375 228.097656 199.035156 227.765625 199.101562 C 227.433594 199.167969 227.101562 199.199219 226.765625 199.199219 L 151.15625 199.199219 C 150.820312 199.199219 150.484375 199.167969 150.15625 199.101562 C 149.824219 199.035156 149.503906 198.9375 149.191406 198.808594 C 148.882812 198.679688 148.585938 198.523438 148.304688 198.335938 C 148.023438 198.148438 147.765625 197.933594 147.527344 197.695312 C 147.289062 197.457031 147.074219 197.199219 146.890625 196.917969 C 146.703125 196.640625 146.542969 196.34375 146.414062 196.03125 C 146.285156 195.71875 146.1875 195.398438 146.121094 195.070312 C 146.054688 194.738281 146.023438 194.40625 146.023438 194.066406 Z M 220.5 217.011719 C 220.5 217.347656 220.46875 217.683594 220.402344 218.011719 C 220.335938 218.34375 220.238281 218.664062 220.109375 218.976562 C 219.980469 219.285156 219.824219 219.582031 219.636719 219.863281 C 219.449219 220.144531 219.238281 220.402344 219 220.640625 C 218.761719 220.878906 218.5 221.09375 218.21875 221.277344 C 217.941406 221.464844 217.644531 221.625 217.332031 221.753906 C 217.023438 221.882812 216.699219 221.980469 216.371094 222.046875 C 216.039062 222.113281 215.707031 222.144531 215.367188 222.144531 L 162.550781 222.144531 C 162.214844 222.144531 161.878906 222.113281 161.550781 222.046875 C 161.21875 221.980469 160.898438 221.882812 160.585938 221.753906 C 160.277344 221.625 159.980469 221.464844 159.699219 221.277344 C 159.417969 221.09375 159.160156 220.878906 158.921875 220.640625 C 158.683594 220.402344 158.472656 220.144531 158.285156 219.863281 C 158.097656 219.582031 157.9375 219.285156 157.808594 218.976562 C 157.679688 218.664062 157.582031 218.34375 157.515625 218.011719 C 157.453125 217.683594 157.417969 217.347656 157.417969 217.011719 C 157.417969 216.675781 157.453125 216.339844 157.515625 216.011719 C 157.582031 215.679688 157.679688 215.359375 157.808594 215.046875 C 157.9375 214.734375 158.097656 214.441406 158.285156 214.160156 C 158.472656 213.878906 158.683594 213.621094 158.921875 213.382812 C 159.160156 213.144531 159.417969 212.929688 159.699219 212.742188 C 159.980469 212.554688 160.277344 212.398438 160.585938 212.269531 C 160.898438 212.140625 161.21875 212.042969 161.550781 211.976562 C 161.878906 211.910156 162.214844 211.878906 162.550781 211.878906 L 215.367188 211.878906 C 215.707031 211.878906 216.039062 211.910156 216.371094 211.976562 C 216.699219 212.042969 217.023438 212.140625 217.332031 212.269531 C 217.644531 212.398438 217.941406 212.554688 218.21875 212.742188 C 218.5 212.929688 218.761719 213.144531 219 213.382812 C 219.238281 213.621094 219.449219 213.878906 219.636719 214.160156 C 219.824219 214.441406 219.980469 214.734375 220.109375 215.046875 C 220.238281 215.359375 220.335938 215.679688 220.402344 216.011719 C 220.46875 216.339844 220.5 216.675781 220.5 217.011719 Z M 208.800781 304.269531 C 209.148438 304.84375 209.46875 305.4375 209.757812 306.042969 C 210.046875 306.648438 210.304688 307.269531 210.535156 307.902344 C 210.761719 308.535156 210.953125 309.179688 211.117188 309.832031 C 211.277344 310.484375 211.40625 311.144531 211.5 311.808594 C 211.59375 312.476562 211.65625 313.144531 211.683594 313.816406 C 211.707031 314.488281 211.699219 315.160156 211.660156 315.832031 C 211.617188 316.503906 211.542969 317.167969 211.433594 317.832031 C 211.324219 318.496094 211.179688 319.152344 211.003906 319.800781 C 210.828125 320.453125 210.621094 321.089844 210.378906 321.71875 C 210.136719 322.34375 209.867188 322.960938 209.5625 323.558594 C 209.261719 324.160156 208.925781 324.742188 208.5625 325.308594 C 208.203125 325.875 207.8125 326.421875 207.394531 326.949219 C 206.976562 327.476562 206.53125 327.980469 206.0625 328.460938 C 205.59375 328.945312 205.101562 329.402344 204.585938 329.832031 C 204.070312 330.265625 203.535156 330.667969 202.976562 331.046875 C 202.421875 331.421875 201.84375 331.773438 201.253906 332.089844 L 185.855469 340.253906 C 185.558594 340.414062 185.25 340.542969 184.925781 340.640625 C 184.605469 340.738281 184.277344 340.808594 183.941406 340.839844 C 183.605469 340.875 183.269531 340.878906 182.933594 340.84375 C 182.597656 340.8125 182.269531 340.75 181.945312 340.652344 C 181.625 340.558594 181.3125 340.429688 181.015625 340.273438 C 180.71875 340.113281 180.4375 339.929688 180.175781 339.714844 C 179.914062 339.503906 179.675781 339.265625 179.460938 339.007812 C 179.246094 338.75 179.058594 338.46875 178.898438 338.171875 C 178.738281 337.875 178.609375 337.566406 178.511719 337.246094 C 178.410156 336.921875 178.34375 336.59375 178.3125 336.257812 C 178.277344 335.925781 178.273438 335.589844 178.304688 335.253906 C 178.339844 334.917969 178.402344 334.589844 178.5 334.265625 C 178.59375 333.941406 178.722656 333.632812 178.878906 333.335938 C 179.039062 333.035156 179.222656 332.757812 179.4375 332.496094 C 179.648438 332.234375 179.882812 331.996094 180.144531 331.78125 C 180.402344 331.566406 180.683594 331.378906 180.980469 331.21875 L 196.121094 323.058594 C 197.164062 322.492188 198.070312 321.753906 198.839844 320.851562 C 144.433594 317.410156 105.269531 300.316406 82.53125 269.984375 C 51.734375 228.917969 62.410156 179.847656 62.871094 177.589844 C 62.953125 177.253906 63.070312 176.925781 63.21875 176.609375 C 63.367188 176.296875 63.546875 176 63.757812 175.722656 C 63.96875 175.441406 64.203125 175.1875 64.464844 174.957031 C 64.726562 174.726562 65.007812 174.527344 65.308594 174.351562 C 65.613281 174.179688 65.929688 174.039062 66.261719 173.929688 C 66.59375 173.824219 66.929688 173.75 67.277344 173.710938 C 67.625 173.671875 67.96875 173.667969 68.316406 173.699219 C 68.664062 173.730469 69.003906 173.792969 69.339844 173.894531 C 69.667969 173.96875 69.984375 174.074219 70.292969 174.207031 C 70.601562 174.34375 70.890625 174.507812 71.167969 174.699219 C 71.441406 174.894531 71.699219 175.109375 71.929688 175.355469 C 72.164062 175.597656 72.371094 175.859375 72.550781 176.144531 C 72.730469 176.425781 72.882812 176.726562 73.007812 177.039062 C 73.128906 177.351562 73.21875 177.671875 73.277344 178.003906 C 73.335938 178.335938 73.363281 178.667969 73.355469 179.007812 C 73.351562 179.34375 73.3125 179.675781 73.238281 180.003906 C 73.238281 180.464844 63.28125 226.917969 91.101562 263.875 C 111.992188 291.695312 148.589844 307.402344 199.765625 310.585938 C 200.132812 310.65625 200.492188 310.757812 200.84375 310.890625 C 200.691406 310.4375 200.484375 310.011719 200.226562 309.609375 L 189.960938 292.773438 C 189.726562 292.199219 189.597656 291.605469 189.578125 290.984375 C 189.554688 290.367188 189.644531 289.761719 189.84375 289.175781 C 190.042969 288.589844 190.335938 288.054688 190.726562 287.574219 C 191.117188 287.09375 191.582031 286.699219 192.117188 286.386719 C 192.648438 286.074219 193.222656 285.863281 193.832031 285.757812 C 194.445312 285.652344 195.054688 285.660156 195.660156 285.773438 C 196.269531 285.890625 196.839844 286.105469 197.367188 286.429688 C 197.898438 286.75 198.355469 287.152344 198.738281 287.640625 Z M 290.925781 191.65625 C 290.925781 153.671875 274.140625 88.996094 162.601562 81.914062 L 161.523438 81.605469 C 161.523438 82.015625 161.882812 82.476562 162.140625 82.890625 L 171.996094 99.621094 C 172.175781 99.910156 172.324219 100.210938 172.441406 100.53125 C 172.558594 100.847656 172.644531 101.171875 172.699219 101.507812 C 172.753906 101.839844 172.773438 102.175781 172.761719 102.515625 C 172.746094 102.855469 172.703125 103.1875 172.621094 103.515625 C 172.542969 103.84375 172.433594 104.164062 172.292969 104.472656 C 172.152344 104.777344 171.980469 105.070312 171.78125 105.34375 C 171.582031 105.617188 171.359375 105.867188 171.109375 106.097656 C 170.859375 106.328125 170.589844 106.53125 170.300781 106.707031 C 169.480469 107.195312 168.589844 107.433594 167.632812 107.425781 C 166.730469 107.429688 165.886719 107.210938 165.101562 106.773438 C 164.316406 106.335938 163.6875 105.730469 163.21875 104.960938 L 152.953125 88.175781 C 152.257812 87.035156 151.683594 85.835938 151.230469 84.578125 C 150.777344 83.316406 150.457031 82.027344 150.265625 80.703125 C 150.078125 79.378906 150.023438 78.050781 150.101562 76.714844 C 150.183594 75.382812 150.398438 74.066406 150.746094 72.777344 C 151.101562 71.480469 151.585938 70.230469 152.195312 69.027344 C 152.804688 67.828125 153.53125 66.699219 154.367188 65.648438 C 155.207031 64.59375 156.140625 63.632812 157.171875 62.769531 C 158.207031 61.902344 159.3125 61.148438 160.5 60.507812 L 175.640625 52.347656 C 175.9375 52.1875 176.246094 52.058594 176.570312 51.960938 C 176.890625 51.859375 177.21875 51.792969 177.554688 51.757812 C 177.890625 51.726562 178.226562 51.722656 178.5625 51.753906 C 178.894531 51.785156 179.226562 51.851562 179.546875 51.949219 C 179.871094 52.042969 180.183594 52.171875 180.480469 52.328125 C 180.777344 52.484375 181.058594 52.671875 181.320312 52.882812 C 181.578125 53.097656 181.816406 53.332031 182.03125 53.59375 C 182.246094 53.851562 182.433594 54.128906 182.59375 54.425781 C 182.753906 54.722656 182.886719 55.03125 182.984375 55.355469 C 183.082031 55.675781 183.148438 56.007812 183.183594 56.339844 C 183.21875 56.675781 183.21875 57.011719 183.1875 57.347656 C 183.15625 57.683594 183.09375 58.011719 182.996094 58.335938 C 182.898438 58.65625 182.773438 58.96875 182.613281 59.265625 C 182.457031 59.5625 182.273438 59.84375 182.058594 60.105469 C 181.847656 60.367188 181.609375 60.605469 181.351562 60.820312 C 181.089844 61.035156 180.8125 61.222656 180.515625 61.382812 L 165.683594 69.441406 C 164.621094 70.007812 163.714844 70.761719 162.960938 71.699219 C 287.539062 79.449219 301.089844 158.136719 301.140625 191.605469 C 301.140625 191.941406 301.105469 192.273438 301.039062 192.605469 C 300.976562 192.9375 300.878906 193.257812 300.75 193.566406 C 300.621094 193.878906 300.460938 194.175781 300.273438 194.457031 C 300.085938 194.734375 299.875 194.996094 299.636719 195.234375 C 299.398438 195.472656 299.136719 195.683594 298.859375 195.871094 C 298.578125 196.058594 298.28125 196.21875 297.972656 196.347656 C 297.660156 196.476562 297.339844 196.570312 297.007812 196.636719 C 296.675781 196.703125 296.34375 196.738281 296.007812 196.738281 C 295.671875 196.738281 295.339844 196.703125 295.011719 196.640625 C 294.683594 196.574219 294.363281 196.476562 294.054688 196.351562 C 293.746094 196.222656 293.449219 196.066406 293.171875 195.882812 C 292.890625 195.695312 292.632812 195.488281 292.394531 195.25 C 292.15625 195.015625 291.945312 194.757812 291.757812 194.480469 C 291.570312 194.203125 291.410156 193.910156 291.277344 193.601562 C 291.148438 193.296875 291.050781 192.976562 290.980469 192.648438 C 290.914062 192.320312 290.878906 191.988281 290.875 191.65625 Z M 290.925781 191.65625 " fill-opacity="1" fill-rule="nonzero"/></g></svg>