<?xml version="1.0" standalone="no"?>
<!DOCTYPE svg PUBLIC "-//W3C//DTD SVG 20010904//EN"
 "http://www.w3.org/TR/2001/REC-SVG-20010904/DTD/svg10.dtd">
<svg version="1.0" xmlns="http://www.w3.org/2000/svg"
 width="256.000000pt" height="256.000000pt" viewBox="0 0 256.000000 256.000000"
 preserveAspectRatio="xMidYMid meet">

<g transform="translate(0.000000,256.000000) scale(0.100000,-0.100000)"
fill="#000000" stroke="none">
<path d="M1940 2551 c-14 -4 -69 -27 -124 -50 -73 -32 -109 -42 -140 -40 -70
5 -83 -5 -106 -79 -12 -37 -26 -115 -33 -173 l-11 -106 -46 18 c-94 36 -201
52 -340 52 -149 0 -226 -13 -360 -62 -511 -187 -789 -743 -636 -1272 l23 -78
-43 -43 c-26 -26 -46 -56 -50 -76 -7 -33 -2 -38 297 -338 256 -255 309 -304
333 -304 21 0 45 16 95 65 l68 65 69 -16 c88 -22 320 -22 414 -1 l65 15 67
-64 c95 -92 94 -92 251 65 117 117 128 131 118 150 -7 11 -19 21 -29 21 -9 0
-67 -51 -129 -112 l-113 -113 -97 98 -98 97 280 280 280 280 92 -92 c51 -51
93 -97 93 -103 0 -6 -50 -60 -110 -120 -89 -89 -110 -115 -108 -135 6 -53 36
-36 169 96 153 153 156 161 83 235 l-47 47 29 99 c27 93 29 108 28 283 0 170
-2 192 -26 270 -15 47 -26 85 -25 86 9 3 100 75 130 103 95 88 179 230 211
353 33 127 29 296 -9 425 -23 78 -34 88 -98 85 -45 -2 -72 5 -162 44 -111 48
-200 64 -255 45z m216 -111 c95 -41 164 -60 198 -57 34 3 49 -68 50 -238 0
-165 -12 -218 -77 -335 -40 -72 -186 -217 -260 -259 l-58 -33 -57 34 c-31 18
-96 71 -143 118 -147 145 -207 302 -196 509 8 135 26 207 53 204 34 -3 104 17
197 57 124 53 168 53 293 0z m-821 -359 c50 -10 116 -29 149 -42 l59 -24 18
-73 c46 -184 180 -351 370 -465 51 -30 71 -37 96 -32 31 5 33 4 44 -37 50
-184 51 -356 2 -531 l-16 -58 -43 42 c-47 46 -90 55 -123 25 -16 -15 -20 -13
-46 14 l-28 30 86 89 c102 105 119 146 92 216 -20 53 -42 73 -96 89 -36 11
-45 18 -50 42 -13 63 -49 100 -111 113 -27 6 -34 13 -39 40 -11 51 -40 84 -96
106 -45 18 -51 24 -61 62 -20 74 -109 120 -183 94 -28 -9 -35 -8 -60 14 -39
32 -76 38 -205 32 -123 -6 -199 -18 -231 -35 -32 -18 -62 -60 -69 -97 -5 -28
-11 -34 -39 -39 -58 -11 -115 -73 -115 -125 0 -14 -9 -21 -32 -26 -76 -16
-118 -70 -118 -151 0 -48 -2 -52 -30 -64 -41 -17 -72 -62 -77 -114 -6 -54 10
-86 76 -151 28 -27 51 -54 51 -60 0 -20 -88 -98 -102 -91 -7 4 -24 13 -37 20
-30 18 -68 6 -106 -34 -34 -36 -41 -37 -49 -7 -40 141 -50 344 -22 472 86 402
400 701 806 768 71 12 251 5 335 -12z m-79 -345 c18 -14 17 -17 -36 -71 l-55
-57 -59 4 c-73 5 -106 36 -106 99 l0 39 118 0 c87 0 123 -4 138 -14z m-332
-48 c15 -96 80 -148 184 -148 55 0 60 -2 99 -42 53 -54 61 -85 33 -121 -15
-19 -31 -27 -53 -27 -27 0 -51 19 -174 142 -119 119 -143 148 -143 172 0 27
24 66 40 66 4 0 10 -19 14 -42z m528 5 c22 -20 23 -66 2 -98 -30 -46 15 -84
60 -50 31 24 72 19 95 -11 25 -32 26 -52 5 -82 -20 -28 -15 -66 10 -70 10 -2
34 4 52 14 31 17 37 17 62 4 40 -23 50 -61 27 -103 -32 -59 -1 -85 61 -52 49
25 104 -6 104 -58 0 -26 -23 -54 -150 -182 -82 -83 -150 -158 -150 -166 0 -18
19 -39 37 -39 7 0 31 16 53 37 l41 36 30 -29 30 -28 -198 -198 -198 -198 -107
107 c-59 59 -105 109 -103 112 3 2 64 7 137 10 154 8 211 26 216 72 4 37 -19
42 -88 19 -43 -14 -86 -20 -154 -20 -150 0 -184 -17 -337 -167 -69 -67 -130
-123 -135 -123 -5 0 -94 84 -197 188 l-187 187 52 52 c50 48 55 51 88 44 67
-14 138 15 161 67 12 29 15 30 68 25 69 -5 117 17 146 70 19 34 21 35 65 31
61 -7 108 19 138 77 12 24 21 55 20 69 -2 20 4 29 37 45 51 26 85 76 85 127 0
48 -12 72 -58 121 l-36 37 69 70 c75 75 109 88 147 53z m-480 -270 c132 -132
158 -163 158 -187 0 -41 -26 -66 -68 -66 -32 0 -49 13 -180 143 -130 129 -172
179 -172 205 0 5 9 21 21 36 14 18 30 26 52 26 28 0 52 -21 189 -157z m-175
-126 c106 -106 133 -138 133 -160 0 -34 -40 -77 -72 -77 -32 0 -298 267 -298
300 0 34 37 70 74 70 25 0 51 -21 163 -133z m-159 -151 c89 -91 97 -112 57
-151 -40 -41 -68 -33 -147 43 -72 68 -100 113 -90 141 11 32 36 51 67 51 26 0
45 -14 113 -84z m169 -973 l-97 -98 -280 280 -280 280 97 97 98 98 280 -280
280 -280 -98 -97z m450 305 l112 -112 -30 -33 c-34 -40 -38 -79 -9 -116 l21
-26 -38 -8 c-49 -10 -297 -10 -346 0 l-38 8 26 30 c34 41 32 62 -12 110 l-37
41 110 109 c61 60 115 109 120 109 5 0 59 -50 121 -112z"/>
<path d="M1920 2335 c-123 -41 -205 -156 -204 -286 2 -123 83 -237 196 -275
62 -20 177 -15 227 10 86 45 169 157 141 191 -23 28 -49 17 -81 -35 -44 -72
-104 -105 -189 -105 -71 1 -107 15 -154 62 -82 80 -88 208 -14 297 83 101 248
102 335 2 18 -20 36 -48 39 -61 7 -29 35 -48 57 -39 61 23 -24 169 -128 219
-68 34 -160 41 -225 20z"/>
<path d="M2056 2091 l-60 -60 -47 44 c-27 25 -54 45 -62 45 -18 0 -37 -20 -37
-40 0 -23 122 -140 146 -140 11 0 52 33 98 79 61 61 77 83 74 102 -2 17 -10
25 -28 27 -19 2 -39 -11 -84 -57z"/>
</g>
</svg>
