<?xml version="1.0" standalone="no"?>
<!DOCTYPE svg PUBLIC "-//W3C//DTD SVG 20010904//EN"
 "http://www.w3.org/TR/2001/REC-SVG-20010904/DTD/svg10.dtd">
<svg version="1.0" xmlns="http://www.w3.org/2000/svg"
 width="256.000000pt" height="256.000000pt" viewBox="0 0 256.000000 256.000000"
 preserveAspectRatio="xMidYMid meet">

<g transform="translate(0.000000,256.000000) scale(0.100000,-0.100000)"
fill="#000000" stroke="none">
<path d="M1862 2508 c-7 -7 -12 -20 -12 -30 0 -59 -63 -128 -117 -128 -13 0
-32 -9 -43 -20 -29 -29 -12 -55 44 -69 63 -15 96 -47 110 -106 7 -27 20 -54
29 -59 25 -16 51 5 58 45 11 70 44 104 115 122 45 11 49 14 49 42 0 28 -4 31
-49 42 -70 17 -116 67 -116 126 0 27 -17 47 -40 47 -9 0 -21 -5 -28 -12z m56
-181 l22 -23 -25 -24 -25 -23 -25 23 -25 24 22 23 c12 13 24 23 28 23 4 0 16
-10 28 -23z"/>
<path d="M1138 2423 c0 -5 -2 -89 -2 -188 -1 -198 -13 -253 -67 -318 l-27 -32
-57 62 c-67 74 -179 137 -236 131 l-34 -3 0 -210 c-1 -238 -11 -292 -85 -456
-69 -154 -84 -223 -85 -389 0 -173 14 -237 84 -385 71 -149 166 -260 303 -353
l47 -32 3 -97 c2 -78 6 -98 20 -107 13 -8 23 -8 35 0 16 10 18 34 21 222 l2
211 -50 89 -50 88 0 243 0 243 36 64 c20 36 42 71 50 78 13 13 102 32 110 23
5 -5 64 -332 64 -354 0 -9 -15 -13 -44 -13 l-44 0 -11 63 c-6 34 -13 82 -17
107 -4 25 -11 53 -16 63 -11 21 -54 22 -66 1 -13 -23 32 -272 53 -293 12 -12
36 -16 101 -16 78 0 87 2 105 24 10 13 19 36 19 52 0 27 3 29 40 29 36 0 41
-4 65 -45 46 -77 121 -122 193 -113 21 2 28 -2 30 -17 2 -16 -6 -24 -35 -34
-84 -29 -183 -83 -201 -109 -32 -46 -52 -118 -38 -137 23 -31 59 -15 77 34 22
61 49 81 172 130 68 28 108 49 112 61 3 10 1 36 -4 59 -10 45 -15 40 69 61 25
7 51 17 58 22 17 14 15 43 -3 58 -13 11 -38 7 -141 -20 -119 -32 -127 -32
-158 -17 -18 8 -42 31 -53 50 l-21 35 187 71 c203 78 224 81 261 34 18 -23 20
-41 20 -191 l0 -166 -155 -156 -155 -156 0 -186 c0 -160 2 -187 16 -192 42
-16 64 11 64 77 l0 52 63 23 c115 41 215 108 317 211 82 82 103 110 142 191
63 129 79 198 85 366 9 233 -41 452 -152 675 -77 154 -210 349 -238 349 -34
-1 -40 -18 -42 -121 -2 -57 -6 -112 -10 -122 -15 -37 -40 -12 -71 73 -105 290
-282 483 -536 584 -65 25 -116 34 -120 19z m201 -146 c181 -103 312 -274 391
-511 29 -87 56 -116 107 -116 21 0 49 7 62 16 28 20 51 72 51 114 0 16 3 30 8
30 4 0 26 -30 49 -67 106 -174 179 -362 209 -537 24 -146 16 -352 -20 -461
-62 -193 -195 -342 -396 -443 -46 -23 -88 -42 -92 -42 -4 0 -8 30 -8 68 l0 67
141 140 c77 77 147 152 155 167 20 39 20 367 -1 407 -16 33 -65 77 -95 86 -19
6 -20 15 -20 136 0 124 -1 131 -24 154 l-24 24 -312 0 -312 0 -24 -24 c-16
-16 -24 -35 -24 -58 l0 -34 -74 -12 c-86 -14 -93 -20 -160 -137 l-46 -81 0
-263 0 -264 50 -88 c43 -76 50 -95 50 -143 0 -30 -4 -55 -9 -55 -21 0 -174
156 -217 222 -149 224 -175 517 -68 763 88 199 114 318 114 516 0 85 4 129 11
129 26 0 106 -69 151 -131 30 -41 58 -69 68 -69 30 0 109 86 141 153 39 84 51
157 47 288 l-3 110 25 -6 c14 -3 58 -25 99 -48z m31 -1038 l0 -190 -42 3 -43
3 -22 125 c-12 69 -22 153 -22 188 l-1 62 65 0 65 0 0 -191z m200 33 l0 -158
-52 -20 c-29 -10 -56 -20 -60 -22 -4 -2 -8 78 -8 177 l0 181 60 0 60 0 0 -158z
m230 45 l0 -114 -68 -26 c-37 -15 -71 -27 -75 -27 -4 0 -7 63 -7 140 l0 140
75 0 75 0 0 -113z"/>
<path d="M1999 2059 c-23 -23 -31 -8 83 -177 121 -179 208 -375 259 -582 20
-83 23 -119 23 -290 0 -184 -2 -200 -28 -285 -34 -113 -91 -221 -161 -309 -46
-57 -53 -71 -44 -88 17 -32 38 -33 71 -2 86 82 182 260 219 405 32 130 37 359
11 514 -43 250 -153 503 -324 741 -32 45 -65 84 -73 88 -9 3 -24 -3 -36 -15z"/>
<path d="M292 1788 c-7 -7 -12 -23 -12 -36 0 -52 -48 -109 -99 -118 -57 -10
-73 -22 -69 -52 3 -22 10 -28 52 -38 62 -16 105 -56 113 -107 6 -40 25 -67 47
-67 20 0 33 20 41 65 9 51 59 100 113 109 22 3 45 12 52 20 17 21 3 55 -26 61
-13 3 -36 8 -51 11 -37 7 -79 57 -88 101 -4 21 -11 44 -17 51 -13 15 -40 16
-56 0z m56 -181 l22 -23 -25 -24 c-14 -13 -26 -22 -28 -19 -1 2 -11 14 -21 27
-18 21 -18 23 -1 42 23 25 27 25 53 -3z"/>
<path d="M456 1317 c-27 -20 -47 -118 -53 -262 -6 -157 17 -287 76 -431 62
-151 197 -335 235 -321 8 3 19 15 25 25 9 17 2 30 -40 83 -183 229 -257 518
-201 790 10 48 16 92 14 98 -7 21 -38 31 -56 18z"/>
</g>
</svg>
