<?xml version="1.0" standalone="no"?>
<!DOCTYPE svg PUBLIC "-//W3C//DTD SVG 20010904//EN"
 "http://www.w3.org/TR/2001/REC-SVG-20010904/DTD/svg10.dtd">
<svg version="1.0" xmlns="http://www.w3.org/2000/svg"
 width="256.000000pt" height="256.000000pt" viewBox="0 0 256.000000 256.000000"
 preserveAspectRatio="xMidYMid meet">

<g transform="translate(0.000000,256.000000) scale(0.100000,-0.100000)"
fill="#000000" stroke="none">
<path d="M1146 2409 c-19 -22 -26 -42 -26 -73 0 -38 -3 -44 -35 -59 -32 -15
-37 -15 -78 3 -46 21 -80 18 -111 -9 -26 -23 -96 -152 -96 -178 0 -36 21 -72
57 -94 28 -18 33 -26 33 -59 0 -33 -5 -41 -35 -60 -68 -42 -71 -85 -15 -187
22 -40 50 -79 62 -87 29 -20 81 -20 120 0 28 15 33 14 64 -2 31 -17 34 -23 34
-62 0 -35 6 -49 29 -73 29 -28 32 -29 131 -29 99 0 102 1 131 29 23 24 29 38
29 73 0 39 3 45 34 62 31 16 36 17 64 2 39 -20 91 -20 120 0 27 19 102 151
102 181 0 36 -21 72 -57 94 -28 18 -33 26 -33 59 0 33 5 41 33 59 36 22 57 58
57 94 0 26 -70 155 -96 178 -31 27 -65 30 -111 9 -41 -18 -46 -18 -78 -3 -32
15 -35 21 -35 59 0 31 -7 51 -26 73 l-26 31 -108 0 -108 0 -26 -31z m214 -104
c0 -52 2 -57 31 -73 17 -9 47 -27 66 -39 42 -28 54 -28 95 -3 18 11 40 20 48
20 18 0 83 -108 76 -126 -2 -6 -23 -22 -45 -35 l-41 -23 0 -86 0 -86 40 -23
c22 -12 42 -26 45 -32 9 -14 -57 -129 -75 -129 -8 0 -28 9 -45 20 -39 26 -56
25 -98 -2 -19 -13 -49 -31 -66 -40 -29 -16 -31 -21 -31 -73 l0 -55 -80 0 -80
0 0 55 c0 52 -2 57 -31 73 -17 9 -47 27 -66 40 -42 27 -54 27 -95 2 -18 -11
-40 -20 -48 -20 -18 0 -84 115 -75 129 3 6 23 20 45 32 l40 23 0 86 0 86 -41
23 c-22 13 -43 29 -45 35 -7 18 58 126 76 126 8 0 30 -9 48 -20 41 -25 53 -25
95 3 19 12 49 30 66 39 29 16 31 21 31 73 l0 55 80 0 80 0 0 -55z"/>
<path d="M1195 2123 c-73 -38 -115 -104 -115 -180 1 -115 87 -203 200 -203
175 0 265 208 146 338 -53 59 -165 80 -231 45z m145 -78 c16 -9 36 -29 45 -45
31 -60 10 -137 -45 -165 -84 -43 -180 13 -180 105 0 92 96 148 180 105z"/>
<path d="M570 1965 c-9 -11 -11 -35 -6 -83 18 -180 88 -326 217 -454 62 -61
97 -86 171 -122 125 -62 199 -80 328 -80 129 0 203 18 329 80 76 38 108 61
177 129 71 72 90 99 133 187 55 116 72 177 74 274 2 53 -1 69 -15 78 -35 22
-52 -4 -65 -100 -34 -258 -191 -453 -433 -538 -75 -26 -98 -30 -200 -30 -102
0 -125 4 -200 30 -239 84 -400 283 -432 532 -6 48 -16 93 -21 100 -13 17 -42
15 -57 -3z"/>
<path d="M544 1230 c-46 -18 -64 -57 -64 -136 0 -41 -3 -74 -6 -74 -4 0 -22
14 -41 31 -44 38 -86 37 -91 -1 -2 -21 11 -37 79 -93 45 -37 88 -67 96 -67 24
0 185 140 181 157 -2 9 -12 22 -24 29 -19 13 -25 11 -68 -22 l-47 -36 3 69 3
68 154 3 c93 1 160 7 168 13 19 17 16 47 -6 59 -24 12 -307 13 -337 0z"/>
<path d="M1678 1230 c-21 -13 -23 -43 -5 -59 8 -6 75 -12 168 -13 l154 -3 3
-68 3 -69 -47 36 c-43 33 -49 35 -68 22 -12 -7 -22 -20 -24 -29 -4 -17 157
-157 180 -157 8 0 52 30 97 66 85 69 102 102 63 123 -18 10 -34 3 -99 -45
l-23 -16 0 76 c0 70 -2 78 -29 108 l-29 33 -164 3 c-101 1 -170 -2 -180 -8z"/>
<path d="M1212 1129 c-19 -6 -53 -29 -76 -52 -74 -75 -84 -169 -26 -261 l29
-46 -29 -15 c-77 -40 -148 -148 -157 -241 -9 -88 -25 -84 327 -84 352 0 336
-4 327 84 -9 91 -82 202 -159 242 l-27 14 29 46 c58 91 48 186 -26 260 -58 59
-130 76 -212 53z m127 -87 c37 -20 71 -73 71 -110 0 -65 -60 -122 -130 -122
-70 0 -130 57 -130 122 0 60 69 128 130 128 14 0 41 -8 59 -18z m35 -336 c68
-28 128 -97 151 -173 l6 -23 -251 0 -251 0 6 23 c23 75 82 144 149 173 41 17
148 18 190 0z"/>
<path d="M419 797 c-61 -33 -99 -89 -106 -160 -5 -48 -2 -64 22 -112 15 -31
34 -59 41 -62 10 -3 0 -14 -28 -32 -61 -39 -124 -115 -142 -169 -26 -86 -27
-111 -5 -133 19 -19 30 -20 325 -17 342 3 329 0 319 77 -11 95 -74 192 -152
237 l-44 27 19 21 c49 53 69 151 44 217 -43 111 -185 163 -293 106z m160 -71
c59 -31 80 -109 47 -174 -36 -71 -140 -82 -200 -23 -27 28 -31 38 -31 87 0 51
3 58 37 90 30 27 46 34 78 34 23 0 54 -7 69 -14z m49 -345 c65 -34 132 -120
132 -171 0 -20 -5 -20 -246 -20 l-246 0 6 32 c14 72 88 148 168 174 53 17 136
10 186 -15z"/>
<path d="M1949 800 c-41 -22 -86 -71 -101 -109 -25 -65 -5 -163 44 -217 19
-21 19 -21 -11 -34 -41 -17 -118 -101 -142 -155 -24 -54 -34 -134 -20 -155 9
-13 56 -15 303 -18 161 -2 303 0 315 3 34 8 42 33 31 95 -17 94 -78 185 -151
225 l-34 18 31 50 c59 96 36 219 -53 282 -55 39 -156 46 -212 15z m175 -91
c83 -72 43 -204 -65 -216 -83 -9 -142 44 -141 128 1 49 16 75 55 99 50 31 109
26 151 -11z m-8 -314 c62 -18 126 -72 153 -128 39 -81 52 -77 -223 -77 -135 0
-247 4 -250 8 -8 14 34 96 67 130 70 73 156 96 253 67z"/>
</g>
</svg>
