<svg xmlns="http://www.w3.org/2000/svg" xmlns:xlink="http://www.w3.org/1999/xlink" width="500" zoomAndPan="magnify" viewBox="0 0 375 374.999991" height="500" preserveAspectRatio="xMidYMid meet" version="1.0"><defs><clipPath id="3339b88084"><path d="M 33 33 L 341.894531 33 L 341.894531 341.894531 L 33 341.894531 Z M 33 33 " clip-rule="nonzero"/></clipPath></defs><g clip-path="url(#3339b88084)"><path fill="#000000" d="M 107.636719 143.183594 C 103.941406 149.640625 101.027344 156.609375 99.03125 163.949219 C 98.027344 167.644531 95.179688 170.265625 91.417969 170.957031 L 85.574219 172.039062 C 81.109375 172.863281 77.890625 176.519531 77.636719 181.050781 C 77.519531 183.148438 77.453125 185.265625 77.453125 187.394531 C 77.453125 189.523438 77.519531 191.644531 77.636719 193.738281 C 77.890625 198.273438 81.113281 201.925781 85.574219 202.753906 L 91.414062 203.835938 C 95.175781 204.53125 98.023438 207.148438 99.03125 210.84375 C 101.027344 218.1875 103.941406 225.15625 107.636719 231.609375 C 109.539062 234.929688 109.378906 238.800781 107.210938 241.949219 L 103.5 247.347656 C 100.957031 251.042969 101.226562 255.820312 104.15625 259.214844 C 106.867188 262.347656 109.753906 265.335938 112.796875 268.144531 C 116.171875 271.265625 121.117188 271.621094 124.90625 269.015625 L 130.457031 265.195312 C 133.613281 263.027344 137.480469 262.867188 140.800781 264.773438 C 147.257812 268.472656 154.226562 271.386719 161.570312 273.382812 C 165.261719 274.386719 167.882812 277.234375 168.578125 280.996094 L 170.078125 289.085938 C 170.890625 293.476562 174.433594 296.664062 178.890625 297.007812 C 181.695312 297.222656 184.535156 297.339844 187.394531 297.339844 C 190.257812 297.339844 193.097656 297.222656 195.902344 297.007812 C 200.355469 296.664062 203.898438 293.476562 204.710938 289.085938 L 206.214844 280.992188 C 206.910156 277.234375 209.53125 274.386719 213.21875 273.382812 C 220.558594 271.382812 227.53125 268.472656 233.988281 264.773438 C 237.308594 262.867188 241.175781 263.027344 244.332031 265.195312 L 249.882812 269.015625 C 253.667969 271.621094 258.613281 271.265625 261.988281 268.144531 C 265.03125 265.335938 267.917969 262.347656 270.625 259.210938 C 273.554688 255.820312 273.820312 251.039062 271.277344 247.347656 L 267.570312 241.949219 C 265.402344 238.796875 265.242188 234.929688 267.144531 231.609375 C 270.84375 225.15625 273.761719 218.1875 275.757812 210.84375 C 276.761719 207.148438 279.609375 204.53125 283.371094 203.835938 L 289.210938 202.753906 C 293.671875 201.929688 296.890625 198.277344 297.148438 193.746094 C 297.269531 191.644531 297.328125 189.527344 297.328125 187.394531 C 297.328125 185.265625 297.269531 183.148438 297.148438 181.050781 C 296.890625 176.519531 293.671875 172.867188 289.210938 172.042969 L 283.371094 170.960938 C 279.605469 170.265625 276.761719 167.644531 275.757812 163.953125 C 273.761719 156.609375 270.84375 149.644531 267.144531 143.183594 C 265.242188 139.867188 265.402344 136 267.570312 132.839844 L 271.277344 127.441406 C 273.820312 123.75 273.558594 118.96875 270.625 115.578125 C 267.917969 112.441406 265.03125 109.457031 261.988281 106.644531 C 258.613281 103.523438 253.667969 103.171875 249.882812 105.773438 L 244.328125 109.59375 C 241.175781 111.765625 237.304688 111.921875 233.988281 110.015625 C 227.53125 106.320312 220.558594 103.40625 213.21875 101.40625 C 209.527344 100.402344 206.90625 97.554688 206.210938 93.796875 L 204.710938 85.699219 C 203.894531 81.304688 200.351562 78.121094 195.894531 77.777344 C 193.089844 77.566406 190.253906 77.449219 187.390625 77.449219 C 184.53125 77.449219 181.695312 77.566406 178.890625 77.777344 C 174.433594 78.121094 170.886719 81.308594 170.074219 85.703125 L 168.574219 93.792969 C 167.878906 97.554688 165.261719 100.398438 161.566406 101.40625 C 154.222656 103.40625 147.257812 106.320312 140.800781 110.015625 C 137.476562 111.917969 133.613281 111.761719 130.457031 109.59375 L 124.902344 105.773438 C 121.113281 103.167969 116.167969 103.523438 112.792969 106.644531 C 109.75 109.457031 106.863281 112.441406 104.152344 115.578125 C 101.222656 118.96875 100.957031 123.75 103.496094 127.445312 L 107.207031 132.839844 C 109.378906 135.996094 109.539062 139.863281 107.636719 143.183594 Z M 180.644531 228.101562 L 180.273438 223.488281 C 180.132812 221.789062 180.65625 220.273438 181.8125 219.023438 C 182.96875 217.769531 184.4375 217.125 186.140625 217.125 L 188.644531 217.125 C 190.351562 217.125 191.816406 217.769531 192.972656 219.023438 C 194.128906 220.277344 194.652344 221.792969 194.515625 223.488281 L 194.140625 228.101562 C 193.890625 231.167969 191.347656 233.519531 188.269531 233.519531 L 186.519531 233.519531 C 183.441406 233.519531 180.894531 231.167969 180.644531 228.101562 Z M 195.363281 195.289062 C 194.152344 207.273438 180.636719 207.273438 179.425781 195.289062 L 175.242188 153.777344 C 174.914062 150.5 175.882812 147.546875 178.09375 145.105469 C 182.699219 140.011719 192.0625 139.976562 196.699219 145.105469 C 198.910156 147.550781 199.875 150.5 199.550781 153.777344 Z M 53.332031 171.585938 C 53.074219 173.867188 51.011719 175.507812 48.726562 175.246094 C 46.445312 174.988281 44.808594 172.925781 45.066406 170.640625 C 48.898438 137.757812 63.851562 108.277344 86.0625 86.066406 C 105.460938 66.667969 130.402344 52.808594 158.308594 47.054688 L 147.617188 41.328125 C 145.59375 40.253906 144.832031 37.738281 145.910156 35.714844 C 146.984375 33.695312 149.5 32.929688 151.523438 34.007812 L 172.808594 45.40625 C 174.105469 45.988281 175.070312 47.21875 175.238281 48.730469 C 175.363281 49.824219 175.050781 50.871094 174.441406 51.6875 L 160.757812 71.105469 C 159.4375 72.984375 156.84375 73.433594 154.964844 72.117188 C 153.089844 70.792969 152.636719 68.199219 153.957031 66.324219 L 162.085938 54.789062 C 134.964844 59.933594 110.714844 73.195312 91.949219 91.960938 C 71.027344 112.882812 56.941406 140.640625 53.332031 171.585938 Z M 171.585938 321.453125 C 173.867188 321.710938 175.507812 323.777344 175.242188 326.058594 C 174.984375 328.339844 172.921875 329.980469 170.640625 329.71875 C 137.753906 325.890625 108.273438 310.933594 86.0625 288.722656 C 66.664062 269.328125 52.804688 244.382812 47.050781 216.472656 L 41.328125 227.164062 C 40.25 229.1875 37.734375 229.953125 35.710938 228.871094 C 33.6875 227.792969 32.925781 225.277344 34.003906 223.257812 L 45.402344 201.96875 C 45.984375 200.675781 47.214844 199.710938 48.726562 199.539062 C 49.820312 199.414062 50.863281 199.726562 51.679688 200.335938 L 71.09375 214.019531 C 72.972656 215.339844 73.425781 217.933594 72.105469 219.8125 C 70.785156 221.691406 68.191406 222.140625 66.3125 220.824219 L 54.78125 212.695312 C 59.925781 239.8125 73.1875 264.070312 91.953125 282.835938 C 112.882812 303.761719 140.640625 317.847656 171.585938 321.453125 Z M 321.457031 203.203125 C 321.714844 200.921875 323.777344 199.285156 326.0625 199.542969 C 328.34375 199.800781 329.980469 201.863281 329.722656 204.148438 C 325.894531 237.035156 310.9375 266.511719 288.726562 288.726562 C 269.332031 308.125 244.386719 321.984375 216.476562 327.738281 L 227.167969 333.460938 C 229.191406 334.539062 229.953125 337.054688 228.875 339.078125 C 227.796875 341.101562 225.28125 341.863281 223.257812 340.785156 L 201.972656 329.386719 C 200.679688 328.804688 199.714844 327.574219 199.542969 326.0625 C 199.417969 324.96875 199.730469 323.925781 200.339844 323.109375 L 214.023438 303.695312 C 215.34375 301.816406 217.9375 301.363281 219.816406 302.683594 C 221.695312 304.003906 222.144531 306.597656 220.824219 308.476562 L 212.699219 320.007812 C 239.816406 314.867188 264.074219 301.601562 282.839844 282.839844 C 303.761719 261.90625 317.851562 234.148438 321.457031 203.203125 Z M 203.203125 53.332031 C 200.921875 53.074219 199.285156 51.011719 199.542969 48.726562 C 199.800781 46.445312 201.863281 44.808594 204.148438 45.066406 C 237.035156 48.898438 266.511719 63.851562 288.722656 86.0625 C 308.121094 105.460938 321.980469 130.398438 327.734375 158.308594 L 333.460938 147.617188 C 334.535156 145.597656 337.050781 144.832031 339.074219 145.910156 C 341.097656 146.988281 341.859375 149.503906 340.785156 151.527344 L 329.386719 172.8125 C 328.804688 174.109375 327.574219 175.070312 326.0625 175.242188 C 324.96875 175.367188 323.925781 175.054688 323.109375 174.445312 L 303.691406 160.761719 C 301.8125 159.445312 301.359375 156.847656 302.679688 154.96875 C 304 153.089844 306.59375 152.640625 308.472656 153.960938 L 320.003906 162.085938 C 314.863281 134.96875 301.601562 110.714844 282.835938 91.949219 C 261.90625 71.027344 234.148438 56.9375 203.203125 53.332031 Z M 123.351562 187.390625 C 123.351562 152.027344 152.03125 123.351562 187.394531 123.351562 C 222.757812 123.351562 251.433594 152.03125 251.433594 187.390625 C 251.433594 222.753906 222.757812 251.4375 187.394531 251.4375 C 152.03125 251.4375 123.351562 222.757812 123.351562 187.390625 Z M 123.351562 187.390625 " fill-opacity="1" fill-rule="evenodd"/></g></svg>