<?xml version="1.0" standalone="no"?>
<!DOCTYPE svg PUBLIC "-//W3C//DTD SVG 20010904//EN"
 "http://www.w3.org/TR/2001/REC-SVG-20010904/DTD/svg10.dtd">
<svg version="1.0" xmlns="http://www.w3.org/2000/svg"
 width="512.000000pt" height="512.000000pt" viewBox="0 0 512.000000 512.000000"
 preserveAspectRatio="xMidYMid meet">

<g transform="translate(0.000000,512.000000) scale(0.100000,-0.100000)"
fill="#000000" stroke="none">
<path d="M3799 4858 c-394 -28 -743 -271 -918 -639 -284 -596 12 -1312 633
-1534 238 -85 504 -88 744 -8 465 155 780 612 759 1103 -9 210 -67 399 -175
566 -229 354 -614 543 -1043 512z m21 -230 c0 -60 4 -76 22 -95 28 -30 74 -30
105 -1 20 19 23 31 23 99 l0 78 38 -6 c183 -26 358 -99 496 -208 19 -14 17
-17 -42 -79 -78 -81 -84 -129 -21 -162 42 -21 71 -9 134 57 31 32 58 59 59 59
2 0 27 -34 56 -75 87 -127 148 -281 165 -419 l7 -56 -72 0 c-66 0 -74 -2 -101
-29 -32 -32 -35 -47 -18 -84 16 -34 49 -47 126 -47 l66 0 -7 -49 c-20 -149
-91 -325 -178 -443 l-43 -57 -62 60 c-51 49 -67 59 -97 59 -43 0 -76 -31 -76
-73 0 -22 15 -44 62 -93 70 -73 73 -60 -30 -130 -116 -78 -324 -154 -424 -154
l-38 0 0 70 c0 62 -3 74 -25 95 -30 31 -71 32 -102 3 -20 -19 -23 -31 -23 -96
l0 -75 -63 6 c-143 13 -361 107 -464 200 l-23 20 60 63 c66 69 73 94 39 138
-15 19 -30 26 -55 26 -29 0 -46 -10 -96 -57 l-60 -58 -30 35 c-80 94 -156 264
-184 408 -21 108 -24 102 55 102 85 0 124 25 124 79 0 54 -31 75 -118 79 -85
5 -81 -2 -61 104 29 147 127 361 195 422 22 20 22 20 79 -36 64 -63 91 -75
124 -57 69 37 65 83 -14 165 -35 37 -58 68 -52 72 5 4 37 26 69 48 78 54 166
97 249 124 72 24 206 50 219 43 4 -2 7 -36 7 -75z"/>
<path d="M3846 4309 c-26 -20 -26 -21 -26 -163 l0 -143 -39 -18 c-48 -21 -115
-89 -135 -135 -30 -75 -28 -158 8 -241 5 -12 -11 -38 -56 -90 -84 -97 -98
-118 -98 -149 0 -35 39 -70 76 -70 38 0 39 1 124 100 55 63 79 84 94 82 107
-15 154 -13 204 8 58 25 125 92 149 148 21 49 20 156 -1 205 -23 53 -87 120
-136 142 l-40 18 0 139 c0 134 -1 140 -25 163 -30 30 -64 32 -99 4z m130 -493
c39 -39 45 -89 17 -137 -17 -29 -67 -59 -97 -59 -62 0 -116 57 -116 122 0 65
45 107 114 108 42 0 53 -5 82 -34z"/>
<path d="M1670 4316 c-139 -30 -248 -90 -346 -192 l-61 -64 -70 0 c-98 0 -115
-15 -121 -104 l-4 -66 -227 0 c-244 0 -264 -4 -291 -53 -14 -27 -13 -31 27
-107 l42 -78 -59 -78 c-45 -57 -60 -85 -60 -109 0 -54 28 -69 135 -75 l94 -5
-85 -95 c-67 -75 -84 -100 -84 -125 0 -48 33 -71 120 -87 l75 -14 5 -97 c6
-106 14 -122 68 -133 31 -6 38 -2 115 77 46 46 140 145 210 219 117 124 128
133 138 115 23 -41 176 -182 230 -212 132 -74 298 -94 433 -52 l67 20 31 -26
c45 -38 94 -55 157 -55 131 1 231 100 231 230 0 53 -15 92 -57 148 l-25 33 23
52 c12 29 30 81 39 117 l17 65 39 3 c108 7 114 21 114 245 0 170 -9 220 -40
237 -10 6 -63 10 -117 10 l-98 0 -70 69 c-85 85 -164 133 -270 167 -98 31
-232 39 -325 20z m261 -162 c57 -17 130 -52 164 -78 18 -14 -9 -15 -294 -16
-342 0 -341 0 -243 53 103 56 263 73 373 41z m499 -339 l0 -95 -600 0 -600 0
0 95 0 95 600 0 600 0 0 -95z m-1360 -132 c0 -62 18 -96 57 -108 18 -6 35 -14
39 -18 4 -4 -90 -7 -210 -7 l-217 0 26 37 c28 42 32 80 10 109 -8 10 -15 22
-15 27 0 4 70 7 155 7 l155 0 0 -47z m1204 -135 c-29 -92 -29 -93 -73 -99 -75
-10 -215 -169 -236 -267 -9 -41 -47 -60 -140 -69 -76 -7 -176 20 -247 67 -102
68 -213 219 -243 330 -4 14 -9 33 -11 43 -5 16 22 17 476 17 l481 0 -7 -22z
m-1214 -288 c-68 -72 -127 -133 -131 -136 -5 -2 -15 11 -23 29 -14 34 -53 57
-97 57 -11 0 -19 3 -19 6 0 3 34 44 76 90 l76 84 120 0 120 0 -122 -130z
m1190 -41 c22 -28 40 -60 40 -71 0 -29 -53 -78 -85 -78 -34 0 -85 50 -85 83 0
20 71 117 86 117 2 0 22 -23 44 -51z"/>
<path d="M1018 2754 c-172 -55 -314 -190 -375 -354 -40 -105 -383 -1245 -389
-1291 -7 -54 9 -141 36 -192 l20 -37 -89 0 c-74 0 -92 -3 -115 -21 l-26 -20 0
-264 c0 -145 3 -271 6 -280 19 -47 -103 -45 2474 -45 2577 0 2455 -2 2474 45
3 9 6 135 6 280 l0 264 -26 20 c-26 21 -34 21 -686 21 -625 0 -660 1 -653 18
10 26 125 950 125 1008 0 63 -38 142 -88 184 -68 56 -99 60 -494 60 l-358 0 0
55 c0 82 -18 151 -62 245 -73 152 -218 272 -383 315 -50 13 -153 15 -690 15
l-630 -1 -77 -25z m1357 -139 c163 -42 294 -183 324 -349 6 -33 11 -72 11 -87
l0 -28 -372 -3 c-360 -3 -374 -4 -413 -25 -71 -38 -125 -108 -139 -182 -5 -26
94 -882 119 -1028 l6 -33 -117 0 c-107 0 -116 1 -109 18 32 82 7 199 -58 269
-76 83 -95 88 -384 91 -164 2 -253 7 -253 14 0 5 37 156 82 334 l82 324 -21
28 c-14 19 -31 28 -55 30 -68 6 -69 2 -173 -408 -52 -206 -95 -389 -95 -407 0
-22 8 -38 26 -52 26 -20 38 -21 325 -21 193 0 306 -4 322 -11 49 -22 76 -120
44 -159 -40 -51 -29 -50 -516 -50 -437 0 -456 1 -497 20 -60 29 -97 87 -102
158 -3 51 17 125 188 682 137 449 200 640 223 679 56 93 154 164 270 196 81
21 1198 21 1282 0z m1233 -641 c13 -9 27 -27 33 -41 10 -27 -104 -970 -121
-1004 -28 -51 -4 -49 -732 -49 l-677 0 -26 23 c-25 22 -27 32 -85 497 -33 261
-60 488 -60 504 0 19 10 40 27 58 l27 28 796 0 c713 0 798 -2 818 -16z m1280
-1406 l-3 -153 -2325 0 -2325 0 -3 153 -3 152 2331 0 2331 0 -3 -152z"/>
<path d="M2783 1731 c-85 -22 -167 -98 -194 -178 -15 -47 -7 -169 15 -210 24
-48 83 -103 133 -125 61 -27 156 -26 223 3 90 39 160 145 160 244 0 93 -69
204 -153 247 -45 22 -134 32 -184 19z m143 -185 c29 -29 34 -41 34 -80 0 -61
-37 -105 -96 -113 -97 -13 -164 80 -119 167 21 42 53 60 103 60 37 0 50 -6 78
-34z"/>
</g>
</svg>
