<?xml version="1.0" encoding="UTF-8" standalone="no" ?>
<!DOCTYPE svg PUBLIC "-//W3C//DTD SVG 1.1//EN" "http://www.w3.org/Graphics/SVG/1.1/DTD/svg11.dtd">
<svg xmlns="http://www.w3.org/2000/svg" xmlns:xlink="http://www.w3.org/1999/xlink" version="1.1" width="500" height="500" viewBox="0 0 500 500" xml:space="preserve">
<desc>Created with Fabric.js 5.2.4</desc>
<defs>
</defs>
<rect x="0" y="0" width="100%" height="100%" fill="transparent"></rect>
<g transform="matrix(1 0 0 1 250 250)" id="85e1373f-234c-4973-9b24-d9ba98b9a79b"  >
<rect style="stroke: none; stroke-width: 1; stroke-dasharray: none; stroke-linecap: butt; stroke-dashoffset: 0; stroke-linejoin: miter; stroke-miterlimit: 4; fill: rgb(255,255,255); fill-rule: nonzero; opacity: 1; visibility: hidden;" vector-effect="non-scaling-stroke"  x="-250" y="-250" rx="0" ry="0" width="500" height="500" />
</g>
<g transform="matrix(0 0 0 0 0 0)" id="54d15b85-677b-4859-afbd-ddcb80c0f837"  >
</g>
<g transform="matrix(0.46 0 0 0.46 499.85 499.85)"  >
<g style="" vector-effect="non-scaling-stroke"   >
		<g transform="matrix(1 0 0 1 0 0)"  >
<rect style="stroke: none; stroke-width: 1; stroke-dasharray: none; stroke-linecap: butt; stroke-dashoffset: 0; stroke-linejoin: miter; stroke-miterlimit: 4; fill: rgb(255,255,255); fill-rule: nonzero; opacity: 1; visibility: hidden;" vector-effect="non-scaling-stroke"  x="-50" y="-50" rx="0" ry="0" width="100" height="100" />
</g>
		<g transform="matrix(0.35 0 0 0.35 1.17 1.17)"  >
<path style="stroke: rgb(0,0,0); stroke-width: 0; stroke-dasharray: none; stroke-linecap: butt; stroke-dashoffset: 0; stroke-linejoin: miter; stroke-miterlimit: 4; fill: rgb(254,254,254); fill-rule: nonzero; opacity: 1;" vector-effect="non-scaling-stroke"  transform=" translate(-128, -128)" d="M 218.123 218.127 L 180.192 218.127 L 180.192 158.72400000000002 C 180.192 144.55900000000003 179.93900000000002 126.32400000000001 160.464 126.32400000000001 C 140.708 126.32400000000001 137.685 141.758 137.685 157.693 L 137.685 218.12300000000002 L 99.755 218.12300000000002 L 99.755 95.967 L 136.168 95.967 L 136.168 112.661 L 136.678 112.661 C 144.1028265411858 99.9654019520469 157.90875973045425 92.3826676049128 172.606 92.928 C 211.051 92.928 218.139 118.216 218.139 151.114 L 218.12300000000002 218.127 Z M 56.955 79.27 C 44.798 79.27199999999999 34.941 69.41799999999999 34.939 57.260999999999996 C 34.937 45.104 44.79 35.247 56.947 35.245 C 69.104 35.242 78.961 45.096 78.963 57.253 C 78.96520938166043 69.410053838487 69.11205372569258 79.26723886563367 56.955000000000005 79.27 M 75.92099999999999 218.128 L 37.95 218.128 L 37.95 95.967 L 75.92 95.967 L 75.92 218.127 Z M 237.033 0.018 L 18.89 0.018 C 8.58 -0.098 0.125 8.161 -0.001 18.471 L -0.001 237.524 C 0.121 247.839 8.575000000000001 256.106 18.889 255.998 L 237.03300000000002 255.998 C 247.36900000000003 256.126 255.85600000000002 247.85899999999998 255.99900000000002 237.524 L 255.99900000000002 18.454 C 255.85200000000003 8.124 247.36400000000003 -0.13400000000000034 237.03300000000002 0.0010000000000012221" stroke-linecap="round" />
</g>
</g>
</g>
<g transform="matrix(4.71 0 0 4.71 250 250)"  >
<rect style="stroke: none; stroke-width: 1; stroke-dasharray: none; stroke-linecap: butt; stroke-dashoffset: 0; stroke-linejoin: miter; stroke-miterlimit: 4; fill: rgb(255,255,255); fill-opacity: 0; fill-rule: nonzero; opacity: 1;" vector-effect="non-scaling-stroke"  x="-50" y="-50" rx="0" ry="0" width="100" height="100" />
</g>
<g transform="matrix(4.71 0 0 4.71 250 250)"  >
<rect style="stroke: none; stroke-width: 1; stroke-dasharray: none; stroke-linecap: butt; stroke-dashoffset: 0; stroke-linejoin: miter; stroke-miterlimit: 4; fill: rgb(255,255,255); fill-rule: nonzero; opacity: 1; visibility: hidden;" vector-effect="non-scaling-stroke"  x="-50" y="-50" rx="0" ry="0" width="100" height="100" />
</g>
<g transform="matrix(1.55 0 0 1.55 250 249.99)"  >
<path style="stroke: rgb(0,0,0); stroke-width: 0; stroke-dasharray: none; stroke-linecap: butt; stroke-dashoffset: 0; stroke-linejoin: miter; stroke-miterlimit: 4; fill: rgb(0,0,0); fill-rule: nonzero; opacity: 1;" vector-effect="non-scaling-stroke"  transform=" translate(-128, -124.84)" d="M 128.001 0 C 57.317 0 0 57.307 0 128.001 C 0 184.555 36.676 232.536 87.535 249.461 C 93.932 250.64600000000002 96.28099999999999 246.68400000000003 96.28099999999999 243.30300000000003 C 96.28099999999999 240.25100000000003 96.16099999999999 230.16800000000003 96.10699999999999 219.473 C 60.496999999999986 227.215 52.98299999999998 204.37 52.98299999999998 204.37 C 47.15999999999998 189.57500000000002 38.76999999999998 185.64000000000001 38.76999999999998 185.64000000000001 C 27.156999999999982 177.69600000000003 39.64599999999998 177.86 39.64599999999998 177.86 C 52.49899999999998 178.762 59.26699999999998 191.05 59.26699999999998 191.05 C 70.68399999999998 210.61800000000002 89.21199999999999 204.961 96.51599999999999 201.69 C 97.66499999999999 193.418 100.98199999999999 187.77 104.64299999999999 184.574 C 76.21199999999999 181.33800000000002 46.32499999999999 170.36200000000002 46.32499999999999 121.316 C 46.32499999999999 107.34100000000001 51.32499999999999 95.922 59.51299999999999 86.958 C 58.18399999999999 83.734 53.80299999999999 70.716 60.75299999999999 53.083999999999996 C 60.75299999999999 53.083999999999996 71.502 49.644 95.963 66.205 C 106.173 63.369 117.12299999999999 61.946999999999996 128.00099999999998 61.897999999999996 C 138.87899999999996 61.946999999999996 149.83799999999997 63.367999999999995 160.06699999999998 66.205 C 184.498 49.644999999999996 195.23199999999997 53.085 195.23199999999997 53.085 C 202.19899999999998 70.715 197.81599999999997 83.735 196.48699999999997 86.958 C 204.69399999999996 95.922 209.65999999999997 107.341 209.65999999999997 121.316 C 209.65999999999997 170.47899999999998 179.71599999999998 181.304 151.21299999999997 184.473 C 155.80399999999997 188.44500000000002 159.89499999999995 196.235 159.89499999999995 208.17700000000002 C 159.89499999999995 225.30300000000003 159.74699999999996 239.08700000000002 159.74699999999996 243.30300000000003 C 159.74699999999996 246.71000000000004 162.05099999999996 250.70100000000002 168.53899999999996 249.443 C 219.37 232.5 256 184.537 256 128.002 C 256 57.307 198.691 0 128.001 0 Z M 47.941 182.34 C 47.659000000000006 182.976 46.658 183.167 45.747 182.73 C 44.818 182.313 44.297 181.446 44.597 180.808 C 44.873000000000005 180.153 45.876000000000005 179.97 46.802 180.409 C 47.732 180.827 48.262 181.702 47.941 182.34 Z M 54.237 187.958 C 53.627 188.524 52.433 188.261 51.623000000000005 187.367 C 50.786 186.475 50.629000000000005 185.28099999999998 51.248000000000005 184.707 C 51.87800000000001 184.141 53.035000000000004 184.406 53.874 185.298 C 54.712 186.201 54.874 187.386 54.237 187.958 Z M 58.557 195.146 C 57.772000000000006 195.69099999999997 56.49 195.17999999999998 55.697 194.04199999999997 C 54.913000000000004 192.90399999999997 54.913000000000004 191.539 55.714000000000006 190.99199999999996 C 56.50900000000001 190.44499999999996 57.772000000000006 190.93699999999995 58.575 192.06699999999995 C 59.357 193.22399999999996 59.357 194.58899999999994 58.556000000000004 195.14699999999996 Z M 65.861 203.47099999999998 C 65.16000000000001 204.24499999999998 63.665000000000006 204.03699999999998 62.571000000000005 202.98099999999997 C 61.452000000000005 201.94899999999996 61.141000000000005 200.48499999999996 61.845000000000006 199.71099999999996 C 62.55500000000001 198.93499999999995 64.058 199.15299999999996 65.16000000000001 200.20099999999996 C 66.27000000000001 201.23099999999997 66.61000000000001 202.70599999999996 65.861 203.47099999999998 Z M 75.303 206.28099999999998 C 74.993 207.28399999999996 73.553 207.73999999999998 72.104 207.31399999999996 C 70.656 206.87499999999997 69.709 205.70099999999996 70.001 204.68799999999996 C 70.302 203.67799999999997 71.748 203.20399999999995 73.208 203.65999999999997 C 74.654 204.09599999999998 75.604 205.26199999999997 75.303 206.28199999999998 Z M 86.047 207.474 C 86.083 208.529 84.854 209.404 83.332 209.42399999999998 C 81.80199999999999 209.45799999999997 80.56299999999999 208.60399999999998 80.54599999999999 207.56399999999996 C 80.54599999999999 206.49899999999997 81.74799999999999 205.63199999999998 83.279 205.60599999999997 C 84.801 205.57599999999996 86.047 206.42399999999998 86.047 207.47399999999996 Z M 96.602 207.069 C 96.784 208.099 95.727 209.15699999999998 94.215 209.439 C 92.73 209.70999999999998 91.354 209.07399999999998 91.165 208.053 C 90.98100000000001 206.99699999999999 92.058 205.939 93.54100000000001 205.666 C 95.055 205.403 96.409 206.022 96.602 207.069 Z" stroke-linecap="round" />
</g>
</svg>