<svg xmlns="http://www.w3.org/2000/svg" xmlns:xlink="http://www.w3.org/1999/xlink" width="500" zoomAndPan="magnify" viewBox="0 0 375 374.999991" height="500" preserveAspectRatio="xMidYMid meet" version="1.2"><defs><clipPath id="b2931d2aac"><path d="M 39 43.800781 L 333 43.800781 L 333 330 L 39 330 Z M 39 43.800781 "/></clipPath></defs><g id="94c5985eac"><g clip-rule="nonzero" clip-path="url(#b2931d2aac)"><path style=" stroke:none;fill-rule:nonzero;fill:#000000;fill-opacity:1;" d="M 185.6875 43.816406 C 104.832031 43.816406 39.269531 109.371094 39.269531 190.238281 C 39.269531 254.929688 81.222656 309.816406 139.398438 329.175781 C 146.71875 330.53125 149.40625 326 149.40625 322.132812 C 149.40625 318.640625 149.265625 307.105469 149.207031 294.871094 C 108.472656 303.726562 99.875 277.59375 99.875 277.59375 C 93.214844 260.671875 83.617188 256.171875 83.617188 256.171875 C 70.332031 247.082031 84.621094 247.269531 84.621094 247.269531 C 99.324219 248.300781 107.066406 262.359375 107.066406 262.359375 C 120.125 284.742188 141.320312 278.273438 149.671875 274.53125 C 150.988281 265.066406 154.78125 258.605469 158.96875 254.949219 C 126.449219 251.25 92.261719 238.695312 92.261719 182.589844 C 92.261719 166.605469 97.980469 153.542969 107.347656 143.289062 C 105.824219 139.601562 100.8125 124.707031 108.765625 104.539062 C 108.765625 104.539062 121.058594 100.605469 149.039062 119.546875 C 160.71875 116.304688 173.246094 114.679688 185.6875 114.621094 C 198.132812 114.679688 210.667969 116.304688 222.371094 119.546875 C 250.316406 100.605469 262.59375 104.539062 262.59375 104.539062 C 270.5625 124.707031 265.550781 139.601562 264.03125 143.289062 C 273.417969 153.542969 279.097656 166.605469 279.097656 182.589844 C 279.097656 238.828125 244.847656 251.210938 212.242188 254.835938 C 217.492188 259.378906 222.171875 268.289062 222.171875 281.949219 C 222.171875 301.539062 222.003906 317.308594 222.003906 322.132812 C 222.003906 326.027344 224.640625 330.59375 232.0625 329.15625 C 290.207031 309.773438 332.105469 254.910156 332.105469 190.238281 C 332.105469 109.371094 266.550781 43.816406 185.6875 43.816406 Z M 94.109375 252.394531 C 93.785156 253.121094 92.640625 253.339844 91.597656 252.839844 C 90.535156 252.363281 89.941406 251.371094 90.285156 250.644531 C 90.597656 249.894531 91.746094 249.683594 92.804688 250.1875 C 93.871094 250.664062 94.476562 251.664062 94.109375 252.394531 Z M 101.3125 258.820312 C 100.613281 259.46875 99.246094 259.167969 98.320312 258.144531 C 97.363281 257.125 97.183594 255.757812 97.890625 255.101562 C 98.613281 254.457031 99.9375 254.757812 100.894531 255.777344 C 101.855469 256.8125 102.039062 258.167969 101.3125 258.820312 Z M 106.253906 267.042969 C 105.355469 267.667969 103.886719 267.082031 102.980469 265.78125 C 102.082031 264.480469 102.082031 262.917969 103 262.292969 C 103.910156 261.667969 105.355469 262.230469 106.273438 263.523438 C 107.167969 264.847656 107.167969 266.40625 106.25 267.046875 Z M 114.605469 276.566406 C 113.804688 277.453125 112.09375 277.214844 110.84375 276.007812 C 109.5625 274.828125 109.207031 273.152344 110.011719 272.265625 C 110.824219 271.378906 112.542969 271.628906 113.804688 272.828125 C 115.074219 274.003906 115.464844 275.691406 114.605469 276.566406 Z M 125.40625 279.78125 C 125.054688 280.929688 123.40625 281.449219 121.75 280.964844 C 120.09375 280.460938 119.007812 279.117188 119.34375 277.960938 C 119.6875 276.804688 121.339844 276.261719 123.011719 276.785156 C 124.664062 277.28125 125.753906 278.617188 125.40625 279.78125 Z M 137.699219 281.144531 C 137.738281 282.351562 136.332031 283.355469 134.59375 283.375 C 132.84375 283.414062 131.425781 282.4375 131.40625 281.25 C 131.40625 280.03125 132.78125 279.039062 134.53125 279.007812 C 136.273438 278.976562 137.699219 279.945312 137.699219 281.144531 Z M 149.773438 280.683594 C 149.980469 281.859375 148.769531 283.070312 147.042969 283.394531 C 145.34375 283.703125 143.769531 282.976562 143.550781 281.808594 C 143.34375 280.601562 144.574219 279.390625 146.269531 279.078125 C 148.003906 278.777344 149.550781 279.484375 149.773438 280.683594 Z M 149.773438 280.683594 "/></g></g></svg>