<?xml version="1.0" encoding="UTF-8" standalone="no" ?>
<!DOCTYPE svg PUBLIC "-//W3C//DTD SVG 1.1//EN" "http://www.w3.org/Graphics/SVG/1.1/DTD/svg11.dtd">
<svg xmlns="http://www.w3.org/2000/svg" xmlns:xlink="http://www.w3.org/1999/xlink" version="1.1" width="500" height="500" viewBox="0 0 500 500" xml:space="preserve">
<desc>Created with Fabric.js 5.2.4</desc>
<defs>
</defs>
<rect x="0" y="0" width="100%" height="100%" fill="transparent"></rect>
<g transform="matrix(1 0 0 1 250 250)" id="85e1373f-234c-4973-9b24-d9ba98b9a79b"  >
<rect style="stroke: none; stroke-width: 1; stroke-dasharray: none; stroke-linecap: butt; stroke-dashoffset: 0; stroke-linejoin: miter; stroke-miterlimit: 4; fill: rgb(255,255,255); fill-rule: nonzero; opacity: 1; visibility: hidden;" vector-effect="non-scaling-stroke"  x="-250" y="-250" rx="0" ry="0" width="500" height="500" />
</g>
<g transform="matrix(0 0 0 0 0 0)" id="54d15b85-677b-4859-afbd-ddcb80c0f837"  >
</g>
<g transform="matrix(4.71 0 0 4.71 250 250)"  >
<rect style="stroke: none; stroke-width: 1; stroke-dasharray: none; stroke-linecap: butt; stroke-dashoffset: 0; stroke-linejoin: miter; stroke-miterlimit: 4; fill: rgb(255,255,255); fill-rule: nonzero; opacity: 1; visibility: hidden;" vector-effect="non-scaling-stroke"  x="-50" y="-50" rx="0" ry="0" width="100" height="100" />
</g>
<g transform="matrix(1.86 0 0 1.86 250 250)" id="df42e34b-59d4-4d4e-8666-2f443242c4db"  >
<path style="stroke: rgb(0,0,0); stroke-width: 0; stroke-dasharray: none; stroke-linecap: butt; stroke-dashoffset: 0; stroke-linejoin: miter; stroke-miterlimit: 4; fill: rgb(0,0,0); fill-rule: nonzero; opacity: 1;" vector-effect="non-scaling-stroke"  transform=" translate(-128, -128)" d="M 128 23.064 C 162.177 23.064 166.225 23.194 179.722 23.809 C 192.202 24.379 198.98000000000002 26.464000000000002 203.491 28.217000000000002 C 209.465 30.539 213.729 33.313 218.20800000000003 37.792 C 222.68800000000002 42.271 225.461 46.535000000000004 227.78300000000002 52.509 C 229.536 57.02 231.621 63.798 232.191 76.277 C 232.806 89.775 232.936 93.82300000000001 232.936 128 C 232.936 162.178 232.806 166.226 232.191 179.723 C 231.621 192.203 229.536 198.98000000000002 227.78300000000002 203.491 C 225.461 209.465 222.687 213.73000000000002 218.20800000000003 218.209 C 213.729 222.68800000000002 209.46500000000003 225.462 203.491 227.78300000000002 C 198.98000000000002 229.536 192.20200000000003 231.622 179.722 232.191 C 166.227 232.80700000000002 162.179 232.937 128 232.937 C 93.82 232.937 89.77199999999999 232.80700000000002 76.277 232.191 C 63.797 231.621 57.019999999999996 229.536 52.509 227.78300000000002 C 46.535 225.46200000000002 42.269999999999996 222.68800000000002 37.791 218.209 C 33.312 213.729 30.537999999999997 209.465 28.217 203.491 C 26.464 198.98100000000002 24.378 192.203 23.808999999999997 179.723 C 23.192999999999998 166.226 23.063 162.178 23.063 128 C 23.063 93.82300000000001 23.192999999999998 89.775 23.808999999999997 76.27799999999999 C 24.378999999999998 63.79799999999999 26.464 57.019999999999996 28.217 52.50899999999999 C 30.538 46.535 33.312 42.270999999999994 37.791 37.791999999999994 C 42.271 33.312 46.535 30.538999999999994 52.509 28.216999999999995 C 57.019 26.463999999999995 63.797 24.378999999999994 76.277 23.808999999999994 C 89.774 23.193999999999996 93.822 23.063999999999993 128 23.063999999999993 M 128 0 C 93.237 0 88.878 0.147 75.226 0.77 C 61.601 1.392 52.296 3.556 44.155 6.720000000000001 C 35.737 9.991 28.599000000000004 14.368 21.483 21.484 C 14.367 28.6 9.991 35.738 6.72 44.155 C 3.555 52.297 1.392 61.602 0.77 75.226 C 0.147 88.878 0 93.237 0 128 C 0 162.763 0.147 167.122 0.77 180.774 C 1.392 194.399 3.555 203.704 6.720000000000001 211.845 C 9.99 220.262 14.367 227.401 21.483 234.517 C 28.599 241.63299999999998 35.737 246.009 44.155 249.28 C 52.297 252.445 61.601 254.608 75.225 255.23 C 88.878 255.85299999999998 93.237 256 128 256 C 162.763 256 167.122 255.853 180.774 255.23 C 194.398 254.60799999999998 203.703 252.445 211.844 249.28 C 220.262 246.01 227.4 241.633 234.516 234.517 C 241.632 227.401 246.009 220.263 249.28 211.845 C 252.444 203.703 254.608 194.399 255.23 180.775 C 255.85299999999998 167.122 256 162.763 256 128 C 256 93.237 255.853 88.878 255.23 75.226 C 254.60799999999998 61.602 252.444 52.297 249.28 44.156 C 246.00900000000001 35.738 241.632 28.6 234.516 21.483999999999998 C 227.4 14.368 220.262 9.99 211.845 6.72 C 203.703 3.5559999999999996 194.398 1.3919999999999995 180.774 0.7699999999999996 C 167.122 0.147 162.763 0 128 0 Z M 128 62.27 C 91.698 62.27 62.27 91.7 62.27 128 C 62.27 164.302 91.69800000000001 193.73000000000002 128 193.73000000000002 C 164.301 193.73000000000002 193.73000000000002 164.30200000000002 193.73000000000002 128 C 193.73000000000002 91.699 164.30100000000002 62.269999999999996 128 62.269999999999996 Z M 128 170.667 C 104.436 170.667 85.333 151.564 85.333 128 C 85.333 104.436 104.436 85.333 128 85.333 C 151.564 85.333 170.667 104.436 170.667 128 C 170.667 151.564 151.564 170.667 128 170.667 Z M 211.686 59.673 C 211.686 68.157 204.81 75.033 196.32600000000002 75.033 C 187.84300000000002 75.033 180.966 68.157 180.966 59.673 C 180.966 51.19 187.84300000000002 44.313 196.32600000000002 44.313 C 204.81000000000003 44.313 211.68600000000004 51.190000000000005 211.68600000000004 59.673 Z" stroke-linecap="round" />
</g>
</svg>