<svg xmlns="http://www.w3.org/2000/svg" xmlns:xlink="http://www.w3.org/1999/xlink" width="500" zoomAndPan="magnify" viewBox="0 0 375 374.999991" height="500" preserveAspectRatio="xMidYMid meet" version="1.2"><defs><clipPath id="c3796f50ea"><path d="M 29.703125 29.703125 L 345.453125 29.703125 L 345.453125 345.453125 L 29.703125 345.453125 Z M 29.703125 29.703125 "/></clipPath></defs><g id="40a76fe514"><g clip-rule="nonzero" clip-path="url(#c3796f50ea)"><path style=" stroke:none;fill-rule:nonzero;fill:#000000;fill-opacity:1;" d="M 298.597656 298.601562 L 251.835938 298.601562 L 251.835938 225.371094 C 251.835938 207.910156 251.523438 185.429688 227.515625 185.429688 C 203.164062 185.429688 199.4375 204.457031 199.4375 224.101562 L 199.4375 298.597656 L 152.675781 298.597656 L 152.675781 148.007812 L 197.566406 148.007812 L 197.566406 168.585938 L 198.195312 168.585938 C 199.3125 166.675781 200.554688 164.847656 201.917969 163.105469 C 203.28125 161.359375 204.757812 159.714844 206.34375 158.171875 C 207.933594 156.625 209.617188 155.195312 211.394531 153.878906 C 213.175781 152.5625 215.035156 151.367188 216.976562 150.304688 C 218.917969 149.238281 220.921875 148.304688 222.988281 147.511719 C 225.054688 146.714844 227.167969 146.0625 229.320312 145.550781 C 231.476562 145.042969 233.65625 144.679688 235.859375 144.460938 C 238.0625 144.246094 240.273438 144.179688 242.484375 144.261719 C 289.878906 144.261719 298.617188 175.433594 298.617188 215.992188 Z M 99.914062 127.425781 C 84.929688 127.425781 72.777344 115.277344 72.773438 100.292969 C 72.773438 85.304688 84.917969 73.15625 99.90625 73.152344 C 114.890625 73.148438 127.042969 85.296875 127.046875 100.28125 C 127.046875 101.171875 127.003906 102.058594 126.914062 102.941406 C 126.828125 103.828125 126.699219 104.703125 126.523438 105.578125 C 126.351562 106.449219 126.136719 107.308594 125.878906 108.160156 C 125.621094 109.011719 125.320312 109.847656 124.980469 110.667969 C 124.640625 111.488281 124.261719 112.289062 123.84375 113.074219 C 123.425781 113.859375 122.96875 114.621094 122.476562 115.359375 C 121.980469 116.097656 121.453125 116.8125 120.890625 117.5 C 120.324219 118.1875 119.730469 118.84375 119.101562 119.472656 C 118.472656 120.101562 117.816406 120.695312 117.128906 121.261719 C 116.441406 121.824219 115.730469 122.355469 114.988281 122.847656 C 114.25 123.339844 113.488281 123.796875 112.707031 124.21875 C 111.921875 124.636719 111.121094 125.015625 110.300781 125.355469 C 109.476562 125.695312 108.640625 125.996094 107.792969 126.253906 C 106.941406 126.511719 106.082031 126.726562 105.207031 126.902344 C 104.335938 127.074219 103.460938 127.207031 102.574219 127.292969 C 101.691406 127.378906 100.804688 127.425781 99.914062 127.425781 M 123.296875 298.601562 L 76.488281 298.601562 L 76.488281 148.007812 L 123.292969 148.007812 L 123.292969 298.601562 Z M 321.90625 29.726562 L 52.988281 29.726562 C 40.28125 29.582031 29.859375 39.765625 29.703125 52.472656 L 29.703125 322.511719 C 29.851562 335.230469 40.273438 345.421875 52.988281 345.285156 L 321.90625 345.285156 C 334.648438 345.445312 345.113281 335.253906 345.289062 322.511719 L 345.289062 52.453125 C 345.105469 39.71875 334.644531 29.539062 321.90625 29.703125 "/></g></g></svg>